<?xml version="1.0" encoding="UTF-8"?><svg id="Layer_1" xmlns="http://www.w3.org/2000/svg" viewBox="0 0 1274.4 686.71"><defs><style>.cls-1{fill:#fff;}.cls-2{fill:#231f20;}</style></defs><path class="cls-2" d="m1135.07,98.83c-213.36-126.52-477.99-118.63-712.64-23.15-163.68,66.6-194.71,129.84-301.42,118.08-45.68-5.04-88.9,21.73-104.43,64.98h0c-6.15,17.14-8.91,35.31-8.11,53.5l7.54,173.1c4.5,103.27,96.93,181.38,199.21,166.35,1.28-.19,2.56-.39,3.84-.61,416.47-69.95,421.59-81.27,606.71-47.49,87.91,16.04,176.52,97.29,296.6,76.79,81.98-14,148.96-50.37,149.99-165.95,1.3-145.49,0-334.18-137.3-415.59Z"/><g><path class="cls-1" d="m552.51,503.62c-14.27-.34-29.33-6.27-43.59-13.11-13.91-6.67-28.99-19.94-37.15-34.67-8.16-14.72-14.36-32.13-18.58-52.19-4.23-20.07-4.36-45.75,1.34-68.96,5.5-22.4,62.35-54.07,70.36-68.72,10.14-18.53,34.2-79.31,43.06-93.63,8.86-14.32,25.38-25.19,37.41-32.92,12.03-7.72,31.26-11.27,45.53-10.93,14.27.34,39.9,5.77,51.47,14.06,11.56,8.29,23.83,22.75,32.08,37.48,8.24,14.73-2.01,76.85-11.65,104.67-6.57,18.97-49.97,41.17-50.54,65.06-.57,23.89-3.83,40.33-9.01,60.17-5.18,19.84-16.53,35.59-25.47,49.9-8.95,14.32-28.13,26.47-42.28,32.81-14.21,6.37-28.71,11.33-42.97,10.99Zm.92-38.28c10.54.25,20.3-2.7,29.29-8.87,8.99-6.16,16.86-14.81,23.62-25.92,6.75-11.11,9.51-19.23,11.37-34.59,2-16.48.43-35.02,5.24-55.36,4.1-17.34,52.24-55.87,60.48-69.07,7.14-11.43,18.18-62.99,13.23-73.48-5.06-10.73-9.17-14.75-17.85-21.21-8.69-6.45-18.3-9.81-28.84-10.06s-20.3,2.64-29.29,8.67c-8.99,6.04-16.82,14.61-23.49,25.72-6.68,11.11-19.23,60.25-26.84,74.63-9.43,17.82-68.25,48.98-71.22,64.06-3.41,17.32.08,37.49,1.02,55.74.79,15.36,3.27,27.54,9.41,38.96,6.13,11.42,6.34,13.94,15.03,20.53,8.68,6.59,18.29,10.01,28.84,10.27Z"/><path class="cls-1" d="m1007.96,204.23l-12.67,116.2,4.54,21.72c2.24,10.74,2.48,21.57.71,32.26l-24.95,150.22c-.86,6.2-3.28,11.26-7.27,15.21-3.99,3.95-13.73,5.59-18.34,5.23s-14.04-2.96-16.74-7.44c-2.7-4.48-3.63-9.8-2.76-16l26.71-159.75c.8-5.78.2-11.63-1.79-17.34l-.38-1.08c-4-11.48-5.22-23.23-3.6-34.83h0c.13-.92-1.88-1.24-2.35-.37l-8.18,15.2-14.1,32.76-68.31,136.61c-4.75,7.02-15.65,10.13-21.78,9.65-7.24-.57-17.35-5.48-19.42-14.47l.2-120.82,6.26-54.21,3.1-31.49c.12-1.18-2.52-1.5-2.97-.36h0c-8.02,20.64-24.42,39.36-47.55,54.26l-.56.36c-11.93,7.68-19.28,17.88-20.81,28.86l-16.84,120.99c-.86,6.2-3.23,11.26-7.11,15.22-3.88,3.96-13.68,5.6-18.5,5.22s-14.04-2.96-16.74-7.44-3.63-9.8-2.76-16l16.84-120.99c-1.35-6.3,9.82-34.39,27.63-51.06h0c25.18-16.93,43.21-37.79,52.48-60.69l30.6-75.63c.9-6.45,5.15-10.94,9.01-14.77,3.86-3.81,17.24-5.89,22.05-5.51,1.96.15,4.71.68,7.67,1.55,10.14,3,16.73,10.51,16.67,18.69l-10.13,134.08-5.78,56.17-3.62,40.09c-.19,2.16,4.58,2.79,5.51.73l22.71-50.2,14.54-33.85,54.39-126.93c1.77-3.32,4.29-6.4,7.59-8.96,8.88-6.89,16.43-5.09,21.86-4.66,4.82.38,12.63,3.06,18.36,7.11,4.66,3.29,7.49,10.02,6.59,16.48Z"/><path class="cls-1" d="m1036.61,557.47c-4.93-.62-23.45-10.89-26.21-13.87s-3.7-6.34-2.81-10.1l21.72-111.51c9.42-38.67,11.81-78.08,7.1-117.34l-2.01-85.1c.92-3.92,3.36-6.91,7.31-8.97,3.94-2.05,8.38-2.77,13.31-2.16l110.16,34.08c5.15.64,9.03,2.31,11.62,5.01,2.59,2.69,3.87,11.03,2.99,14.78s-3.1,6.29-6.76,8.11c-3.67,1.83-8.07,2.42-13.22,1.77l-66.14-18.15c-10.43-2.87-16.5,5.49-14.79,13.13l2.34,61.59c2.11,7.56,16.36,13.15,27.33,14.52l43.35,9.17c5.15.64,9.03,2.31,11.62,5.01,2.59,2.7,5.27,4.32,5.03,14.36-.18,7.65-3.71,10.06-7.81,11.17s-8.51.92-13.66.28l-40.95-8.87c-11.57-1.44-23.55-2.62-26,5.27l-29,127.87c-3.22,10.38,7.92,20.43,22.92,22.87l73.77,25.14c4.29,1.23,14.14,7.05,16.76,9.65,2.61,2.61,2.35,10.67,1.51,14.25-.89,3.75-8.11,9.09-14.34,9.68-4.13.39-15.53-.27-22.46-2.01l-92.68-29.64Z"/><path class="cls-1" d="m155.74,587.8c-6.7.25-12.5-1.13-17.39-4.12-4.89-2.99-7.58-6.81-8.06-11.44l-9.88-152.1c1.5-62.68,1.19-75.71,51.4-114.57l56.86-33.87c15.2-11.3,17.99-12.93,31.09-24.46,8.8-7.75,15.41-16.38,17.81-18.19,4.25-3.22,13.98-8.18,20.68-8.43.4-.01.82-.03,1.25-.05,15.67-.71,27.67,9.82,22.84,20.1-.08.16-.12.34-.23.5-14.46,20.59-25,27.43-40.9,40.79-8.07,6.78-17,12.94-26.72,18.34l-15.1,8.4c-15.16,8.18-12.94,10.23,9.35,9.41l65.52-2.86c12.38-1.48,52.83-1.89,65.95-10.45l46.85-29.78c18.82-16.82,29.04-21.34,36.73-42.02,6.58-17.68,11.95-42.84,16.62-52.6,1.99-4.15,14.38-9.37,21.08-9.62s17.46.4,22.8,9.96c1.32,2.36-4.84,30.27-11.13,51.25-6.02,20.09-13.63,28.67-30.01,45.66l-46.59,34.22c-12.77,13.24-17.66,20.8-17.15,36.85l4.01,172.58c.48,4.64-1.25,8.61-5.19,11.93-3.94,3.32-9.41,5.1-16.41,5.36-6.7.25-12.5-1.13-17.39-4.12s-7.58-6.81-8.06-11.44l-10.76-144.59c-1.03-11.53-11.7-28.79-28.36-28.17l-119.43,9.48c-23.5.86-37.04,13.16-36.3,29.44l-3.72,181.32c.48,4.64-1.33,8.62-5.42,11.94-4.09,3.32-9.64,5.11-16.64,5.37Z"/></g></svg>