<?xml version="1.0" encoding="UTF-8"?><svg id="Layer_1" xmlns="http://www.w3.org/2000/svg" viewBox="0 0 108.25 30.91"><defs><style>.cls-1,.cls-2,.cls-3{fill:#231f20;}.cls-4{letter-spacing:-.01em;}.cls-2{stroke:#231f20;stroke-miterlimit:10;stroke-width:.5px;}.cls-5{letter-spacing:-.05em;}.cls-3{font-family:MontserratRoman-ExtraBold, Montserrat;font-size:13px;font-variation-settings:'wght' 800;font-weight:700;}</style></defs><g><path class="cls-2" d="m9.97,27.44H2.08v3.11H.25v-8.47h1.83v3.11h7.89v2.25Z"/><path class="cls-2" d="m.25,14.21v-2.25h9.72v2.25H.25Zm9.72,4.4v2.26H.25v-2.26h9.72Zm-3.99-4.57v4.75h-1.9v-4.75h1.9Z"/><path class="cls-2" d="m8.17,7.41V2.12h1.81v7.53H.25V2.3h1.81v5.11h6.11Zm-4.01.17V2.9h1.76v4.68h-1.76Z"/></g><text class="cls-3" transform="translate(11.72 11.05)"><tspan class="cls-4" x="0" y="0">C</tspan><tspan x="9.4" y="0">OM</tspan><tspan class="cls-5" x="32.8" y="0">P</tspan><tspan x="41.79" y="0">ASSION</tspan></text><path class="cls-1" d="m27.99,22.94c-.53-.74-1.26-1.3-2.22-1.69-.1-.04-.21-.08-.32-.1.73-.37,1.31-.87,1.73-1.49.47-.7.72-1.52.72-2.45,0-1.39-.59-2.53-1.76-3.41-1.18-.88-2.95-1.32-5.35-1.32h-9.19v18.07h9.7c2.45,0,4.29-.43,5.56-1.31,1.26-.88,1.9-2.1,1.9-3.64,0-1.03-.27-1.92-.79-2.65Zm-11.34-6.76h3.51c.86,0,1.5.13,1.93.42.43.29.65.72.65,1.33,0,.57-.22.99-.65,1.29-.43.29-1.07.43-1.93.43h-3.51v-3.48Zm6.3,10.23c-.45.3-1.13.45-2.01.45h-4.28v-3.67h4.28c.89,0,1.56.14,2.01.45.44.3.67.75.67,1.37s-.23,1.08-.67,1.38Z"/><path class="cls-1" d="m36.49,26.58h9.45v3.98h-14.48V12.49h14.14v3.97h-9.11v10.12Zm-.36-7.1h8.39v3.8h-8.39v-3.8Z"/><polygon class="cls-1" points="65.97 12.48 65.97 30.55 61.77 30.55 53.79 20.92 53.79 30.55 48.81 30.55 48.81 12.48 53.01 12.48 60.96 22.1 60.96 12.48 65.97 12.48"/><path class="cls-1" d="m78.59,30.91c-1.43,0-2.74-.23-3.95-.68-1.2-.46-2.25-1.1-3.15-1.94-.89-.83-1.59-1.83-2.09-2.98-.5-1.15-.75-2.42-.75-3.79s.25-2.64.75-3.79c.5-1.15,1.2-2.15,2.09-2.98.9-.83,1.94-1.48,3.15-1.94,1.2-.46,2.52-.68,3.95-.68,1.67,0,3.16.29,4.48.86,1.32.58,2.41,1.42,3.29,2.54l-3.25,2.94c-.58-.69-1.23-1.21-1.94-1.57-.71-.36-1.48-.54-2.32-.54-.74,0-1.42.12-2.04.36s-1.15.59-1.59,1.05c-.44.46-.78,1-1.03,1.64-.25.64-.38,1.34-.38,2.12s.13,1.48.38,2.12c.25.64.59,1.18,1.03,1.64.44.46.97.8,1.59,1.04.62.24,1.3.36,2.04.36.84,0,1.62-.18,2.32-.54.71-.36,1.35-.89,1.94-1.6l3.25,2.94c-.88,1.12-1.97,1.97-3.29,2.56s-2.81.88-4.48.88Z"/><path class="cls-1" d="m93.77,30.55h-5.11V12.49h5.11v18.07Zm7.3-7.05h-7.69v-4.23h7.69v4.23Zm-.36-11.02h5.11v18.07h-5.11V12.49Z"/></svg>