<?xml version="1.0" encoding="UTF-8"?><svg id="Layer_1" xmlns="http://www.w3.org/2000/svg" viewBox="0 0 497.96 137.47"><defs><style>.cls-1{fill:#231f20;}</style></defs><g><path class="cls-1" d="m45.86,121.11H8.65v14.67H0v-39.97h8.65v14.68h37.22v10.61Z"/><path class="cls-1" d="m0,58.67v-10.61h45.86v10.61H0Zm45.86,20.77v10.68H0v-10.68h45.86Zm-18.81-21.55v22.41h-8.97v-22.41h8.97Z"/><path class="cls-1" d="m37.34,26.63V1.67h8.52v35.51H0V2.52h8.52v24.11h28.82Zm-18.93.79V5.34h8.32v22.08h-8.32Z"/></g><g><path class="cls-1" d="m79.79,44.64c-3.39,0-6.52-.54-9.38-1.62-2.86-1.08-5.36-2.62-7.48-4.6-2.13-1.98-3.78-4.34-4.97-7.08-1.19-2.74-1.78-5.74-1.78-9.01s.59-6.27,1.78-9.01c1.18-2.74,2.84-5.1,4.97-7.08,2.12-1.98,4.62-3.52,7.48-4.6,2.86-1.08,5.99-1.62,9.38-1.62,3.96,0,7.51.69,10.64,2.05,3.13,1.37,5.73,3.38,7.82,6.04l-7.73,6.99c-1.39-1.63-2.92-2.88-4.6-3.74-1.68-.86-3.52-1.29-5.52-1.29-1.76,0-3.37.29-4.84.86-1.47.57-2.73,1.4-3.77,2.48-1.04,1.08-1.86,2.38-2.45,3.89-.59,1.51-.89,3.19-.89,5.03s.3,3.52.89,5.03c.59,1.51,1.41,2.81,2.45,3.89,1.04,1.08,2.3,1.91,3.77,2.48,1.47.57,3.09.86,4.84.86,2,0,3.84-.43,5.52-1.29,1.67-.86,3.21-2.12,4.6-3.8l7.73,6.99c-2.08,2.66-4.69,4.68-7.82,6.07-3.13,1.39-6.67,2.08-10.64,2.08Z"/><path class="cls-1" d="m124.36,44.64c-3.39,0-6.55-.55-9.47-1.66-2.92-1.1-5.45-2.67-7.57-4.69-2.13-2.02-3.79-4.39-5-7.11-1.21-2.72-1.81-5.69-1.81-8.92s.6-6.13,1.81-8.83c1.21-2.7,2.87-5.06,5-7.08,2.12-2.02,4.64-3.59,7.54-4.69,2.9-1.1,6.07-1.66,9.5-1.66s6.6.55,9.5,1.66c2.9,1.1,5.42,2.66,7.54,4.66,2.12,2,3.79,4.35,5,7.05,1.21,2.7,1.81,5.66,1.81,8.89s-.59,6.27-1.78,8.98c-1.19,2.72-2.85,5.08-5,7.08-2.15,2-4.67,3.56-7.57,4.66-2.9,1.1-6.07,1.66-9.5,1.66Zm0-10.06c1.63,0,3.16-.29,4.57-.86,1.41-.57,2.64-1.4,3.68-2.48,1.04-1.08,1.86-2.37,2.45-3.86.59-1.49.89-3.18.89-5.06s-.3-3.57-.89-5.06c-.59-1.49-1.41-2.78-2.45-3.86-1.04-1.08-2.27-1.91-3.68-2.48-1.41-.57-2.93-.86-4.57-.86s-3.16.29-4.57.86c-1.41.57-2.65,1.4-3.71,2.48-1.06,1.08-1.88,2.37-2.45,3.86-.57,1.49-.86,3.18-.86,5.06s.29,3.57.86,5.06c.57,1.49,1.39,2.78,2.45,3.86,1.06,1.08,2.3,1.91,3.71,2.48,1.41.57,2.93.86,4.57.86Z"/><path class="cls-1" d="m154.65,43.78V.86h10l17.72,29.19h-5.27L194.45.86h10l.06,42.92h-11.16l-.12-25.94h1.9l-12.94,21.71h-5.4l-13.31-21.71h2.33v25.94h-11.16Z"/><path class="cls-1" d="m213.15,43.78V.86h19.56c3.92,0,7.32.63,10.18,1.9,2.86,1.27,5.06,3.1,6.59,5.49,1.53,2.39,2.3,5.2,2.3,8.43s-.77,6.14-2.3,8.49c-1.53,2.35-3.73,4.17-6.59,5.46-2.86,1.29-6.25,1.93-10.18,1.93h-12.88l5.46-5.33v16.56h-12.14Zm12.14-15.15l-5.46-5.7h12.14c2.53,0,4.44-.54,5.7-1.62,1.27-1.08,1.9-2.63,1.9-4.63s-.63-3.44-1.9-4.57c-1.27-1.12-3.17-1.69-5.7-1.69h-12.14l5.46-5.58v23.79Z"/><path class="cls-1" d="m250.37,43.78L269.32.86h11.96l19.01,42.92h-12.63l-14.84-36.97h4.78l-14.84,36.97h-12.39Zm10.36-8.4l3.13-8.89h20.97l3.13,8.89h-27.23Z"/><path class="cls-1" d="m318.8,44.64c-3.56,0-6.96-.44-10.21-1.32s-5.88-1.99-7.88-3.34l3.99-9.01c1.92,1.23,4.14,2.24,6.65,3.04,2.51.8,5.02,1.2,7.51,1.2,1.72,0,3.08-.14,4.08-.43,1-.29,1.74-.69,2.21-1.23.47-.53.71-1.17.71-1.9,0-.94-.45-1.69-1.35-2.24-.9-.55-2.08-1.02-3.53-1.41-1.45-.39-3.03-.76-4.72-1.1-1.7-.35-3.42-.81-5.18-1.38-1.76-.57-3.35-1.33-4.78-2.27-1.43-.94-2.59-2.17-3.46-3.68-.88-1.51-1.32-3.41-1.32-5.7,0-2.53.69-4.84,2.08-6.93,1.39-2.08,3.5-3.76,6.32-5.03,2.82-1.27,6.34-1.9,10.55-1.9,2.82,0,5.59.32,8.31.95,2.72.63,5.12,1.58,7.2,2.85l-3.68,8.95c-2.04-1.14-4.07-1.98-6.07-2.51-2-.53-3.95-.8-5.83-.8-1.68,0-3.03.18-4.05.55-1.02.37-1.76.84-2.21,1.41-.45.57-.67,1.19-.67,1.84,0,.98.45,1.75,1.35,2.3.9.55,2.06,1,3.5,1.35,1.43.35,3.01.71,4.75,1.07,1.74.37,3.46.83,5.18,1.38s3.3,1.29,4.75,2.21c1.45.92,2.63,2.13,3.53,3.62.9,1.49,1.35,3.36,1.35,5.61,0,2.49-.71,4.79-2.12,6.9-1.41,2.11-3.53,3.79-6.35,5.06s-6.36,1.9-10.61,1.9Z"/><path class="cls-1" d="m358.47,44.64c-3.56,0-6.96-.44-10.21-1.32s-5.88-1.99-7.88-3.34l3.99-9.01c1.92,1.23,4.14,2.24,6.65,3.04,2.51.8,5.02,1.2,7.51,1.2,1.72,0,3.08-.14,4.08-.43,1-.29,1.74-.69,2.21-1.23.47-.53.71-1.17.71-1.9,0-.94-.45-1.69-1.35-2.24-.9-.55-2.08-1.02-3.53-1.41-1.45-.39-3.03-.76-4.72-1.1-1.7-.35-3.42-.81-5.18-1.38-1.76-.57-3.35-1.33-4.78-2.27-1.43-.94-2.59-2.17-3.46-3.68-.88-1.51-1.32-3.41-1.32-5.7,0-2.53.69-4.84,2.08-6.93,1.39-2.08,3.5-3.76,6.32-5.03,2.82-1.27,6.34-1.9,10.55-1.9,2.82,0,5.59.32,8.31.95,2.72.63,5.12,1.58,7.2,2.85l-3.68,8.95c-2.04-1.14-4.07-1.98-6.07-2.51-2-.53-3.95-.8-5.83-.8-1.68,0-3.03.18-4.05.55-1.02.37-1.76.84-2.21,1.41-.45.57-.67,1.19-.67,1.84,0,.98.45,1.75,1.35,2.3.9.55,2.06,1,3.5,1.35,1.43.35,3.01.71,4.75,1.07,1.74.37,3.46.83,5.18,1.38s3.3,1.29,4.75,2.21c1.45.92,2.63,2.13,3.53,3.62.9,1.49,1.35,3.36,1.35,5.61,0,2.49-.71,4.79-2.12,6.9-1.41,2.11-3.53,3.79-6.35,5.06s-6.36,1.9-10.61,1.9Z"/><path class="cls-1" d="m383.12,43.78V.86h12.14v42.92h-12.14Z"/><path class="cls-1" d="m425.49,44.64c-3.39,0-6.55-.55-9.47-1.66-2.92-1.1-5.45-2.67-7.57-4.69-2.13-2.02-3.79-4.39-5-7.11-1.21-2.72-1.81-5.69-1.81-8.92s.6-6.13,1.81-8.83c1.21-2.7,2.87-5.06,5-7.08,2.12-2.02,4.64-3.59,7.54-4.69,2.9-1.1,6.07-1.66,9.5-1.66s6.6.55,9.5,1.66c2.9,1.1,5.42,2.66,7.54,4.66,2.12,2,3.79,4.35,5,7.05,1.21,2.7,1.81,5.66,1.81,8.89s-.59,6.27-1.78,8.98c-1.19,2.72-2.85,5.08-5,7.08-2.15,2-4.67,3.56-7.57,4.66-2.9,1.1-6.07,1.66-9.5,1.66Zm0-10.06c1.63,0,3.16-.29,4.57-.86,1.41-.57,2.64-1.4,3.68-2.48,1.04-1.08,1.86-2.37,2.45-3.86.59-1.49.89-3.18.89-5.06s-.3-3.57-.89-5.06c-.59-1.49-1.41-2.78-2.45-3.86-1.04-1.08-2.27-1.91-3.68-2.48-1.41-.57-2.93-.86-4.57-.86s-3.16.29-4.57.86c-1.41.57-2.65,1.4-3.71,2.48-1.06,1.08-1.88,2.37-2.45,3.86-.57,1.49-.86,3.18-.86,5.06s.29,3.57.86,5.06c.57,1.49,1.39,2.78,2.45,3.86,1.06,1.08,2.3,1.91,3.71,2.48,1.41.57,2.93.86,4.57.86Z"/><path class="cls-1" d="m455.78,43.78V.86h10l23.61,28.57h-4.72V.86h11.9v42.92h-10l-23.67-28.57h4.72v28.57h-11.83Z"/></g><path class="cls-1" d="m130.82,99.87c-2.48-3.51-5.94-6.14-10.47-7.99-.49-.19-.97-.39-1.51-.49,3.46-1.75,6.18-4.09,8.18-7.01,2.24-3.31,3.41-7.16,3.41-11.54,0-6.57-2.78-11.93-8.28-16.07-5.55-4.14-13.93-6.23-25.23-6.23h-43.34v85.22h45.78c11.54,0,20.26-2.05,26.25-6.18,5.94-4.14,8.96-9.89,8.96-17.19,0-4.87-1.27-9.06-3.75-12.52Zm-53.47-31.9h16.56c4.04,0,7.06.63,9.11,2,2.05,1.36,3.07,3.41,3.07,6.28,0,2.68-1.02,4.68-3.07,6.09-2.05,1.36-5.06,2.05-9.11,2.05h-16.56v-16.41Zm29.71,48.26c-2.14,1.41-5.31,2.14-9.5,2.14h-20.21v-17.29h20.21c4.19,0,7.35.68,9.5,2.14,2.09,1.41,3.17,3.55,3.17,6.48s-1.07,5.11-3.17,6.53Z"/><path class="cls-1" d="m170.95,117.02h44.56v18.75h-68.3V50.55h66.72v18.75h-42.98v47.72Zm-1.7-33.48h39.57v17.9h-39.57v-17.9Z"/><polygon class="cls-1" points="309.98 50.54 309.98 135.76 290.16 135.76 252.52 90.32 252.52 135.76 229.04 135.76 229.04 50.54 248.86 50.54 286.36 95.92 286.36 50.54 309.98 50.54"/><path class="cls-1" d="m369.51,137.47c-6.73,0-12.94-1.07-18.62-3.22-5.68-2.15-10.63-5.19-14.86-9.13-4.22-3.94-7.5-8.62-9.86-14.06-2.35-5.44-3.53-11.4-3.53-17.9s1.18-12.46,3.53-17.9c2.35-5.44,5.64-10.12,9.86-14.06,4.22-3.94,9.17-6.98,14.86-9.13,5.68-2.15,11.89-3.23,18.62-3.23,7.88,0,14.91,1.36,21.12,4.08,6.21,2.72,11.38,6.71,15.52,11.99l-15.34,13.88c-2.76-3.24-5.8-5.72-9.13-7.43-3.33-1.7-6.98-2.55-10.96-2.55-3.49,0-6.7.57-9.62,1.7-2.92,1.14-5.42,2.78-7.49,4.93-2.07,2.15-3.7,4.73-4.87,7.73-1.18,3-1.77,6.33-1.77,9.98s.59,6.98,1.77,9.98c1.17,3.01,2.8,5.58,4.87,7.73,2.07,2.15,4.57,3.79,7.49,4.93,2.92,1.14,6.13,1.71,9.62,1.71,3.98,0,7.63-.85,10.96-2.56,3.33-1.7,6.37-4.22,9.13-7.55l15.34,13.88c-4.14,5.28-9.31,9.3-15.52,12.06-6.21,2.76-13.25,4.14-21.12,4.14Z"/><path class="cls-1" d="m441.1,135.77h-24.1V50.55h24.1v85.22Zm34.45-33.24h-36.28v-19.96h36.28v19.96Zm-1.7-51.98h24.11v85.22h-24.11V50.55Z"/></svg>