<?xml version="1.0" encoding="UTF-8"?><svg id="Heart" xmlns="http://www.w3.org/2000/svg" viewBox="0 0 18.55 16.25"><defs><style>.cls-1{fill:#df004e;}</style></defs><path id="Heart-2" class="cls-1" d="m13.56,15.59c-.04.13-.18.2-.31.14-3.67-1.59-7.19-3.59-10.18-6.24-1.08-.96-2.14-2.08-2.48-3.48-.3-1.25-.31-2.54.35-3.65C1.56,1.32,2.26.61,4.09.31c.89-.15,2.4.46,3.11,1.02,1.19.92,1.45,2.13,1.98,3.53.02.06.1.04.09-.02-.09-1.05.26-2.14.98-2.9.85-.9,2.2-1.31,3.39-.99,1.15.32,2.06,1.28,2.51,2.39s.47,2.35.26,3.53c-.2,1.18-.62,2.31-1.04,3.43-.66,1.79-1.33,3.58-1.82,5.28Z"/></svg>