<?xml version="1.0" encoding="UTF-8"?><svg id="Compound_Path_Version" xmlns="http://www.w3.org/2000/svg" viewBox="0 0 112.58 47.37"><defs><style>.cls-1{fill:#e22626;}</style></defs><g id="Letter_Outlines"><path id="C" d="m67.19,2.52c-1.86-1.01-3.98-1.82-7.1-2.02-5.5-.34-10.71,1.85-14.16,5.1-4.46,4.21-6.58,9.82-7.12,12.65-.62,3.26-.91,9.96.78,14.31,2.43,6.23,5.66,9.93,10.53,12.1,6.44,2.86,11.69,2.01,17.19-.31,3.88-1.63,5.42-3.3,5.43-5.19s-2.08-3.42-3.91-2.94c-1.9.5-2.62,1.3-4.89,1.89-4.15,1.07-6.86,1.28-10.02-.58-5.81-3.4-7.81-9.14-7.09-15.68.72-6.54,5.9-14.1,12.6-14.3,1.82-.05,4.15.62,7.46,2.27,2.12,1.05,4.18-.51,4.23-2.33.06-2.53-2.85-4.38-3.93-4.97Z"/></g><path id="Heart-2" class="cls-1" d="m78.54,46.71c-.35.1-.7-.12-.75-.48-1.67-10.32-2.24-20.88-.63-31.21.58-3.74,1.55-7.63,4.17-10.36,2.33-2.43,5.16-4.26,8.53-4.38,3.13-.11,5.7.45,8.94,4.04,1.57,1.74,2.37,5.95,2.15,8.28-.36,3.91-2.64,6.2-4.98,9.35-.09.13.05.27.17.18,2.19-1.67,5.06-2.45,7.77-1.95,3.18.59,5.99,2.98,6.95,6.06.93,2.99.1,6.34-1.71,8.89-1.81,2.55-4.52,4.35-7.4,5.56s-5.95,1.89-9.01,2.56c-4.88,1.07-9.75,2.14-14.2,3.45Z"/><g id="D"><path d="m1.08,46.04c0,.27.19.56.45.54,1.57-.11,3.03-.2,4.53-.44,7.66-1.26,14.72-4.17,20.31-8.85,5.59-4.7,9.43-11.76,8.9-18.49-.5-6.33-4.79-12.34-11.01-15.79C18.12-.35,7.55-.05,1.54.81c-.24.03-.4.28-.4.52l-.06,44.71Zm25.68-20.81c-1.38,3.12-4.27,6.3-8.56,8.89-2.35,1.42-5.89,2.79-8.8,3.18-.36.05-.7-.16-.7-.53,0-9.15-.13-19.28-.09-28.42,0-.3.23-.56.52-.59,3.05-.29,4.1-.5,7.33.3,2.62.65,4.6,1.68,6.64,3.51s2.84,3.14,3.74,4.94c1.41,2.82.9,6.5-.08,8.72Z"/></g></svg>