<?xml version="1.0" encoding="UTF-8"?><svg id="Layer_1" xmlns="http://www.w3.org/2000/svg" viewBox="0 0 1200 300"><defs><style>.cls-1{fill:none;stroke:#231f20;stroke-miterlimit:10;}</style></defs><line class="cls-1" x1="5" x2="5" y2="300"/><line class="cls-1" x1="10" x2="10" y2="300"/><line class="cls-1" x1="15" x2="15" y2="300"/><line class="cls-1" x1="20" y1="0" x2="20" y2="300"/><line class="cls-1" x1="25" y1="0" x2="25" y2="300"/><line class="cls-1" x1="30" y1="0" x2="30" y2="300"/><line class="cls-1" x1="35" y1="0" x2="35" y2="300"/><line class="cls-1" x1="40" x2="40" y2="300"/><line class="cls-1" x1="45" x2="45" y2="300"/><line class="cls-1" x1="50" x2="50" y2="300"/><line class="cls-1" x1="55" x2="55" y2="300"/><line class="cls-1" x1="60" y1="0" x2="60" y2="300"/><line class="cls-1" x1="65" y1="0" x2="65" y2="300"/><line class="cls-1" x1="70" y1="0" x2="70" y2="300"/><line class="cls-1" x1="75" y1="0" x2="75" y2="300"/><line class="cls-1" x1="80" y1=".08" x2="80" y2="300.08"/><line class="cls-1" x1="85" y1=".08" x2="85" y2="300.08"/><line class="cls-1" x1="90" y1=".08" x2="90" y2="300.08"/><line class="cls-1" x1="95" y1=".08" x2="95" y2="300.08"/><line class="cls-1" x1="100" y1=".08" x2="100" y2="300.08"/><line class="cls-1" x1="105" y1=".08" x2="105" y2="300.08"/><line class="cls-1" x1="110" y1=".08" x2="110" y2="300.08"/><line class="cls-1" x1="115" y1=".08" x2="115" y2="300.08"/><line class="cls-1" x1="120" y1=".08" x2="120" y2="300.08"/><line class="cls-1" x1="125" y1=".08" x2="125" y2="300.08"/><line class="cls-1" x1="130" y1=".08" x2="130" y2="300.08"/><line class="cls-1" x1="135" y1=".08" x2="135" y2="300.08"/><line class="cls-1" x1="140" y1=".08" x2="140" y2="300.08"/><line class="cls-1" x1="145" y1=".08" x2="145" y2="300.08"/><line class="cls-1" x1="150" y1=".08" x2="150" y2="300.08"/><line class="cls-1" x1="155" y1=".08" x2="155" y2="300.08"/><line class="cls-1" x1="160.25" y1=".04" x2="160.25" y2="300.04"/><line class="cls-1" x1="165.25" y1=".04" x2="165.25" y2="300.04"/><line class="cls-1" x1="170.25" y1=".04" x2="170.25" y2="300.04"/><line class="cls-1" x1="175.25" y1=".04" x2="175.25" y2="300.04"/><line class="cls-1" x1="180.25" y1=".04" x2="180.25" y2="300.04"/><line class="cls-1" x1="185.25" y1=".04" x2="185.25" y2="300.04"/><line class="cls-1" x1="190.25" y1=".04" x2="190.25" y2="300.04"/><line class="cls-1" x1="195.25" y1=".04" x2="195.25" y2="300.04"/><line class="cls-1" x1="200.25" y1=".04" x2="200.25" y2="300.04"/><line class="cls-1" x1="205.25" y1=".04" x2="205.25" y2="300.04"/><line class="cls-1" x1="210.25" y1=".04" x2="210.25" y2="300.04"/><line class="cls-1" x1="215.25" y1=".04" x2="215.25" y2="300.04"/><line class="cls-1" x1="220.25" y1=".04" x2="220.25" y2="300.04"/><line class="cls-1" x1="225.25" y1=".04" x2="225.25" y2="300.04"/><line class="cls-1" x1="230.25" y1=".04" x2="230.25" y2="300.04"/><line class="cls-1" x1="235.25" y1=".04" x2="235.25" y2="300.04"/><line class="cls-1" x1="240.25" y1=".12" x2="240.25" y2="300.12"/><line class="cls-1" x1="245.25" y1=".12" x2="245.25" y2="300.12"/><line class="cls-1" x1="250.25" y1=".12" x2="250.25" y2="300.12"/><line class="cls-1" x1="255.25" y1=".12" x2="255.25" y2="300.12"/><line class="cls-1" x1="260.25" y1=".12" x2="260.25" y2="300.12"/><line class="cls-1" x1="265.25" y1=".12" x2="265.25" y2="300.12"/><line class="cls-1" x1="270.25" y1=".12" x2="270.25" y2="300.12"/><line class="cls-1" x1="275.25" y1=".12" x2="275.25" y2="300.12"/><line class="cls-1" x1="280.25" y1=".12" x2="280.25" y2="300.12"/><line class="cls-1" x1="285.25" y1=".12" x2="285.25" y2="300.12"/><line class="cls-1" x1="290.25" y1=".12" x2="290.25" y2="300.12"/><line class="cls-1" x1="295.25" y1=".12" x2="295.25" y2="300.12"/><line class="cls-1" x1="300.25" y1=".12" x2="300.25" y2="300.12"/><line class="cls-1" x1="305.25" y1=".12" x2="305.25" y2="300.12"/><line class="cls-1" x1="310.25" y1=".12" x2="310.25" y2="300.12"/><line class="cls-1" x1="315.25" y1=".12" x2="315.25" y2="300.12"/><g><line class="cls-1" x1="320.25" y1="-.25" x2="320.25" y2="299.75"/><line class="cls-1" x1="325.25" y1="-.25" x2="325.25" y2="299.75"/><line class="cls-1" x1="330.25" y1="-.25" x2="330.25" y2="299.75"/><line class="cls-1" x1="335.25" y1="-.25" x2="335.25" y2="299.75"/><line class="cls-1" x1="340.25" y1="-.25" x2="340.25" y2="299.75"/><line class="cls-1" x1="345.25" y1="-.25" x2="345.25" y2="299.75"/><line class="cls-1" x1="350.25" y1="-.25" x2="350.25" y2="299.75"/><line class="cls-1" x1="355.25" y1="-.25" x2="355.25" y2="299.75"/><line class="cls-1" x1="360.25" y1="-.25" x2="360.25" y2="299.75"/><line class="cls-1" x1="365.25" y1="-.25" x2="365.25" y2="299.75"/><line class="cls-1" x1="370.25" y1="-.25" x2="370.25" y2="299.75"/><line class="cls-1" x1="375.25" y1="-.25" x2="375.25" y2="299.75"/><line class="cls-1" x1="380.25" y1="-.25" x2="380.25" y2="299.75"/><line class="cls-1" x1="385.25" y1="-.25" x2="385.25" y2="299.75"/><line class="cls-1" x1="390.25" y1="-.25" x2="390.25" y2="299.75"/><line class="cls-1" x1="395.25" y1="-.25" x2="395.25" y2="299.75"/><line class="cls-1" x1="400.25" y1="-.17" x2="400.25" y2="299.83"/><line class="cls-1" x1="405.25" y1="-.17" x2="405.25" y2="299.83"/><line class="cls-1" x1="410.25" y1="-.17" x2="410.25" y2="299.83"/><line class="cls-1" x1="415.25" y1="-.17" x2="415.25" y2="299.83"/><line class="cls-1" x1="420.25" y1="-.17" x2="420.25" y2="299.83"/><line class="cls-1" x1="425.25" y1="-.17" x2="425.25" y2="299.83"/><line class="cls-1" x1="430.25" y1="-.17" x2="430.25" y2="299.83"/><line class="cls-1" x1="435.25" y1="-.17" x2="435.25" y2="299.83"/><line class="cls-1" x1="440.25" y1="-.17" x2="440.25" y2="299.83"/><line class="cls-1" x1="445.25" y1="-.17" x2="445.25" y2="299.83"/><line class="cls-1" x1="450.25" y1="-.17" x2="450.25" y2="299.83"/><line class="cls-1" x1="455.25" y1="-.17" x2="455.25" y2="299.83"/><line class="cls-1" x1="460.25" y1="-.17" x2="460.25" y2="299.83"/><line class="cls-1" x1="465.25" y1="-.17" x2="465.25" y2="299.83"/><line class="cls-1" x1="470.25" y1="-.17" x2="470.25" y2="299.83"/><line class="cls-1" x1="475.25" y1="-.17" x2="475.25" y2="299.83"/><line class="cls-1" x1="480.51" y1="-.21" x2="480.51" y2="299.79"/><line class="cls-1" x1="485.51" y1="-.21" x2="485.51" y2="299.79"/><line class="cls-1" x1="490.51" y1="-.21" x2="490.51" y2="299.79"/><line class="cls-1" x1="495.51" y1="-.21" x2="495.51" y2="299.79"/><line class="cls-1" x1="500.51" y1="-.21" x2="500.51" y2="299.79"/><line class="cls-1" x1="505.51" y1="-.21" x2="505.51" y2="299.79"/><line class="cls-1" x1="510.51" y1="-.21" x2="510.51" y2="299.79"/><line class="cls-1" x1="515.51" y1="-.21" x2="515.51" y2="299.79"/><line class="cls-1" x1="520.51" y1="-.21" x2="520.51" y2="299.79"/><line class="cls-1" x1="525.51" y1="-.21" x2="525.51" y2="299.79"/><line class="cls-1" x1="530.51" y1="-.21" x2="530.51" y2="299.79"/><line class="cls-1" x1="535.51" y1="-.21" x2="535.51" y2="299.79"/><line class="cls-1" x1="540.51" y1="-.21" x2="540.51" y2="299.79"/><line class="cls-1" x1="545.51" y1="-.21" x2="545.51" y2="299.79"/><line class="cls-1" x1="550.51" y1="-.21" x2="550.51" y2="299.79"/><line class="cls-1" x1="555.51" y1="-.21" x2="555.51" y2="299.79"/><line class="cls-1" x1="560.51" y1="-.12" x2="560.51" y2="299.88"/><line class="cls-1" x1="565.51" y1="-.12" x2="565.51" y2="299.88"/><line class="cls-1" x1="570.51" y1="-.12" x2="570.51" y2="299.88"/><line class="cls-1" x1="575.51" y1="-.12" x2="575.51" y2="299.88"/><line class="cls-1" x1="580.51" y1="-.12" x2="580.51" y2="299.88"/><line class="cls-1" x1="585.51" y1="-.12" x2="585.51" y2="299.88"/><line class="cls-1" x1="590.51" y1="-.12" x2="590.51" y2="299.88"/><line class="cls-1" x1="595.51" y1="-.12" x2="595.51" y2="299.88"/><line class="cls-1" x1="600.51" y1="-.12" x2="600.51" y2="299.88"/><line class="cls-1" x1="605.51" y1="-.12" x2="605.51" y2="299.88"/><line class="cls-1" x1="610.51" y1="-.12" x2="610.51" y2="299.88"/><line class="cls-1" x1="615.51" y1="-.12" x2="615.51" y2="299.88"/><line class="cls-1" x1="620.51" y1="-.12" x2="620.51" y2="299.88"/><line class="cls-1" x1="625.51" y1="-.12" x2="625.51" y2="299.88"/><line class="cls-1" x1="630.51" y1="-.12" x2="630.51" y2="299.88"/><line class="cls-1" x1="635.51" y1="-.12" x2="635.51" y2="299.88"/></g><line class="cls-1" x1="640.51" y1=".06" x2="640.51" y2="300.06"/><line class="cls-1" x1="645.51" y1=".06" x2="645.51" y2="300.06"/><line class="cls-1" x1="650.51" y1=".06" x2="650.51" y2="300.06"/><line class="cls-1" x1="655.51" y1=".06" x2="655.51" y2="300.06"/><line class="cls-1" x1="660.51" y1=".06" x2="660.51" y2="300.06"/><line class="cls-1" x1="665.51" y1=".06" x2="665.51" y2="300.06"/><line class="cls-1" x1="670.51" y1=".06" x2="670.51" y2="300.06"/><line class="cls-1" x1="675.51" y1=".06" x2="675.51" y2="300.06"/><line class="cls-1" x1="680.51" y1=".06" x2="680.51" y2="300.06"/><line class="cls-1" x1="685.51" y1=".06" x2="685.51" y2="300.06"/><line class="cls-1" x1="690.51" y1=".06" x2="690.51" y2="300.06"/><line class="cls-1" x1="695.51" y1=".06" x2="695.51" y2="300.06"/><line class="cls-1" x1="700.51" y1=".06" x2="700.51" y2="300.06"/><line class="cls-1" x1="705.51" y1=".06" x2="705.51" y2="300.06"/><line class="cls-1" x1="710.51" y1=".06" x2="710.51" y2="300.06"/><line class="cls-1" x1="715.51" y1=".06" x2="715.51" y2="300.06"/><line class="cls-1" x1="720.51" y1=".15" x2="720.51" y2="300.15"/><line class="cls-1" x1="725.51" y1=".15" x2="725.51" y2="300.15"/><line class="cls-1" x1="730.51" y1=".15" x2="730.51" y2="300.15"/><line class="cls-1" x1="735.51" y1=".15" x2="735.51" y2="300.15"/><line class="cls-1" x1="740.51" y1=".15" x2="740.51" y2="300.15"/><line class="cls-1" x1="745.51" y1=".15" x2="745.51" y2="300.15"/><line class="cls-1" x1="750.51" y1=".15" x2="750.51" y2="300.15"/><line class="cls-1" x1="755.51" y1=".15" x2="755.51" y2="300.15"/><line class="cls-1" x1="760.51" y1=".15" x2="760.51" y2="300.15"/><line class="cls-1" x1="765.51" y1=".15" x2="765.51" y2="300.15"/><line class="cls-1" x1="770.51" y1=".15" x2="770.51" y2="300.15"/><line class="cls-1" x1="775.51" y1=".15" x2="775.51" y2="300.15"/><line class="cls-1" x1="780.51" y1=".15" x2="780.51" y2="300.15"/><line class="cls-1" x1="785.51" y1=".15" x2="785.51" y2="300.15"/><line class="cls-1" x1="790.51" y1=".15" x2="790.51" y2="300.15"/><line class="cls-1" x1="795.51" y1=".15" x2="795.51" y2="300.15"/><line class="cls-1" x1="800.76" y1=".1" x2="800.76" y2="300.1"/><line class="cls-1" x1="805.76" y1=".1" x2="805.76" y2="300.1"/><line class="cls-1" x1="810.76" y1=".1" x2="810.76" y2="300.1"/><line class="cls-1" x1="815.76" y1=".1" x2="815.76" y2="300.1"/><line class="cls-1" x1="820.76" y1=".1" x2="820.76" y2="300.1"/><line class="cls-1" x1="825.76" y1=".1" x2="825.76" y2="300.1"/><line class="cls-1" x1="830.76" y1=".1" x2="830.76" y2="300.1"/><line class="cls-1" x1="835.76" y1=".1" x2="835.76" y2="300.1"/><line class="cls-1" x1="840.76" y1=".1" x2="840.76" y2="300.1"/><line class="cls-1" x1="845.76" y1=".1" x2="845.76" y2="300.1"/><line class="cls-1" x1="850.76" y1=".1" x2="850.76" y2="300.1"/><line class="cls-1" x1="855.76" y1=".1" x2="855.76" y2="300.1"/><line class="cls-1" x1="860.76" y1=".1" x2="860.76" y2="300.1"/><line class="cls-1" x1="865.76" y1=".1" x2="865.76" y2="300.1"/><line class="cls-1" x1="870.76" y1=".1" x2="870.76" y2="300.1"/><line class="cls-1" x1="875.76" y1=".1" x2="875.76" y2="300.1"/><line class="cls-1" x1="880.76" y1=".19" x2="880.76" y2="300.19"/><line class="cls-1" x1="885.76" y1=".19" x2="885.76" y2="300.19"/><line class="cls-1" x1="890.76" y1=".19" x2="890.76" y2="300.19"/><line class="cls-1" x1="895.76" y1=".19" x2="895.76" y2="300.19"/><line class="cls-1" x1="900.76" y1=".19" x2="900.76" y2="300.19"/><line class="cls-1" x1="905.76" y1=".19" x2="905.76" y2="300.19"/><line class="cls-1" x1="910.76" y1=".19" x2="910.76" y2="300.19"/><line class="cls-1" x1="915.76" y1=".19" x2="915.76" y2="300.19"/><line class="cls-1" x1="920.76" y1=".19" x2="920.76" y2="300.19"/><line class="cls-1" x1="925.76" y1=".19" x2="925.76" y2="300.19"/><line class="cls-1" x1="930.76" y1=".19" x2="930.76" y2="300.19"/><line class="cls-1" x1="935.76" y1=".19" x2="935.76" y2="300.19"/><line class="cls-1" x1="940.76" y1=".19" x2="940.76" y2="300.19"/><line class="cls-1" x1="945.76" y1=".19" x2="945.76" y2="300.19"/><line class="cls-1" x1="950.76" y1=".19" x2="950.76" y2="300.19"/><line class="cls-1" x1="955.76" y1=".19" x2="955.76" y2="300.19"/><line class="cls-1" x1="960.76" y1="-.19" x2="960.76" y2="299.81"/><line class="cls-1" x1="965.76" y1="-.19" x2="965.76" y2="299.81"/><line class="cls-1" x1="970.76" y1="-.19" x2="970.76" y2="299.81"/><line class="cls-1" x1="975.76" y1="-.19" x2="975.76" y2="299.81"/><line class="cls-1" x1="980.76" y1="-.19" x2="980.76" y2="299.81"/><line class="cls-1" x1="985.76" y1="-.19" x2="985.76" y2="299.81"/><line class="cls-1" x1="990.76" y1="-.19" x2="990.76" y2="299.81"/><line class="cls-1" x1="995.76" y1="-.19" x2="995.76" y2="299.81"/><line class="cls-1" x1="1000.76" y1="-.19" x2="1000.76" y2="299.81"/><line class="cls-1" x1="1005.76" y1="-.19" x2="1005.76" y2="299.81"/><line class="cls-1" x1="1010.76" y1="-.19" x2="1010.76" y2="299.81"/><line class="cls-1" x1="1015.76" y1="-.19" x2="1015.76" y2="299.81"/><line class="cls-1" x1="1020.76" y1="-.19" x2="1020.76" y2="299.81"/><line class="cls-1" x1="1025.76" y1="-.19" x2="1025.76" y2="299.81"/><line class="cls-1" x1="1030.76" y1="-.19" x2="1030.76" y2="299.81"/><line class="cls-1" x1="1035.76" y1="-.19" x2="1035.76" y2="299.81"/><line class="cls-1" x1="1040.76" y1="-.1" x2="1040.76" y2="299.9"/><line class="cls-1" x1="1045.76" y1="-.1" x2="1045.76" y2="299.9"/><line class="cls-1" x1="1050.76" y1="-.1" x2="1050.76" y2="299.9"/><line class="cls-1" x1="1055.76" y1="-.1" x2="1055.76" y2="299.9"/><line class="cls-1" x1="1060.76" y1="-.1" x2="1060.76" y2="299.9"/><line class="cls-1" x1="1065.76" y1="-.1" x2="1065.76" y2="299.9"/><line class="cls-1" x1="1070.76" y1="-.1" x2="1070.76" y2="299.9"/><line class="cls-1" x1="1075.76" y1="-.1" x2="1075.76" y2="299.9"/><line class="cls-1" x1="1080.76" y1="-.1" x2="1080.76" y2="299.9"/><line class="cls-1" x1="1085.76" y1="-.1" x2="1085.76" y2="299.9"/><line class="cls-1" x1="1090.76" y1="-.1" x2="1090.76" y2="299.9"/><line class="cls-1" x1="1095.76" y1="-.1" x2="1095.76" y2="299.9"/><line class="cls-1" x1="1100.76" y1="-.1" x2="1100.76" y2="299.9"/><line class="cls-1" x1="1105.76" y1="-.1" x2="1105.76" y2="299.9"/><line class="cls-1" x1="1110.76" y1="-.1" x2="1110.76" y2="299.9"/><line class="cls-1" x1="1115.76" y1="-.1" x2="1115.76" y2="299.9"/><line class="cls-1" x1="1121.01" y1="-.15" x2="1121.01" y2="299.85"/><line class="cls-1" x1="1126.01" y1="-.15" x2="1126.01" y2="299.85"/><line class="cls-1" x1="1131.01" y1="-.15" x2="1131.01" y2="299.85"/><line class="cls-1" x1="1136.01" y1="-.15" x2="1136.01" y2="299.85"/><line class="cls-1" x1="1141.01" y1="-.15" x2="1141.01" y2="299.85"/><line class="cls-1" x1="1146.01" y1="-.15" x2="1146.01" y2="299.85"/><line class="cls-1" x1="1151.01" y1="-.15" x2="1151.01" y2="299.85"/><line class="cls-1" x1="1156.01" y1="-.15" x2="1156.01" y2="299.85"/><line class="cls-1" x1="1161.01" y1="-.15" x2="1161.01" y2="299.85"/><line class="cls-1" x1="1166.01" y1="-.15" x2="1166.01" y2="299.85"/><line class="cls-1" x1="1171.01" y1="-.15" x2="1171.01" y2="299.85"/><line class="cls-1" x1="1176.01" y1="-.15" x2="1176.01" y2="299.85"/><line class="cls-1" x1="1181.01" y1="-.15" x2="1181.01" y2="299.85"/><line class="cls-1" x1="1186.01" y1="-.15" x2="1186.01" y2="299.85"/><line class="cls-1" x1="1191.01" y1="-.15" x2="1191.01" y2="299.85"/><line class="cls-1" x1="1196.01" y1="-.15" x2="1196.01" y2="299.85"/><line class="cls-1" x1="1203.23" y1=".42" x2="1.76" y2="-.07"/><line class="cls-1" x1="1203.2" y1="5.42" x2="1.73" y2="4.93"/><line class="cls-1" x1="1203.16" y1="10.42" x2="1.69" y2="9.93"/><line class="cls-1" x1="1203.13" y1="15.42" x2="1.66" y2="14.93"/><line class="cls-1" x1="1203.1" y1="20.42" x2="1.63" y2="19.93"/><line class="cls-1" x1="1203.06" y1="25.42" x2="1.59" y2="24.93"/><line class="cls-1" x1="1203.03" y1="30.42" x2="1.56" y2="29.93"/><line class="cls-1" x1="1203" y1="35.42" x2="1.53" y2="34.93"/><line class="cls-1" x1="1202.97" y1="40.42" x2="1.49" y2="39.93"/><line class="cls-1" x1="1202.93" y1="45.42" x2="1.46" y2="44.93"/><line class="cls-1" x1="1202.9" y1="50.42" x2="1.43" y2="49.93"/><line class="cls-1" x1="1202.87" y1="55.42" x2="1.4" y2="54.93"/><line class="cls-1" x1="1202.83" y1="60.42" x2="1.36" y2="59.93"/><line class="cls-1" x1="1202.47" y1="65.42" x2="1" y2="64.93"/><line class="cls-1" x1="1202.44" y1="70.42" x2=".96" y2="69.93"/><line class="cls-1" x1="1202.4" y1="75.42" x2=".93" y2="74.93"/><line class="cls-1" x1="1202.37" y1="80.42" x2=".9" y2="79.93"/><line class="cls-1" x1="1202.34" y1="85.42" x2=".86" y2="84.93"/><line class="cls-1" x1="1202.3" y1="90.42" x2=".83" y2="89.93"/><line class="cls-1" x1="1202.27" y1="95.42" x2=".8" y2="94.93"/><line class="cls-1" x1="1202.24" y1="100.42" x2=".77" y2="99.93"/><line class="cls-1" x1="1202.2" y1="105.42" x2=".73" y2="104.93"/><line class="cls-1" x1="1202.17" y1="110.42" x2=".7" y2="109.93"/><line class="cls-1" x1="1202.14" y1="115.42" x2=".67" y2="114.93"/><line class="cls-1" x1="1202.11" y1="120.42" x2=".63" y2="119.93"/><line class="cls-1" x1="1202.07" y1="125.42" x2=".6" y2="124.93"/><line class="cls-1" x1="1202.04" y1="130.42" x2=".57" y2="129.93"/><line class="cls-1" x1="1202.01" y1="135.42" x2=".54" y2="134.93"/><line class="cls-1" x1="1201.97" y1="140.42" x2=".5" y2="139.93"/><line class="cls-1" x1="1202.11" y1="145.68" x2=".63" y2="145.18"/><line class="cls-1" x1="1202.07" y1="150.68" x2=".6" y2="150.18"/><line class="cls-1" x1="1202.04" y1="155.68" x2=".57" y2="155.18"/><line class="cls-1" x1="1202.01" y1="160.68" x2=".54" y2="160.18"/><line class="cls-1" x1="1201.97" y1="165.68" x2=".5" y2="165.18"/><line class="cls-1" x1="1201.94" y1="170.68" x2=".47" y2="170.18"/><line class="cls-1" x1="1201.91" y1="175.68" x2=".44" y2="175.18"/><line class="cls-1" x1="1201.87" y1="180.68" x2=".4" y2="180.18"/><line class="cls-1" x1="1201.84" y1="185.68" x2=".37" y2="185.18"/><line class="cls-1" x1="1201.81" y1="190.68" x2=".34" y2="190.18"/><line class="cls-1" x1="1201.78" y1="195.68" x2=".3" y2="195.18"/><line class="cls-1" x1="1201.74" y1="200.68" x2=".27" y2="200.18"/><line class="cls-1" x1="1201.71" y1="205.68" x2=".24" y2="205.18"/><line class="cls-1" x1="1201.68" y1="210.68" x2=".21" y2="210.18"/><line class="cls-1" x1="1201.64" y1="215.68" x2=".17" y2="215.18"/><line class="cls-1" x1="1201.61" y1="220.68" x2=".14" y2="220.18"/><line class="cls-1" x1="1201.25" y1="225.67" x2="-.23" y2="225.18"/><line class="cls-1" x1="1201.21" y1="230.67" x2="-.26" y2="230.18"/><line class="cls-1" x1="1201.18" y1="235.67" x2="-.29" y2="235.18"/><line class="cls-1" x1="1201.15" y1="240.67" x2="-.33" y2="240.18"/><line class="cls-1" x1="1201.11" y1="245.67" x2="-.36" y2="245.18"/><line class="cls-1" x1="1201.08" y1="250.67" x2="-.39" y2="250.18"/><line class="cls-1" x1="1201.05" y1="255.67" x2="-.42" y2="255.18"/><line class="cls-1" x1="1201.01" y1="260.67" x2="-.46" y2="260.18"/><line class="cls-1" x1="1200.98" y1="265.67" x2="-.49" y2="265.18"/><line class="cls-1" x1="1200.95" y1="270.67" x2="-.52" y2="270.18"/><line class="cls-1" x1="1200.92" y1="275.67" x2="-.56" y2="275.18"/><line class="cls-1" x1="1200.88" y1="280.67" x2="-.59" y2="280.18"/><line class="cls-1" x1="1200.85" y1="285.67" x2="-.62" y2="285.18"/><line class="cls-1" x1="1200.82" y1="290.67" x2="-.65" y2="290.18"/><line class="cls-1" x1="1200.78" y1="295.67" x2="-.69" y2="295.18"/></svg>