<?xml version="1.0" encoding="UTF-8"?><svg id="Layer_1" xmlns="http://www.w3.org/2000/svg" viewBox="0 0 1100 250"><defs><style>.cls-1{fill:#fff;stroke:#000;stroke-width:1.13px;}.cls-1,.cls-2,.cls-3,.cls-4,.cls-5,.cls-6,.cls-7,.cls-8,.cls-9,.cls-10,.cls-11,.cls-12,.cls-13,.cls-14,.cls-15,.cls-16,.cls-17,.cls-18,.cls-19,.cls-20,.cls-21,.cls-22,.cls-23,.cls-24,.cls-25,.cls-26,.cls-27,.cls-28,.cls-29,.cls-30,.cls-31,.cls-32,.cls-33,.cls-34,.cls-35,.cls-36,.cls-37,.cls-38,.cls-39,.cls-40,.cls-41,.cls-42,.cls-43,.cls-44,.cls-45,.cls-46,.cls-47,.cls-48,.cls-49,.cls-50,.cls-51,.cls-52,.cls-53,.cls-54,.cls-55,.cls-56,.cls-57,.cls-58,.cls-59,.cls-60,.cls-61,.cls-62,.cls-63,.cls-64,.cls-65,.cls-66,.cls-67,.cls-68,.cls-69,.cls-70,.cls-71,.cls-72,.cls-73,.cls-74,.cls-75,.cls-76,.cls-77,.cls-78,.cls-79,.cls-80,.cls-81,.cls-82,.cls-83,.cls-84,.cls-85,.cls-86,.cls-87,.cls-88,.cls-89,.cls-90,.cls-91,.cls-92,.cls-93,.cls-94,.cls-95,.cls-96,.cls-97,.cls-98,.cls-99,.cls-100,.cls-101,.cls-102,.cls-103,.cls-104,.cls-105,.cls-106,.cls-107,.cls-108,.cls-109,.cls-110,.cls-111,.cls-112,.cls-113,.cls-114,.cls-115,.cls-116,.cls-117,.cls-118,.cls-119,.cls-120,.cls-121,.cls-122,.cls-123,.cls-124,.cls-125,.cls-126,.cls-127,.cls-128,.cls-129,.cls-130,.cls-131,.cls-132,.cls-133,.cls-134,.cls-135{stroke-miterlimit:10;}.cls-136{stroke:#f6a43c;}.cls-136,.cls-137{stroke-miterlimit:10;}.cls-136,.cls-137,.cls-2,.cls-3,.cls-4,.cls-5,.cls-6,.cls-7,.cls-8,.cls-9,.cls-10,.cls-138,.cls-11,.cls-12,.cls-13,.cls-14,.cls-15,.cls-16,.cls-17,.cls-18,.cls-19,.cls-20,.cls-21,.cls-22,.cls-23,.cls-24,.cls-25,.cls-26,.cls-27,.cls-28,.cls-29,.cls-30,.cls-31,.cls-32,.cls-33,.cls-34,.cls-35,.cls-36,.cls-37,.cls-38,.cls-39,.cls-40,.cls-41,.cls-42,.cls-43,.cls-44,.cls-45,.cls-46,.cls-47,.cls-48,.cls-49,.cls-50,.cls-51,.cls-52,.cls-53,.cls-54,.cls-55,.cls-56,.cls-57,.cls-58,.cls-59,.cls-60,.cls-61,.cls-62,.cls-63,.cls-64,.cls-65,.cls-66,.cls-67,.cls-68,.cls-69,.cls-70,.cls-71,.cls-72,.cls-73,.cls-74,.cls-75,.cls-76,.cls-77,.cls-78,.cls-79,.cls-80,.cls-81,.cls-82,.cls-83,.cls-84,.cls-85,.cls-86,.cls-87,.cls-88,.cls-89,.cls-90,.cls-91,.cls-92,.cls-93,.cls-94,.cls-95,.cls-96,.cls-97,.cls-98,.cls-99,.cls-100,.cls-101,.cls-102,.cls-103,.cls-104,.cls-105,.cls-106,.cls-139,.cls-107,.cls-108,.cls-109,.cls-110,.cls-111,.cls-112,.cls-113,.cls-114,.cls-115,.cls-116,.cls-117,.cls-118,.cls-119,.cls-120,.cls-121,.cls-122,.cls-123,.cls-124,.cls-125,.cls-126,.cls-127,.cls-128,.cls-129,.cls-130,.cls-131,.cls-132,.cls-133,.cls-134,.cls-135{fill:none;}.cls-136,.cls-137,.cls-3,.cls-4,.cls-5,.cls-6,.cls-7,.cls-8,.cls-9,.cls-10,.cls-138,.cls-11,.cls-12,.cls-13,.cls-14,.cls-15,.cls-16,.cls-17,.cls-18,.cls-19,.cls-20,.cls-21,.cls-22,.cls-23,.cls-24,.cls-25,.cls-26,.cls-27,.cls-28,.cls-29,.cls-30,.cls-31,.cls-32,.cls-33,.cls-34,.cls-35,.cls-36,.cls-37,.cls-38,.cls-39,.cls-40,.cls-41,.cls-42,.cls-43,.cls-44,.cls-45,.cls-46,.cls-47,.cls-48,.cls-49,.cls-50,.cls-51,.cls-52,.cls-53,.cls-54,.cls-55,.cls-56,.cls-57,.cls-58,.cls-59,.cls-60,.cls-61,.cls-62,.cls-63,.cls-64,.cls-65,.cls-66,.cls-67,.cls-68,.cls-69,.cls-70,.cls-71,.cls-72,.cls-73,.cls-74,.cls-75,.cls-76,.cls-77,.cls-78,.cls-79,.cls-80,.cls-81,.cls-82,.cls-83,.cls-84,.cls-85,.cls-86,.cls-87,.cls-88,.cls-89,.cls-90,.cls-91,.cls-92,.cls-93,.cls-94,.cls-95,.cls-96,.cls-97,.cls-98,.cls-99,.cls-100,.cls-101,.cls-102,.cls-103,.cls-104,.cls-105,.cls-106,.cls-139,.cls-107,.cls-108,.cls-109,.cls-110,.cls-111,.cls-112,.cls-113,.cls-114,.cls-115,.cls-116,.cls-117,.cls-118,.cls-119,.cls-120,.cls-121,.cls-122,.cls-123,.cls-124,.cls-125,.cls-126,.cls-127,.cls-128,.cls-129,.cls-130,.cls-131,.cls-132,.cls-133,.cls-134,.cls-135{stroke-width:1.17px;}.cls-137{stroke:#fbaf3b;}.cls-2{stroke:#f7a73c;stroke-width:1.17px;}.cls-3{stroke:#faae3b;}.cls-4{stroke:#faad3b;}.cls-5{stroke:#f9ac3b;}.cls-6{stroke:#f9ab3b;}.cls-7{stroke:#f39c3d;}.cls-8{stroke:#f8a83c;}.cls-9{stroke:#f8a93c;}.cls-10{stroke:#f8aa3b;}.cls-138{stroke:#f7a63c;}.cls-138,.cls-139{stroke-miterlimit:10;}.cls-11{stroke:#f39d3d;}.cls-12{stroke:#f39e3c;}.cls-13{stroke:#f4a03c;}.cls-14{stroke:#f49f3c;}.cls-15{stroke:#c22a46;}.cls-16{stroke:#c22946;}.cls-17{stroke:#c12846;}.cls-18{stroke:#c12746;}.cls-19{stroke:#da6241;}.cls-20{stroke:#cf4843;}.cls-21{stroke:#cf4743;}.cls-22{stroke:#d04b43;}.cls-23{stroke:#d04a43;}.cls-24{stroke:#da6141;}.cls-25{stroke:#d96041;}.cls-26{stroke:#e3783f;}.cls-27{stroke:#e37740;}.cls-28{stroke:#e07140;}.cls-29{stroke:#db6541;}.cls-30{stroke:#e17340;}.cls-31{stroke:#d95f42;}.cls-32{stroke:#db6441;}.cls-33{stroke:#d55642;}.cls-34{stroke:#cf4943;}.cls-35{stroke:#c73445;}.cls-36{stroke:#ce4644;}.cls-37{stroke:#d35243;}.cls-38{stroke:#d35143;}.cls-39{stroke:#cd4344;}.cls-40{stroke:#cd4444;}.cls-41{stroke:#d45342;}.cls-42{stroke:#d45442;}.cls-43{stroke:#d45542;}.cls-44{stroke:#c63245;}.cls-45{stroke:#ce4544;}.cls-46{stroke:#c83745;}.cls-47{stroke:#c83845;}.cls-48{stroke:#c63345;}.cls-49{stroke:#c73545;}.cls-50{stroke:#c73645;}.cls-51{stroke:#d14d43;}.cls-52{stroke:#d14c43;}.cls-53{stroke:#e27440;}.cls-54{stroke:#d25043;}.cls-55{stroke:#d24e43;}.cls-56{stroke:#c53045;}.cls-57{stroke:#dd6a41;}.cls-58{stroke:#dd6941;}.cls-59{stroke:#d75a42;}.cls-60{stroke:#dd6841;}.cls-61{stroke:#d85e42;}.cls-62{stroke:#c93a44;}.cls-63{stroke:#c93945;}.cls-64{stroke:#e17240;}.cls-65{stroke:#cc4044;}.cls-66{stroke:#cc4244;}.cls-67{stroke:#cc4144;}.cls-68{stroke:#c53145;}.cls-69{stroke:#d75b42;}.cls-70{stroke:#d75c42;}.cls-71{stroke:#e07040;}.cls-72{stroke:#c93b44;}.cls-73{stroke:#de6c40;}.cls-74{stroke:#de6b41;}.cls-75{stroke:#e27540;}.cls-76{stroke:#e27640;}.cls-77{stroke:#d85d42;}.cls-78{stroke:#d24f43;}.cls-79{stroke:#cb3e44;}.cls-80{stroke:#cb3f44;}.cls-81{stroke:#da6341;}.cls-82{stroke:#d65942;}.cls-83{stroke:#d65842;}.cls-84{stroke:#d55742;}.cls-85{stroke:#ca3d44;}.cls-86{stroke:#ca3c44;}.cls-87{stroke:#dc6741;}.cls-88{stroke:#dc6641;}.cls-89{stroke:#df6e40;}.cls-90{stroke:#df6f40;}.cls-91{stroke:#df6d40;}.cls-92{stroke:#f5a13c;}.cls-93{stroke:#e57b3f;}.cls-94{stroke:#ea873e;}.cls-95{stroke:#ec8c3e;}.cls-96{stroke:#ec8d3e;}.cls-97{stroke:#ef943d;}.cls-98{stroke:#ea883e;}.cls-99{stroke:#ea893e;}.cls-100{stroke:#ef933d;}.cls-101{stroke:#eb8b3e;}.cls-102{stroke:#eb8a3e;}.cls-103{stroke:#f0953d;}.cls-104{stroke:#e8843f;}.cls-105{stroke:#e8823f;}.cls-106{stroke:#f5a23c;}.cls-139{stroke:#f5a33c;}.cls-107{stroke:#f6a53c;}.cls-108{stroke:#f1983d;}.cls-109{stroke:#fbb03b;}.cls-110{stroke:#e67e3f;}.cls-111{stroke:#e67f3f;}.cls-112{stroke:#f1993d;}.cls-113{stroke:#e8833f;}.cls-114{stroke:#e57c3f;}.cls-115{stroke:#e57d3f;}.cls-116{stroke:#e9863e;}.cls-117{stroke:#e9853e;}.cls-118{stroke:#ee913d;}.cls-119{stroke:#e47a3f;}.cls-120{stroke:#e4793f;}.cls-121{stroke:#e7803f;}.cls-122{stroke:#e7813f;}.cls-123{stroke:#ee923d;}.cls-124{stroke:#ed8e3e;}.cls-125{stroke:#ed903e;}.cls-126{stroke:#ed8f3e;}.cls-127{stroke:#f0963d;}.cls-128{stroke:#f0973d;}.cls-129{stroke:#f29b3d;}.cls-130{stroke:#f29a3d;}.cls-131{stroke:#c32b46;}.cls-132{stroke:#c42e45;}.cls-133{stroke:#c32c46;}.cls-134{stroke:#c42d46;}.cls-135{stroke:#c42f45;}</style></defs><rect class="cls-1" width="1100" height="250"/><g><path class="cls-109" d="m-4.76,201.86C1.35,134.4,59.38,68.37,160.17,66.61c69.32-1.21,87.9,32.66,132.08,70.38,43.42,37.07,170.53,22.71,219.26-3.43,37.3-20.01,1.82-51.14,37.51-76.76,37.37-26.83,79.96-37.51,121.23-30.41,40.55,6.98,78.8,30.43,117.57,49.33,53.79,26.23,94.84,58.43,164.85,57.32,96.43-1.54,114.67-66.35,148.89-133.04"/><path class="cls-137" d="m1101.6,1.55c-21.68,41.14-37.34,81.88-70.06,106.82-19.2,14.52-44.24,23.76-79.77,24.53-64.54,1.23-104.51-25.76-152.64-50.3-3.93-2-7.92-3.99-11.98-5.95-38.76-18.65-77.02-41.9-117.54-48.97-3.65-.64-7.31-1.13-10.97-1.5-26.55-2.62-53.4,1.92-78.83,13.26-10.68,4.76-21.12,10.72-31.18,17.85-35.59,25.29-.55,56.08-37.75,75.89-17.14,9.05-43.85,16.72-73.19,21.33-54.26,8.52-117.44,6.48-145.65-17.16-13.86-11.68-25.22-23-36.43-33-24.47-21.8-48.21-37.37-95.62-36.65-17.26.25-33.26,2.37-47.97,6.04C41.12,91.55.49,145.67-4.76,200.79"/><path class="cls-3" d="m1101.63,3.1c-21.73,40.14-37.72,80.35-70.63,104.96-19.33,14.46-44.57,23.82-80.15,24.71-64.37,1.6-104.34-25.11-152.43-49.32-3.93-1.98-7.92-3.94-11.98-5.87-38.74-18.4-77.03-41.45-117.51-48.61-3.64-.64-7.3-1.15-10.96-1.52-26.5-2.7-53.27,1.67-78.64,12.79-10.66,4.67-21.08,10.52-31.13,17.55-35.49,24.97-.82,55.53-37.99,75.02-17.15,8.99-43.87,16.55-73.15,21.22-54.13,8.6-117.11,6.99-145.27-16.3-13.87-11.47-25.2-22.67-36.42-32.54-24.5-21.52-48.32-36.99-95.59-36.38-17.22.21-33.2,2.25-47.88,5.81C41.24,92.04.67,145.37-4.76,199.72"/><path class="cls-4" d="m1101.66,4.65c-21.78,39.14-38.15,78.76-71.19,103.1-19.5,14.36-44.9,23.84-80.52,24.88-64.19,1.88-104.16-24.46-152.22-48.34-3.93-1.95-7.92-3.88-11.97-5.79-38.73-18.15-77.03-41-117.48-48.24-3.64-.65-7.29-1.17-10.94-1.55-26.45-2.77-53.15,1.42-78.46,12.32-10.64,4.57-21.05,10.31-31.07,17.25-35.45,24.55-1.13,54.92-38.23,74.15-17.18,8.9-43.88,16.38-73.12,21.1-53.99,8.67-116.74,7.47-144.9-15.45-13.87-11.28-25.17-22.34-36.4-32.09-24.54-21.23-48.42-36.61-95.57-36.11-17.19.16-33.15,2.08-47.8,5.59C41.32,92.33.86,145.06-4.76,198.65"/><path class="cls-5" d="m1101.69,6.2c-21.83,38.14-38.59,77.16-71.76,101.23-19.67,14.27-45.23,23.85-80.9,25.05-64.02,2.16-103.99-23.81-152.01-47.35-3.93-1.92-7.91-3.83-11.97-5.71-38.72-17.9-77.03-40.55-117.44-47.88-3.63-.66-7.28-1.18-10.92-1.58-26.4-2.85-53.02,1.17-78.28,11.86-10.62,4.48-21.02,10.11-31.02,16.95-35.37,24.2-1.43,54.31-38.47,73.28-17.21,8.81-43.9,16.21-73.08,20.98-53.86,8.75-116.37,7.94-144.52-14.59-13.86-11.09-25.15-22.01-36.39-31.63-24.58-20.94-48.52-36.22-95.55-35.84-17.16.11-33.1,1.94-47.72,5.36C41.42,92.75,1.04,144.76-4.76,197.59"/><path class="cls-6" d="m1101.72,7.75c-21.88,37.15-39.02,75.57-72.33,99.37-19.83,14.17-45.57,23.87-81.27,25.23-63.84,2.44-103.81-23.16-151.79-46.37-3.93-1.89-7.91-3.77-11.96-5.62-38.71-17.65-77.03-40.1-117.41-47.52-3.63-.66-7.27-1.2-10.91-1.61-26.35-2.92-52.9.91-78.1,11.39-10.59,4.39-20.99,9.9-30.97,16.65-35.29,23.84-1.74,53.7-38.71,72.41-17.24,8.72-43.91,16.04-73.04,20.86-53.73,8.83-116,8.42-144.14-13.73-13.85-10.9-25.13-21.68-36.37-31.17-24.61-20.66-48.62-35.84-95.53-35.58-17.13.07-33.04,1.81-47.64,5.14C41.53,93.18,1.23,144.46-4.76,196.52"/><path class="cls-10" d="m1101.75,9.3c-21.94,36.15-39.46,73.97-72.9,97.51-20,14.08-45.9,23.88-81.65,25.4-63.66,2.71-103.63-22.51-151.58-45.38-3.93-1.87-7.9-3.72-11.95-5.54-38.7-17.4-77.04-39.65-117.38-47.16-3.62-.67-7.26-1.21-10.89-1.63-26.3-3-52.78.66-77.92,10.92-10.57,4.29-20.95,9.7-30.91,16.35-35.21,23.49-2.05,53.09-38.95,71.54-17.26,8.63-43.93,15.87-73,20.74-53.6,8.91-115.62,8.89-143.76-12.87-13.84-10.71-25.1-21.35-36.36-30.72-24.65-20.37-48.73-35.46-95.51-35.31-17.1.02-32.99,1.67-47.56,4.91C41.64,93.6,1.41,144.16-4.76,195.45"/><path class="cls-9" d="m1101.78,10.85c-21.99,35.15-39.89,72.38-73.47,95.64-20.17,13.98-46.23,23.89-82.02,25.58-63.48,2.99-103.46-21.86-151.37-44.4-3.92-1.84-7.9-3.66-11.95-5.46-38.69-17.15-77.04-39.2-117.35-46.8-3.62-.68-7.24-1.23-10.87-1.66-26.24-3.07-52.65.41-77.73,10.45-10.55,4.2-20.92,9.5-30.86,16.05-35.12,23.13-2.35,52.47-39.19,70.67-17.29,8.54-43.94,15.7-72.96,20.62-53.47,8.99-115.25,9.37-143.38-12.01-13.83-10.51-25.06-21.04-36.34-30.26-24.65-20.14-48.83-35.08-95.48-35.04-17.06-.03-32.93,1.53-47.48,4.69C41.75,94.03,1.6,143.85-4.76,194.38"/><path class="cls-8" d="m1101.81,12.4c-22.04,34.15-40.33,70.78-74.03,93.78-20.34,13.89-46.56,23.91-82.4,25.75-63.31,3.26-103.28-21.21-151.16-43.41-3.92-1.81-7.9-3.61-11.94-5.38-38.67-16.9-77.04-38.75-117.32-46.44-3.61-.68-7.23-1.25-10.86-1.69-26.19-3.15-52.53.15-77.55,9.98-10.53,4.11-20.88,9.3-30.81,15.75-35.04,22.78-2.66,51.86-39.43,69.8-17.32,8.45-43.96,15.53-72.93,20.5-53.34,9.07-114.88,9.85-143-11.15-13.82-10.32-25.03-20.71-36.33-29.8-24.68-19.86-48.93-34.69-95.46-34.77-17.03-.08-32.87,1.39-47.39,4.46C41.86,94.45,1.78,143.55-4.76,193.31"/><path class="cls-2" d="m1101.84,13.95c-22.09,33.15-40.77,69.18-74.6,91.92-20.52,13.79-46.89,23.92-82.77,25.93-63.13,3.53-103.11-20.56-150.94-42.43-3.92-1.78-7.89-3.55-11.94-5.3-38.66-16.65-77.04-38.29-117.28-46.08-3.61-.69-7.22-1.26-10.84-1.71-26.14-3.22-52.41-.1-77.37,9.51-10.51,4.01-20.84,9.1-30.75,15.45-34.96,22.42-2.97,51.25-39.67,68.93-17.35,8.36-43.97,15.35-72.89,20.39-53.21,9.15-114.5,10.33-142.62-10.29-13.81-10.13-25.01-20.39-36.31-29.34-24.71-19.58-49.04-34.31-95.44-34.5-17-.12-32.82,1.26-47.31,4.24C41.97,94.88,1.97,143.25-4.76,192.24"/><path class="cls-138" d="m1101.87,15.5c-22.15,32.15-41.22,67.58-75.17,90.05-20.69,13.69-47.22,23.93-83.15,26.1-62.95,3.8-102.93-19.91-150.73-41.45-3.92-1.75-7.89-3.5-11.93-5.22-38.65-16.4-77.05-37.84-117.25-45.71-3.6-.7-7.21-1.28-10.82-1.74-26.09-3.3-52.28-.35-77.19,9.04-10.48,3.92-20.81,8.89-30.7,15.15-34.88,22.06-3.28,50.63-39.91,68.06-17.38,8.27-43.99,15.18-72.85,20.27-53.08,9.23-114.13,10.8-142.24-9.43-13.8-9.94-24.98-20.06-36.3-28.89-24.74-19.3-49.14-33.93-95.42-34.23-16.97-.17-32.76,1.12-47.23,4.02C42.08,95.3,2.15,142.94-4.76,191.18"/><path class="cls-107" d="m1101.9,17.04c-22.2,31.15-41.66,65.98-75.74,88.19-20.86,13.6-47.54,23.94-83.52,26.28-62.77,4.07-102.76-19.26-150.52-40.46-3.92-1.73-7.89-3.44-11.93-5.14-38.64-16.15-77.05-37.39-117.22-45.35-3.6-.7-7.2-1.29-10.81-1.77-26.04-3.37-52.16-.61-77.01,8.57-10.46,3.83-20.77,8.69-30.65,14.85-34.79,21.71-3.59,50.01-40.15,67.19-17.41,8.18-44,15.01-72.81,20.15-52.95,9.31-113.75,11.28-141.86-8.57-13.79-9.74-24.95-19.73-36.28-28.43-24.77-19.02-49.24-33.45-95.39-33.96-16.93-.18-32.7.98-47.15,3.79C42.19,95.73,2.34,142.64-4.76,190.11"/><path class="cls-136" d="m1101.92,18.59c-22.25,30.15-42.11,64.38-76.31,86.33-21.04,13.5-47.87,23.96-83.9,26.45-62.59,4.34-102.58-18.61-150.31-39.48-3.91-1.7-7.88-3.39-11.92-5.06-38.63-15.9-77.05-36.94-117.19-44.99-3.59-.71-7.19-1.31-10.79-1.8-25.99-3.45-52.03-.86-76.82,8.1-10.44,3.73-20.74,8.49-30.59,14.55-34.71,21.35-3.91,49.4-40.39,66.32-17.45,8.09-44.02,14.84-72.78,20.03-52.81,9.39-113.37,11.76-141.48-7.72-13.78-9.55-24.93-19.41-36.26-27.97-24.8-18.74-49.35-33.06-95.37-33.69-16.9-.23-32.65.84-47.07,3.57C42.3,96.15,2.52,142.34-4.76,189.04"/><path class="cls-139" d="m1101.95,20.14c-22.3,29.15-42.56,62.78-76.87,84.46-21.21,13.4-48.2,23.97-84.27,26.63-62.41,4.6-102.4-17.96-150.09-38.49-3.91-1.67-7.88-3.33-11.91-4.98-38.61-15.65-77.05-36.49-117.15-44.63-3.59-.72-7.18-1.33-10.78-1.82-25.93-3.52-51.91-1.11-76.64,7.63-10.42,3.64-20.7,8.29-30.54,14.25-34.62,20.99-4.22,48.78-40.63,65.45-17.48,8-44.03,14.67-72.74,19.91-52.68,9.47-113,12.24-141.1-6.86-13.77-9.36-24.9-19.08-36.25-27.52-24.84-18.47-49.45-32.67-95.35-33.42-16.87-.27-32.59.71-46.99,3.34C42.41,96.58,2.71,142.04-4.76,187.97"/><path class="cls-106" d="m1101.98,21.69c-22.35,28.15-43,61.17-77.44,82.6-21.39,13.31-48.53,23.98-84.65,26.8-62.23,4.87-102.23-17.31-149.88-37.51-3.91-1.64-7.88-3.28-11.91-4.9-38.6-15.4-77.06-36.04-117.12-44.27-3.58-.73-7.17-1.34-10.76-1.85-25.88-3.6-51.79-1.37-76.46,7.16-10.4,3.55-20.67,8.09-30.49,13.96-34.54,20.64-4.53,48.16-40.87,64.58-17.51,7.91-44.05,14.5-72.7,19.79-52.55,9.55-112.62,12.72-140.72-6-13.76-9.16-24.88-18.75-36.23-27.06-24.87-18.19-49.55-32.28-95.33-33.15-16.84-.32-32.53.57-46.9,3.12C42.53,97.01,2.9,141.73-4.76,186.9"/><path class="cls-92" d="m1102.01,23.24c-22.41,27.15-43.45,59.57-78.01,80.74-21.56,13.21-48.86,23.99-85.02,26.97-62.05,5.13-102.05-16.66-149.67-36.53-3.91-1.61-7.87-3.22-11.9-4.82-38.59-15.14-77.06-35.59-117.09-43.91-3.58-.73-7.16-1.36-10.74-1.88-25.83-3.67-51.65-1.57-76.28,6.69-10.37,3.47-20.63,7.88-30.44,13.66-34.45,20.28-4.85,47.54-41.11,63.71-17.54,7.82-44.06,14.33-72.66,19.68-52.42,9.63-112.24,13.2-140.34-5.14-13.74-8.97-24.85-18.42-36.22-26.6-24.9-17.91-49.66-31.89-95.31-32.88-16.81-.36-32.47.43-46.82,2.89C42.64,97.44,3.08,141.43-4.76,185.83"/><path class="cls-13" d="m1102.04,24.79c-22.46,26.16-43.91,57.97-78.58,78.87-21.74,13.11-49.18,23.99-85.4,27.15-61.87,5.39-101.88-16.01-149.46-35.54-3.91-1.59-7.87-3.17-11.9-4.74-38.58-14.89-77.06-35.14-117.06-43.55-3.57-.74-7.15-1.37-10.73-1.9-25.78-3.75-51.52-1.82-76.1,6.22-10.34,3.38-20.59,7.68-30.38,13.36-34.37,19.93-5.17,46.93-41.35,62.84-17.57,7.73-44.08,14.16-72.62,19.56-52.29,9.71-111.85,13.68-139.96-4.28-13.73-8.78-24.82-18.1-36.2-26.14-24.93-17.63-49.76-31.5-95.28-32.61-16.77-.41-32.42.3-46.74,2.67C42.76,97.87,3.27,141.13-4.76,184.76"/><path class="cls-14" d="m1102.07,26.34c-22.51,25.16-44.36,56.36-79.14,77.01-21.92,13.01-49.51,24-85.77,27.32-61.68,5.65-101.66-15.46-149.24-34.56-3.9-1.57-7.86-3.11-11.89-4.66-38.57-14.64-77.06-34.69-117.03-43.18-3.57-.75-7.14-1.39-10.71-1.93-25.73-3.82-51.4-2.07-75.92,5.75-10.32,3.29-20.56,7.48-30.33,13.06-34.28,19.57-5.48,46.31-41.59,61.97-17.61,7.64-44.09,13.99-72.59,19.44-52.16,9.79-111.47,14.16-139.58-3.42-13.72-8.58-24.8-17.77-36.19-25.69-24.96-17.35-49.86-31.11-95.26-32.34-16.74-.45-32.36.16-46.66,2.44C42.87,98.3,3.45,140.83-4.76,183.7"/><path class="cls-12" d="m1102.1,27.89c-22.56,24.16-44.81,54.75-79.71,75.15-22.1,12.91-49.84,24.01-86.15,27.5-61.5,5.91-101.48-14.81-149.03-33.57-3.9-1.54-7.86-3.06-11.89-4.58-38.56-14.39-77.07-34.24-116.99-42.82-3.56-.75-7.13-1.41-10.69-1.96-25.68-3.9-51.27-2.32-75.73,5.28-10.3,3.2-20.52,7.28-30.28,12.76-34.2,19.21-5.8,45.68-41.83,61.1-17.64,7.55-44.11,13.82-72.55,19.32-52.03,9.87-111.09,14.65-139.2-2.56-13.7-8.39-24.77-17.44-36.17-25.23-25-17.07-49.97-30.73-95.24-32.07-16.71-.5-32.3.02-46.58,2.22C42.99,98.73,3.64,140.52-4.76,182.63"/><path class="cls-11" d="m1102.13,29.44c-22.62,23.16-45.27,53.14-80.28,73.28-22.28,12.82-50.16,24.02-86.52,27.67-61.32,6.17-101.31-14.17-148.82-32.59-3.9-1.51-7.86-3.01-11.88-4.49-38.54-14.14-77.07-33.79-116.96-42.46-3.56-.76-7.12-1.42-10.68-1.99-25.62-3.97-51.15-2.57-75.55,4.81-10.28,3.11-20.48,7.08-30.22,12.46-34.11,18.86-6.12,45.06-42.07,60.23-17.68,7.46-44.12,13.64-72.51,19.2-51.9,9.94-110.7,15.13-138.82-1.7-13.69-8.19-24.75-17.11-36.16-24.77-25.03-16.8-50.07-30.34-95.22-31.8-16.68-.54-32.24-.11-46.5,1.99C43.11,99.16,3.82,140.22-4.76,181.56"/><path class="cls-7" d="m1102.16,30.99c-22.67,22.16-45.73,51.53-80.85,71.42-22.46,12.72-50.49,24.02-86.9,27.85-61.14,6.42-101.13-13.52-148.61-31.61-3.9-1.48-7.85-2.95-11.87-4.41-38.53-13.89-77.07-33.34-116.93-42.1-3.55-.77-7.1-1.44-10.66-2.01-25.57-4.05-51.02-2.82-75.37,4.34-10.26,3.01-20.45,6.87-30.17,12.16-34.02,18.5-6.44,44.44-42.31,59.36-17.71,7.36-44.12,13.53-72.47,19.08-51.75,10.13-110.32,15.61-138.44-.84-13.68-8-24.72-16.79-36.14-24.31-25.06-16.52-50.17-29.95-95.19-31.53-16.65-.59-32.18-.25-46.41,1.77C43.23,99.59,4.01,139.92-4.76,180.49"/><path class="cls-129" d="m1102.19,32.54c-22.72,21.16-46.19,49.92-81.42,69.56-22.64,12.62-50.81,24.03-87.27,28.02-60.95,6.67-100.95-12.88-148.39-30.62-3.9-1.46-7.85-2.9-11.87-4.33-38.52-13.64-77.07-32.89-116.9-41.74-3.54-.77-7.09-1.45-10.64-2.04-25.52-4.12-50.9-3.07-75.19,3.87-10.23,2.92-20.41,6.67-30.12,11.86-33.93,18.14-6.76,43.82-42.55,58.49-17.75,7.27-44.14,13.36-72.44,18.96-51.61,10.22-109.93,16.09-138.06.01-13.66-7.81-24.7-16.46-36.13-23.86-25.1-16.24-50.28-29.56-95.17-31.26-16.61-.63-32.12-.38-46.33,1.55C43.35,100.02,4.19,139.62-4.76,179.42"/><path class="cls-130" d="m1102.22,34.09c-22.77,20.16-46.65,48.31-81.98,67.69-22.82,12.52-51.14,24.04-87.65,28.2-60.77,6.93-100.78-12.23-148.18-29.64-3.89-1.43-7.85-2.84-11.86-4.25-38.51-13.39-77.08-32.44-116.87-41.38-3.54-.78-7.08-1.47-10.63-2.07-25.47-4.2-50.78-3.32-75.01,3.4-10.21,2.83-20.37,6.47-30.06,11.56-33.84,17.79-7.08,43.19-42.79,57.62-17.78,7.18-44.15,13.2-72.4,18.85-51.48,10.3-109.54,16.57-137.69.87-13.64-7.61-24.67-16.13-36.11-23.4-25.13-15.96-50.38-29.17-95.15-30.99-16.58-.68-32.06-.52-46.25,1.32C43.47,100.46,4.38,139.31-4.76,178.35"/><path class="cls-112" d="m1102.25,35.64c-22.82,19.16-47.11,46.7-82.55,65.83-23.01,12.42-51.46,24.04-88.02,28.37-60.59,7.18-100.6-11.59-147.97-28.65-3.89-1.4-7.84-2.79-11.86-4.17-38.5-13.14-77.06-32.07-116.83-41.01-3.53-.79-7.07-1.49-10.61-2.1-25.41-4.33-50.65-3.57-74.82,2.93-10.19,2.74-20.34,6.27-30.01,11.26-33.75,17.43-7.4,42.57-43.03,56.75-17.82,7.09-44.17,13.03-72.36,18.73-51.35,10.38-109.15,17.06-137.31,1.73-13.63-7.42-24.65-15.81-36.1-22.94-25.16-15.68-50.49-28.78-95.13-30.72-16.55-.72-32.01-.66-46.17,1.1C43.59,100.89,4.56,139.01-4.76,177.28"/><path class="cls-108" d="m1102.28,37.19c-22.88,18.16-47.57,45.09-83.12,63.97-23.19,12.32-51.79,24.05-88.4,28.55-60.4,7.43-100.42-10.94-147.76-27.67-3.89-1.37-7.84-2.73-11.85-4.09-38.48-12.89-77.06-31.62-116.8-40.65-3.53-.8-7.06-1.51-10.59-2.12-25.36-4.4-50.53-3.82-74.64,2.46-10.17,2.65-20.3,6.06-29.96,10.96-33.67,17.07-7.72,41.94-43.27,55.88-17.85,7-44.18,12.86-72.32,18.61-51.22,10.47-108.76,17.54-136.93,2.59-13.61-7.22-24.62-15.48-36.08-22.49-25.2-15.41-50.59-28.39-95.11-30.45-16.52-.77-31.95-.79-46.09.87C43.71,101.33,4.75,138.71-4.76,176.22"/><path class="cls-128" d="m1102.31,38.74c-22.93,17.16-48.03,43.47-83.69,62.1-23.37,12.21-52.11,24.05-88.77,28.72-60.22,7.68-100.24-10.3-147.54-26.69-3.89-1.35-7.84-2.68-11.84-4.01-38.47-12.64-77.06-31.17-116.77-40.29-3.52-.81-7.05-1.52-10.58-2.15-25.3-4.48-50.4-4.07-74.46,1.99-10.14,2.55-20.26,5.86-29.9,10.66-33.57,16.72-8.05,41.32-43.51,55.01-17.89,6.91-44.2,12.69-72.28,18.49-51.08,10.55-108.37,18.02-136.55,3.45-13.59-7.03-24.6-15.15-36.07-22.03-25.23-15.13-50.69-28-95.08-30.18-16.48-.81-31.89-.93-46.01.65C43.83,101.76,4.93,138.41-4.76,175.15"/><path class="cls-127" d="m1102.34,40.29c-22.98,16.16-48.5,41.85-84.26,60.24-23.56,12.11-52.44,24.05-89.14,28.9-60.03,7.92-100.07-9.65-147.33-25.7-3.89-1.32-7.83-2.62-11.84-3.93-38.46-12.39-77.07-30.72-116.74-39.93-3.52-.82-7.04-1.54-10.56-2.18-25.25-4.56-50.28-4.32-74.28,1.52-10.12,2.46-20.22,5.66-29.85,10.36-33.48,16.36-8.37,40.69-43.75,54.14-17.93,6.81-44.21,12.52-72.25,18.37-50.95,10.63-107.98,18.51-136.17,4.31-13.57-6.84-24.57-14.82-36.05-21.57-25.27-14.85-50.8-27.61-95.06-29.91-16.45-.86-31.83-1.06-45.92.42C43.96,102.2,5.12,138.1-4.76,174.08"/><path class="cls-103" d="m1102.37,41.84c-23.03,15.16-48.97,40.24-84.82,58.38-23.74,12.01-52.76,24.05-89.52,29.07-59.85,8.17-99.89-9.01-147.12-24.72-3.88-1.29-7.83-2.57-11.83-3.85-38.42-12.22-77.07-30.28-116.7-39.57-3.51-.82-7.03-1.56-10.54-2.2-25.2-4.63-50.16-4.57-74.1,1.05-10.1,2.37-20.18,5.46-29.8,10.06-33.39,16.01-8.7,40.06-43.99,53.27-17.96,6.72-44.22,12.35-72.21,18.25-50.82,10.72-107.58,18.99-135.79,5.17-13.56-6.64-24.55-14.5-36.04-21.11-25.3-14.57-50.9-27.22-95.04-29.64-16.42-.9-31.77-1.2-45.84.2C44.08,102.64,5.3,137.8-4.76,173.01"/><path class="cls-97" d="m1102.4,43.39c-23.09,14.17-49.43,38.62-85.39,56.51-23.93,11.91-53.09,24.06-89.89,29.24-59.66,8.41-99.72-8.36-146.9-23.73-3.88-1.26-7.82-2.52-11.83-3.77-38.41-11.97-77.07-29.83-116.67-39.21-3.51-.83-7.02-1.57-10.53-2.23-25.15-4.71-50.03-4.82-73.91.58-10.08,2.28-20.15,5.25-29.75,9.77-33.3,15.65-9.02,39.43-44.23,52.39-18,6.63-44.24,12.18-72.17,18.14-50.69,10.8-107.19,19.47-135.41,6.03-13.54-6.45-24.52-14.17-36.02-20.66-25.34-14.29-51-26.84-95.02-29.37-16.39-.95-31.71-1.34-45.76-.03C44.2,103.08,5.49,137.5-4.76,171.94"/><path class="cls-100" d="m1102.42,44.94c-23.14,13.17-49.9,37-85.96,54.65-24.12,11.8-53.41,24.06-90.27,29.42-59.48,8.65-99.54-7.72-146.69-22.75-3.88-1.24-7.82-2.47-11.82-3.69-38.4-11.72-77.07-29.38-116.64-38.85-3.5-.84-7.01-1.59-10.51-2.26-25.1-4.79-49.91-5.07-73.73.11-10.06,2.19-20.11,5.05-29.69,9.47-33.21,15.29-9.35,38.8-44.47,51.52-18.04,6.54-44.25,12.02-72.13,18.02-50.56,10.88-106.79,19.96-135.03,6.88-13.52-6.26-24.5-13.84-36.01-20.2-25.37-14.01-51.11-26.45-95-29.1-16.36-.99-31.65-1.47-45.68-.25C44.33,103.52,5.67,137.19-4.76,170.87"/><path class="cls-123" d="m1102.45,46.49c-23.19,12.17-50.37,35.38-86.53,52.79-24.3,11.7-53.73,24.06-90.64,29.59-59.29,8.89-99.36-7.07-146.48-21.76-3.88-1.21-7.81-2.41-11.82-3.61-38.39-11.47-77.07-28.93-116.61-38.48-3.5-.84-7-1.61-10.49-2.29-25.04-4.87-49.79-5.32-73.55-.36-10.03,2.09-20.07,4.85-29.64,9.17-33.11,14.94-9.68,38.17-44.71,50.65-18.08,6.44-44.27,11.85-72.09,17.9-50.42,10.97-106.39,20.44-134.65,7.74-13.49-6.06-24.47-13.51-35.99-19.74-25.41-13.73-51.21-26.06-94.97-28.84-16.32-1.04-31.59-1.61-45.6-.48C44.45,103.96,5.86,136.89-4.76,169.81"/><path class="cls-118" d="m1102.48,48.03c-23.24,11.17-50.84,33.76-87.1,50.92-24.49,11.6-54.06,24.06-91.02,29.77-59.11,9.13-99.19-6.43-146.27-20.78-3.88-1.18-7.81-2.36-11.81-3.53-38.38-11.23-77.07-28.48-116.58-38.12-3.49-.85-6.98-1.62-10.48-2.31-24.99-4.94-49.66-5.57-73.37-.83-10.01,2-20.03,4.65-29.59,8.87-33.02,14.58-10.01,37.54-44.95,49.78-18.12,6.35-44.28,11.68-72.06,17.78-50.29,11.05-105.99,20.92-134.27,8.6-13.47-5.87-24.45-13.19-35.98-19.29-25.44-13.46-51.32-25.67-94.95-28.57-16.29-1.08-31.53-1.74-45.52-.7C44.58,104.4,6.04,136.59-4.76,168.74"/><path class="cls-125" d="m1102.51,49.58c-23.29,10.17-51.31,32.13-87.66,49.06-24.68,11.49-54.38,24.06-91.39,29.94-58.92,9.37-99.01-5.78-146.05-19.8-3.88-1.15-7.81-2.3-11.8-3.45-38.36-10.98-77.08-28.04-116.54-37.76-3.48-.86-6.97-1.64-10.46-2.34-24.94-5.02-49.54-5.82-73.19-1.3-9.99,1.91-19.99,4.45-29.53,8.57-32.92,14.23-10.34,36.91-45.19,48.91-18.16,6.25-44.3,11.51-72.02,17.66-50.16,11.13-105.59,21.41-133.89,9.46-13.45-5.68-24.42-12.86-35.96-18.83-25.48-13.18-51.42-25.28-94.93-28.3-16.26-1.13-31.47-1.88-45.43-.92C44.71,104.84,6.23,136.29-4.76,167.67"/><path class="cls-126" d="m1102.54,51.13c-23.35,9.17-51.78,30.51-88.23,47.2-24.87,11.39-54.7,24.06-91.77,30.12-58.74,9.61-98.83-5.13-145.84-18.81-3.87-1.13-7.8-2.25-11.8-3.36-38.35-10.73-77.08-27.59-116.51-37.4-3.48-.87-6.96-1.65-10.44-2.37-24.89-5.1-49.42-6.07-73-1.77-9.97,1.82-19.95,4.24-29.48,8.27-32.83,13.87-10.67,36.27-45.43,48.04-18.2,6.16-44.31,11.34-71.98,17.54-50.03,11.22-105.18,21.89-133.51,10.32-13.43-5.48-24.4-12.53-35.95-18.37-25.51-12.9-51.52-24.9-94.91-28.03-16.23-1.17-31.41-2.01-45.35-1.15-63.5,3.92-101.93,34.62-113.1,65.23"/><path class="cls-124" d="m1102.57,52.68c-23.4,8.17-52.26,28.88-88.8,45.33-25.06,11.28-55.03,24.05-92.14,30.29-58.55,9.84-98.66-4.49-145.63-17.83-3.87-1.1-7.8-2.19-11.79-3.28-38.34-10.48-77.08-27.14-116.48-37.04-3.47-.87-6.95-1.67-10.43-2.39-24.83-5.17-49.29-6.32-72.82-2.24-9.95,1.73-19.91,4.04-29.43,7.97-32.73,13.52-11,35.64-45.66,47.17-18.24,6.07-44.32,11.17-71.94,17.42-49.9,11.3-104.78,22.37-133.13,11.18-13.4-5.29-24.38-12.21-35.93-17.91-25.55-12.62-51.63-24.51-94.88-27.76-16.2-1.22-31.34-2.14-45.27-1.37-63.26,3.5-101.63,33.45-112.99,63.3"/><path class="cls-96" d="m1102.6,54.23c-23.45,7.17-52.73,27.26-89.37,43.47-25.25,11.17-55.35,24.05-92.52,30.47-58.37,10.08-98.48-3.84-145.42-16.84-3.87-1.07-7.8-2.14-11.79-3.2-38.33-10.23-77.08-26.69-116.45-36.68-3.47-.88-6.94-1.69-10.41-2.42-24.78-5.25-49.17-6.57-72.64-2.71-9.92,1.63-19.87,3.84-29.37,7.67-32.64,13.16-11.33,35-45.9,46.3-18.28,5.97-44.34,11-71.91,17.31-49.76,11.38-104.37,22.85-132.75,12.04-13.38-5.1-24.35-11.88-35.92-17.46-25.59-12.34-51.73-24.12-94.86-27.49-16.17-1.26-31.28-2.28-45.19-1.6-63.02,3.08-101.33,32.28-112.87,61.37"/><path class="cls-95" d="m1102.63,55.78c-23.5,6.17-53.2,25.63-89.93,41.61-25.44,11.07-55.67,24.05-92.89,30.64-58.18,10.31-98.31-3.2-145.2-15.86-3.87-1.04-7.79-2.08-11.78-3.12-38.32-9.98-77.08-26.24-116.41-36.31-3.46-.89-6.93-1.7-10.39-2.45-24.73-5.32-49.05-6.82-72.46-3.18-9.9,1.54-19.83,3.64-29.32,7.37-32.54,12.81-11.66,34.37-46.14,45.43-18.32,5.88-44.35,10.83-71.87,17.19-49.63,11.46-103.96,23.34-132.37,12.9-13.36-4.91-24.33-11.55-35.9-17-25.62-12.06-51.84-23.73-94.84-27.22-16.13-1.31-31.22-2.41-45.11-1.82-62.77,2.66-101.03,31.12-112.76,59.44"/><path class="cls-101" d="m1102.66,57.33c-23.56,5.17-53.68,24-90.5,39.74-25.63,10.96-55.99,24.04-93.27,30.82-57.99,10.54-98.13-2.55-144.99-14.88-3.87-1.02-7.79-2.03-11.78-3.04-38.3-9.74-77.08-25.79-116.38-35.95-3.46-.89-6.92-1.72-10.38-2.48-24.68-5.4-48.92-7.07-72.28-3.65-9.88,1.45-19.79,3.44-29.27,7.07-32.44,12.46-11.99,33.73-46.38,44.56-18.36,5.78-44.37,10.66-71.83,17.07-49.5,11.55-103.55,23.82-131.99,13.76-13.33-4.72-24.3-11.22-35.89-16.54-25.66-11.78-51.94-23.35-94.82-26.95-16.1-1.35-31.16-2.55-45.03-2.05-62.53,2.25-100.73,29.95-112.64,57.5"/><path class="cls-102" d="m1102.69,58.88c-23.61,4.17-54.16,22.37-91.07,37.88-25.83,10.85-56.32,24.04-93.64,30.99-57.81,10.77-97.96-1.9-144.78-13.89-3.86-.99-7.79-1.97-11.77-2.96-38.29-9.49-77.08-25.34-116.35-35.59-3.45-.9-6.91-1.73-10.36-2.5-24.63-5.48-48.8-7.32-72.09-4.11-9.86,1.36-19.75,3.23-29.21,6.77-32.34,12.1-12.33,33.09-46.62,43.69-18.4,5.69-44.38,10.49-71.79,16.95-49.37,11.63-103.14,24.3-131.61,14.61-13.3-4.53-24.28-10.89-35.87-16.08-25.7-11.5-52.05-22.96-94.8-26.68-16.07-1.4-31.1-2.68-44.94-2.27-62.28,1.83-100.43,28.78-112.53,55.57"/><path class="cls-99" d="m1102.72,60.43c-23.66,3.18-54.63,20.74-91.64,36.02-26.02,10.74-56.64,24.03-94.02,31.17-57.62,11-97.78-1.26-144.57-12.91-3.86-.96-7.78-1.92-11.76-2.88-38.28-9.24-77.09-24.9-116.32-35.23-3.45-.91-6.9-1.75-10.34-2.53-24.57-5.55-48.68-7.57-71.91-4.58-9.84,1.26-19.71,3.03-29.16,6.47-32.24,11.75-12.66,32.45-46.86,42.82-18.44,5.59-44.39,10.32-71.75,16.83-49.23,11.71-102.73,24.78-131.23,15.47-13.28-4.33-24.26-10.57-35.86-15.63-25.73-11.22-52.15-22.57-94.77-26.41-16.04-1.44-31.04-2.81-44.86-2.5-62.03,1.42-100.13,27.62-112.41,53.64"/><path class="cls-98" d="m1102.75,61.98c-23.71,2.18-55.11,19.11-92.21,34.15-26.21,10.63-56.96,24.03-94.39,31.34-57.43,11.22-97.61-.61-144.35-11.92-3.86-.93-7.78-1.86-11.76-2.8-38.27-8.99-77.09-24.45-116.29-34.87-3.44-.92-6.89-1.77-10.33-2.56-24.52-5.63-48.55-7.82-71.73-5.05-9.82,1.17-19.67,2.83-29.11,6.17-32.14,11.4-13,31.81-47.1,41.95-18.48,5.49-44.41,10.16-71.72,16.71-49.1,11.79-102.32,25.26-130.85,16.33-13.25-4.14-24.23-10.24-35.84-15.17-25.77-10.95-52.25-22.19-94.75-26.14-16.01-1.49-30.98-2.95-44.78-2.72-61.79,1.01-99.83,26.45-112.3,51.71"/><path class="cls-94" d="m1102.78,63.53c-23.77,1.18-55.59,17.48-92.77,32.29-26.4,10.52-57.28,24.02-94.77,31.51-57.25,11.45-97.43.04-144.14-10.94-3.86-.91-7.78-1.81-11.75-2.72-38.26-8.74-77.09-24-116.25-34.51-3.44-.92-6.88-1.78-10.31-2.58-24.47-5.71-48.43-8.07-71.55-5.52-9.79,1.08-19.63,2.63-29.06,5.88-32.04,11.05-13.33,31.17-47.34,41.08-18.53,5.4-44.42,9.99-71.68,16.6-48.97,11.88-101.9,25.74-130.48,17.19-13.22-3.95-24.21-9.91-35.83-14.71-25.81-10.67-52.36-21.8-94.73-25.87-15.97-1.53-30.91-3.08-44.7-2.95-61.54.6-99.53,25.29-112.18,49.78"/><path class="cls-116" d="m1102.81,65.08c-23.82.18-56.07,15.84-93.34,30.43-26.6,10.41-57.61,24.01-95.14,31.69-57.06,11.67-97.26.68-143.93-9.96-3.86-.88-7.77-1.76-11.75-2.64-38.25-8.49-77.09-23.55-116.22-34.15-3.43-.93-6.87-1.8-10.29-2.61-24.42-5.78-48.31-8.32-71.37-5.99-9.77.99-19.59,2.43-29,5.58-31.94,10.69-13.67,30.53-47.58,40.21-18.57,5.3-44.44,9.82-71.64,16.48-48.84,11.96-101.49,26.22-130.1,18.05-13.19-3.77-24.18-9.58-35.81-14.26-25.84-10.39-52.46-21.41-94.71-25.6-15.94-1.58-30.85-3.21-44.62-3.17-61.29.19-99.23,24.12-112.07,47.84"/><path class="cls-117" d="m1102.84,66.63c-23.87-.82-56.55,14.21-93.91,28.56-26.79,10.3-57.93,24-95.52,31.86-56.88,11.89-97.08,1.33-143.72-8.97-3.86-.85-7.77-1.7-11.74-2.56-38.24-8.24-77.09-23.1-116.19-33.78-3.43-.94-6.85-1.82-10.28-2.64-24.37-5.86-48.19-8.57-71.19-6.46-9.75.89-19.55,2.22-28.95,5.28-31.84,10.34-14,29.89-47.82,39.34-18.61,5.2-44.45,9.65-71.6,16.36-48.71,12.04-101.07,26.69-129.72,18.91-13.16-3.58-24.16-9.26-35.8-13.8-25.88-10.11-52.57-21.03-94.69-25.33-15.91-1.63-30.79-3.34-44.54-3.39-61.04-.22-98.93,22.95-111.95,45.91"/><path class="cls-104" d="m1102.87,68.18c-23.92-1.82-57.03,12.57-94.48,26.7-26.99,10.18-58.25,23.99-95.89,32.04-56.69,12.11-96.91,1.98-143.5-7.99-3.85-.82-7.76-1.65-11.73-2.48-38.22-8-77.09-22.65-116.16-33.42-3.42-.94-6.84-1.83-10.26-2.67-24.31-5.94-48.06-8.82-71-6.93-9.73.8-19.51,2.02-28.9,4.98-31.74,9.99-14.34,29.24-48.06,38.47-18.66,5.11-44.47,9.48-71.57,16.24-48.57,12.12-100.65,27.17-129.34,19.77-13.13-3.39-24.14-8.93-35.78-13.34-25.92-9.83-52.67-20.64-94.66-25.06-15.88-1.67-30.73-3.48-44.45-3.62-60.79-.63-98.63,21.79-111.84,43.98"/><path class="cls-113" d="m1102.89,69.73c-23.97-2.82-57.51,10.93-95.05,24.84-27.18,10.07-58.57,23.98-96.27,32.21-56.5,12.33-96.73,2.62-143.29-7-3.85-.8-7.76-1.59-11.73-2.4-38.21-7.75-77.1-22.2-116.13-33.06-3.42-.95-6.83-1.85-10.24-2.69-24.26-6.01-47.94-9.07-70.82-7.4-9.71.71-19.47,1.82-28.84,4.68-31.63,9.64-14.68,28.6-48.3,37.6-18.7,5.01-44.48,9.31-71.53,16.12-48.44,12.2-100.23,27.65-128.96,20.63-13.1-3.2-24.11-8.6-35.77-12.88-25.96-9.55-52.77-20.25-94.64-24.79-15.85-1.72-30.66-3.61-44.37-3.84-60.55-1.04-98.33,20.62-111.72,42.05"/><path class="cls-105" d="m1102.92,71.28c-24.03-3.82-57.99,9.29-95.61,22.97-27.38,9.95-58.89,23.97-96.64,32.39-56.32,12.55-96.56,3.27-143.08-6.02-3.85-.77-7.76-1.54-11.72-2.31-38.2-7.5-77.1-21.75-116.09-32.7-3.41-.96-6.82-1.86-10.23-2.72-24.21-6.09-47.82-9.33-70.64-7.87-9.69.62-19.43,1.62-28.79,4.38-31.53,9.29-15.02,27.95-48.54,36.73-18.74,4.91-44.49,9.14-71.49,16-48.31,12.28-99.81,28.12-128.58,21.49-13.07-3.01-24.09-8.27-35.75-12.43-26-9.27-52.88-19.87-94.62-24.52-15.81-1.76-30.6-3.74-44.29-4.07-60.3-1.44-98.03,19.46-111.61,40.12"/><path class="cls-122" d="m1102.95,72.83c-24.08-4.82-58.47,7.65-96.18,21.11-27.57,9.84-59.22,23.96-97.02,32.56-56.13,12.77-96.38,3.92-142.87-5.04-3.85-.74-7.75-1.48-11.72-2.23-38.19-7.25-77.1-21.3-116.06-32.34-3.41-.96-6.81-1.88-10.21-2.75-24.16-6.16-47.7-9.58-70.46-8.34-9.66.52-19.38,1.42-28.74,4.08-31.43,8.94-15.36,27.3-48.78,35.86-18.79,4.81-44.51,8.97-71.45,15.88-48.18,12.37-99.38,28.59-128.2,22.34-13.04-2.83-24.07-7.94-35.73-11.97-26.03-8.99-52.98-19.48-94.6-24.25-15.78-1.81-30.54-3.87-44.21-4.29-60.04-1.84-97.73,18.29-111.5,38.18"/><path class="cls-121" d="m1102.98,74.38c-24.13-5.82-58.96,6.01-96.75,19.25-27.77,9.72-59.54,23.95-97.39,32.74-55.95,12.99-96.21,4.56-142.65-4.05-3.85-.71-7.75-1.43-11.71-2.15-38.18-7-77.1-20.85-116.03-31.98-3.4-.97-6.8-1.9-10.2-2.77-24.1-6.24-47.57-9.83-70.28-8.81-9.64.43-19.34,1.22-28.68,3.78-31.32,8.59-15.7,26.65-49.02,34.99-18.83,4.71-44.52,8.8-71.41,15.77-48.05,12.45-98.96,29.07-127.82,23.2-13.01-2.64-24.05-7.61-35.72-11.51-26.07-8.71-53.09-19.1-94.57-23.98-15.75-1.85-30.48-4-44.13-4.52-59.79-2.25-97.43,17.12-111.38,36.25"/><path class="cls-111" d="m1103.01,75.93c-24.18-6.82-59.44,4.37-97.32,17.38-27.97,9.61-59.86,23.94-97.77,32.91-55.76,13.2-96.03,5.21-142.44-3.07-3.85-.69-7.75-1.37-11.71-2.07-38.17-6.75-77.1-20.41-116-31.62-3.39-.98-6.79-1.91-10.18-2.8-24.05-6.32-47.45-10.08-70.09-9.28-9.62.34-19.3,1.02-28.63,3.48-31.22,8.24-16.04,26-49.26,34.12-18.88,4.61-44.54,8.63-71.38,15.65-47.91,12.53-98.53,29.54-127.44,24.06-12.97-2.46-24.02-7.29-35.7-11.05-26.11-8.42-53.19-18.71-94.55-23.71-15.72-1.9-30.41-4.14-44.05-4.74-59.54-2.65-97.13,15.96-111.27,34.32"/><path class="cls-110" d="m1103.04,77.48c-24.24-7.82-59.92,2.73-97.89,15.52-28.16,9.49-60.18,23.92-98.14,33.09-55.58,13.41-95.86,5.86-142.23-2.08-3.84-.66-7.74-1.32-11.7-1.99-38.16-6.5-77.11-19.96-115.96-31.25-3.39-.99-6.78-1.93-10.16-2.83-24-6.39-47.33-10.33-69.91-9.75-9.6.25-19.26.82-28.58,3.18-31.11,7.9-16.38,25.35-49.5,33.25-18.92,4.51-44.55,8.46-71.34,15.53-47.78,12.61-98.11,30.01-127.06,24.92-12.94-2.27-24-6.96-35.69-10.6-26.15-8.14-53.3-18.33-94.53-23.44-15.69-1.95-30.35-4.27-43.96-4.97-59.29-3.05-96.83,14.79-111.15,32.39"/><path class="cls-115" d="m1103.07,79.03c-24.29-8.81-60.41,1.08-98.45,13.66-28.36,9.37-60.5,23.91-98.51,33.26-55.39,13.63-95.68,6.51-142.02-1.1-3.84-.63-7.74-1.26-11.69-1.91-38.14-6.25-77.11-19.51-115.93-30.89-3.38-.99-6.77-1.94-10.15-2.86-23.95-6.47-47.21-10.58-69.73-10.22-9.58.15-19.21.62-28.52,2.88-31,7.55-16.72,24.7-49.74,32.38-18.97,4.41-44.57,8.29-71.3,15.41-47.65,12.69-97.68,30.48-126.68,25.78-12.91-2.09-23.98-6.63-35.67-10.14-26.19-7.86-53.4-17.94-94.51-23.17-15.66-1.99-30.29-4.4-43.88-5.19-59.04-3.45-96.53,13.63-111.04,30.46"/><path class="cls-114" d="m1103.1,80.57c-24.34-9.81-60.89-.56-99.02,11.79-28.56,9.25-60.83,23.9-98.89,33.44-55.2,13.84-95.51,7.15-141.8-.11-3.84-.6-7.74-1.21-11.69-1.83-38.13-6-77.11-19.06-115.9-30.53-3.38-1-6.76-1.96-10.13-2.88-23.9-6.54-47.08-10.83-69.55-10.69-9.56.06-19.17.42-28.47,2.58-30.89,7.2-17.06,24.05-49.98,31.51-19.01,4.31-44.58,8.12-71.26,15.29-47.52,12.77-97.25,30.94-126.3,26.64-12.87-1.91-23.95-6.3-35.66-9.68-26.23-7.58-53.5-17.56-94.49-22.9-15.62-2.04-30.22-4.53-43.8-5.42-58.79-3.85-96.23,12.46-110.92,28.52"/><path class="cls-93" d="m1103.13,82.12c-24.39-10.81-61.38-2.21-99.59,9.93-28.76,9.14-61.15,23.88-99.26,33.61-55.02,14.05-95.33,7.8-141.59.87-3.84-.58-7.73-1.15-11.68-1.75-38.12-5.75-77.11-18.61-115.87-30.17-3.37-1.01-6.75-1.98-10.11-2.91-23.84-6.62-46.96-11.09-69.37-11.16-9.54-.03-19.13.22-28.42,2.28-30.79,6.86-17.41,23.39-50.22,30.64-19.06,4.21-44.59,7.95-71.22,15.17-47.39,12.85-96.82,31.41-125.92,27.5-12.84-1.73-23.93-5.97-35.64-9.23-26.27-7.3-53.61-17.17-94.46-22.63-15.59-2.09-30.16-4.66-43.72-5.64-58.53-4.24-95.93,11.29-110.81,26.59"/><path class="cls-119" d="m1103.16,83.67c-24.44-11.81-61.86-3.86-100.16,8.07-28.95,9.01-61.47,23.86-99.64,33.78-54.83,14.25-95.16,8.45-141.38,1.85-3.84-.55-7.73-1.1-11.68-1.67-38.11-5.51-77.11-18.16-115.84-29.81-3.37-1.01-6.74-1.99-10.1-2.94-23.79-6.7-46.84-11.34-69.18-11.63-9.51-.12-19.09.02-28.37,1.99-30.68,6.51-17.75,22.74-50.46,29.77-19.11,4.11-44.61,7.78-71.19,15.06-47.25,12.93-96.39,31.87-125.54,28.36-12.8-1.54-23.91-5.64-35.63-8.77-26.31-7.02-53.71-16.79-94.44-22.37-15.56-2.13-30.1-4.79-43.64-5.86-58.28-4.64-95.63,10.13-110.69,24.66"/><path class="cls-120" d="m1103.19,85.22c-24.5-12.81-62.35-5.51-100.72,6.2-29.15,8.89-61.79,23.85-100.01,33.96-54.65,14.46-94.98,9.1-141.17,2.84-3.84-.52-7.73-1.04-11.67-1.59-38.1-5.26-77.11-17.71-115.8-29.45-3.36-1.02-6.72-2.01-10.08-2.96-23.74-6.77-46.72-11.59-69-12.1-9.49-.22-19.04-.18-28.31,1.69-30.57,6.17-18.09,22.08-50.7,28.9-19.15,4-44.62,7.61-71.15,14.94-47.12,13.02-95.96,32.34-125.16,29.22-12.77-1.36-23.89-5.31-35.61-8.31-26.35-6.74-53.82-16.4-94.42-22.1-15.53-2.18-30.03-4.92-43.56-6.09-58.03-5.03-95.33,8.96-110.58,22.73"/><path class="cls-26" d="m1103.22,86.77c-24.55-13.81-62.83-7.16-101.29,4.34-29.35,8.77-62.12,23.83-100.39,34.13-54.47,14.67-94.81,9.75-140.95,3.82-3.84-.49-7.72-.99-11.67-1.51-38.09-5.01-77.12-17.26-115.77-29.08-3.36-1.03-6.71-2.02-10.06-2.99-23.69-6.85-46.6-11.84-68.82-12.57-9.47-.31-19-.38-28.26,1.39-30.46,5.82-18.44,21.42-50.94,28.03-19.2,3.9-44.64,7.44-71.11,14.82-46.99,13.1-95.52,32.8-124.78,30.07-12.73-1.18-23.86-4.98-35.6-7.85-26.39-6.45-53.92-16.02-94.4-21.83-15.5-2.22-29.97-5.05-43.47-6.31-57.78-5.42-95.03,7.79-110.46,20.8"/><path class="cls-27" d="m1103.25,88.32c-24.6-14.81-63.32-8.81-101.86,2.48-29.55,8.65-62.44,23.81-100.76,34.31-54.28,14.87-94.64,10.39-140.74,4.81-3.83-.46-7.72-.93-11.66-1.43-38.08-4.76-77.12-16.81-115.74-28.72-3.35-1.03-6.7-2.04-10.05-3.02-23.64-6.92-46.47-12.09-68.64-13.04-9.45-.4-18.95-.58-28.21,1.09-30.35,5.48-18.78,20.76-51.18,27.16-19.25,3.8-44.65,7.27-71.07,14.7-46.86,13.18-95.09,33.26-124.4,30.93-12.69-1.01-23.84-4.66-35.58-7.4-26.43-6.17-54.03-15.63-94.38-21.56-15.47-2.27-29.91-5.18-43.39-6.54-57.52-5.81-94.73,6.63-110.35,18.87"/><path class="cls-76" d="m1103.28,89.87c-24.65-15.81-63.81-10.46-102.43.61-29.75,8.53-62.76,23.79-101.14,34.48-54.1,15.07-94.46,11.04-140.53,5.79-3.83-.44-7.71-.88-11.65-1.35-38.07-4.51-77.12-16.36-115.71-28.36-3.35-1.04-6.69-2.06-10.03-3.05-23.58-7-46.35-12.35-68.46-13.51-9.43-.5-18.91-.78-28.15.79-30.23,5.14-19.13,20.11-51.42,26.29-19.3,3.69-44.67,7.1-71.04,14.58-46.73,13.26-94.65,33.71-124.02,31.79-12.66-.83-23.82-4.33-35.57-6.94-26.47-5.89-54.13-15.25-94.35-21.29-15.43-2.32-29.84-5.3-43.31-6.76-57.27-6.2-94.43,5.46-110.23,16.93"/><path class="cls-75" d="m1103.31,91.42c-24.71-16.81-64.29-12.11-103-1.25-29.95,8.4-63.09,23.77-101.51,34.66-53.91,15.28-94.29,11.69-140.32,6.77-3.83-.41-7.71-.82-11.65-1.27-38.06-4.26-77.12-15.91-115.67-28-3.34-1.05-6.68-2.07-10.01-3.07-23.53-7.07-46.23-12.6-68.27-13.98-9.41-.59-18.87-.98-28.1.49-30.12,4.8-19.47,19.44-51.66,25.42-19.34,3.59-44.68,6.93-71,14.46-46.59,13.34-94.22,34.17-123.64,32.65-12.62-.65-23.8-4-35.55-6.48-26.51-5.61-54.24-14.86-94.33-21.02-15.4-2.36-29.78-5.43-43.23-6.99-57.01-6.59-94.13,4.3-110.12,15"/><path class="cls-53" d="m1103.34,92.97c-24.76-17.81-64.78-13.76-103.56-3.11-30.15,8.28-63.41,23.75-101.89,34.83-53.73,15.48-94.11,12.34-140.1,7.76-3.83-.38-7.71-.77-11.64-1.18-38.04-4.01-77.12-15.46-115.64-27.64-3.34-1.06-6.67-2.09-10-3.1-23.48-7.15-46.11-12.85-68.09-14.45-9.39-.68-18.82-1.18-28.05.19-30.01,4.46-19.82,18.78-51.9,24.55-19.39,3.48-44.69,6.76-70.96,14.35-46.46,13.42-93.78,34.62-123.27,33.51-12.58-.47-23.77-3.67-35.54-6.03-26.55-5.32-54.34-14.48-94.31-20.75-15.37-2.41-29.72-5.56-43.15-7.21-56.76-6.98-93.83,3.13-110,13.07"/><path class="cls-30" d="m1103.37,94.52c-24.81-18.81-65.27-15.42-104.13-4.98-30.35,8.15-63.73,23.73-102.26,35.01-53.55,15.68-93.94,12.99-139.89,8.74-3.83-.35-7.7-.72-11.64-1.1-38.03-3.76-77.13-15.01-115.61-27.28-3.33-1.06-6.66-2.1-9.98-3.13-23.43-7.22-45.98-13.1-67.91-14.92-9.37-.78-18.78-1.38-27.99-.11-29.9,4.12-20.16,18.12-52.14,23.68-19.44,3.38-44.71,6.59-70.92,14.23-46.33,13.5-93.35,35.07-122.89,34.37-12.54-.3-23.75-3.34-35.52-5.57-26.59-5.04-54.44-14.1-94.29-20.48-15.34-2.46-29.65-5.69-43.07-7.44-56.51-7.36-93.53,1.96-109.89,11.14"/><path class="cls-64" d="m1103.39,96.07c-24.86-19.81-65.75-17.07-104.7-6.84-30.55,8.03-64.06,23.7-102.64,35.18-53.36,15.88-93.77,13.64-139.68,9.73-3.83-.33-7.7-.66-11.63-1.02-38.02-3.51-77.13-14.56-115.58-26.92-3.33-1.07-6.65-2.12-9.96-3.16-23.37-7.3-45.86-13.36-67.73-15.39-9.34-.87-18.73-1.58-27.94-.41-29.78,3.78-20.51,17.46-52.38,22.81-19.49,3.27-44.72,6.42-70.88,14.11-46.2,13.58-92.91,35.52-122.51,35.23-12.51-.12-23.73-3.01-35.51-5.11-26.63-4.76-54.55-13.71-94.26-20.21-15.31-2.5-29.59-5.82-42.98-7.66-56.25-7.75-93.23.8-109.77,9.21"/><path class="cls-28" d="m1103.42,97.62c-24.91-20.8-66.24-18.73-105.27-8.7-30.75,7.9-64.38,23.68-103.01,35.36-53.18,16.07-93.59,14.29-139.47,10.71-3.82-.3-7.7-.61-11.63-.94-38.01-3.26-77.13-14.11-115.55-26.55-3.32-1.08-6.64-2.14-9.95-3.18-23.32-7.38-45.74-13.61-67.55-15.86-9.32-.96-18.69-1.77-27.89-.71-29.67,3.44-20.86,16.79-52.62,21.94-19.54,3.17-44.74,6.25-70.85,13.99-46.07,13.66-92.47,35.97-122.13,36.09-12.47.05-23.71-2.68-35.49-4.65-26.67-4.47-54.65-13.33-94.24-19.94-15.27-2.55-29.53-5.94-42.9-7.89-56-8.13-92.93-.37-109.66,7.27"/><path class="cls-71" d="m1103.45,99.17c-24.97-21.8-66.73-20.39-105.84-10.57-30.95,7.77-64.7,23.66-103.39,35.53-53,16.27-93.42,14.94-139.25,11.69-3.82-.27-7.69-.55-11.62-.86-38-3.01-77.13-13.66-115.51-26.19-3.32-1.08-6.63-2.15-9.93-3.21-23.27-7.45-45.62-13.86-67.36-16.33-9.3-1.05-18.64-1.97-27.83-1.01-29.56,3.11-21.2,16.12-52.86,21.07-19.59,3.06-44.75,6.08-70.81,13.87-45.94,13.74-92.04,36.42-121.75,36.94-12.43.22-23.69-2.35-35.48-4.2-26.71-4.19-54.76-12.95-94.22-19.67-15.24-2.6-29.46-6.07-42.82-8.11-55.74-8.51-92.63-1.53-109.54,5.34"/><path class="cls-90" d="m1103.48,100.72c-25.02-22.8-67.22-22.05-106.4-12.43-31.15,7.64-65.03,23.63-103.76,35.7-52.82,16.46-93.24,15.59-139.04,12.68-3.82-.24-7.69-.5-11.61-.78-37.99-2.76-77.13-13.21-115.48-25.83-3.31-1.09-6.62-2.17-9.91-3.24-23.22-7.53-45.5-14.11-67.18-16.8-9.28-1.15-18.6-2.17-27.78-1.31-29.44,2.77-21.55,15.46-53.1,20.2-19.63,2.95-44.77,5.91-70.77,13.75-45.8,13.82-91.6,36.86-121.37,37.8-12.39.39-23.66-2.02-35.46-3.74-26.75-3.9-54.86-12.56-94.2-19.4-15.21-2.64-29.4-6.2-42.74-8.34-55.49-8.89-92.33-2.7-109.43,3.41"/><path class="cls-89" d="m1103.51,102.27c-25.07-23.8-67.7-23.7-106.97-14.29-31.35,7.51-65.35,23.6-104.14,35.88-52.63,16.66-93.07,16.24-138.83,13.66-3.82-.21-7.69-.44-11.61-.7-37.98-2.51-77.14-12.76-115.45-25.47-3.31-1.1-6.61-2.18-9.9-3.26-23.17-7.6-45.37-14.37-67-17.27-9.26-1.24-18.55-2.37-27.73-1.61-29.33,2.43-21.9,14.79-53.34,19.33-19.68,2.84-44.78,5.74-70.73,13.63-45.67,13.9-91.16,37.3-120.99,38.66-12.35.56-23.64-1.69-35.45-3.28-26.79-3.62-54.97-12.18-94.18-19.13-15.18-2.69-29.33-6.32-42.66-8.56-55.23-9.27-92.03-3.87-109.31,1.48"/><path class="cls-91" d="m1103.54,103.82c-25.12-24.8-68.19-25.37-107.54-16.16-31.55,7.38-65.68,23.58-104.51,36.05-52.45,16.85-92.9,16.89-138.62,14.65-3.82-.19-7.68-.39-11.6-.62-37.97-2.26-77.14-12.31-115.42-25.11-3.3-1.1-6.59-2.2-9.88-3.29-23.11-7.68-45.25-14.62-66.82-17.74-9.24-1.33-18.51-2.56-27.68-1.9-29.21,2.1-22.25,14.12-53.58,18.46-19.73,2.73-44.79,5.57-70.7,13.52-45.54,13.98-90.72,37.74-120.61,39.52-12.32.73-23.62-1.36-35.43-2.82-26.83-3.33-55.07-11.8-94.15-18.86-15.15-2.74-29.27-6.45-42.58-8.78-54.98-9.65-91.73-5.03-109.2-.45"/><path class="cls-73" d="m1103.57,105.37c-25.18-25.8-68.68-27.03-108.11-18.02-31.75,7.25-66,23.55-104.89,36.23-52.27,17.04-92.72,17.54-138.4,15.63-3.82-.16-7.68-.33-11.6-.54-37.96-2.01-77.14-11.86-115.39-24.75-3.29-1.11-6.58-2.22-9.86-3.32-23.06-7.75-45.13-14.87-66.64-18.21-9.22-1.43-18.46-2.76-27.62-2.2-29.1,1.77-22.6,13.45-53.82,17.59-19.78,2.62-44.81,5.4-70.66,13.4-45.41,14.06-90.29,38.18-120.23,40.38-12.28.9-23.6-1.03-35.42-2.37-26.88-3.05-55.17-11.41-94.13-18.59-15.12-2.78-29.21-6.58-42.49-9.01-54.73-10.02-91.43-6.2-109.08-2.39"/><path class="cls-74" d="m1103.6,106.92c-25.23-26.8-69.17-28.69-108.68-19.88-31.95,7.12-66.33,23.52-105.26,36.4-52.09,17.23-92.55,18.19-138.19,16.61-3.81-.13-7.68-.28-11.59-.46-37.95-1.76-77.14-11.41-115.35-24.38-3.29-1.12-6.57-2.23-9.85-3.35-23.01-7.83-45.01-15.13-66.45-18.68-9.19-1.52-18.42-2.96-27.57-2.5-28.98,1.44-22.94,12.78-54.06,16.72-19.83,2.51-44.82,5.22-70.62,13.28-45.28,14.14-89.85,38.61-119.85,41.24-12.24,1.07-23.58-.7-35.4-1.91-26.92-2.76-55.28-11.03-94.11-18.32-15.08-2.83-29.14-6.7-42.41-9.23-54.47-10.4-91.13-7.36-108.97-4.32"/><path class="cls-57" d="m1103.63,108.47c-25.28-27.8-69.66-30.35-109.24-21.75-32.15,6.99-66.65,23.49-105.64,36.58-51.91,17.42-92.37,18.84-137.98,17.6-3.81-.1-7.67-.22-11.58-.38-37.93-1.51-77.14-10.96-115.32-24.02-3.28-1.12-6.56-2.25-9.83-3.37-22.96-7.9-44.89-15.38-66.27-19.15-9.17-1.61-18.37-3.15-27.52-2.8-28.86,1.11-23.29,12.1-54.3,15.85-19.88,2.4-44.84,5.05-70.58,13.16-45.14,14.22-89.41,39.05-119.47,42.1-12.2,1.24-23.55-.37-35.39-1.45-26.96-2.48-55.38-10.65-94.09-18.05-15.05-2.88-29.08-6.83-42.33-9.46-54.22-10.77-90.83-8.53-108.85-6.25"/><path class="cls-58" d="m1103.66,110.02c-25.33-28.8-70.15-32.01-109.81-23.61-32.35,6.85-66.98,23.46-106.01,36.75-51.73,17.61-92.2,19.49-137.77,18.58-3.81-.08-7.67-.17-11.58-.3-37.92-1.26-77.15-10.51-115.29-23.66-3.28-1.13-6.55-2.26-9.81-3.4-22.91-7.98-44.76-15.63-66.09-19.62-9.15-1.71-18.33-3.35-27.46-3.1-28.75.78-23.64,11.43-54.54,14.98-19.93,2.29-44.85,4.88-70.54,13.04-45.01,14.3-88.98,39.48-119.09,42.96-12.17,1.41-23.53-.03-35.37-1-27-2.19-55.49-10.27-94.06-17.78-15.02-2.93-29.02-6.95-42.25-9.68-53.96-11.14-90.53-9.7-108.74-8.18"/><path class="cls-60" d="m1103.69,111.56c-25.38-29.8-70.63-33.68-110.38-25.47-32.55,6.72-67.3,23.43-106.39,36.93-51.55,17.8-92.03,20.14-137.55,19.57-3.81-.05-7.67-.11-11.57-.22-37.91-1.01-77.15-10.05-115.26-23.3-3.27-1.14-6.54-2.28-9.8-3.43-22.85-8.05-44.64-15.89-65.91-20.08-9.13-1.8-18.28-3.54-27.41-3.4-28.63.45-23.99,10.75-54.78,14.11-19.98,2.18-44.87,4.71-70.51,12.92-44.88,14.37-88.54,39.91-118.71,43.82-12.13,1.57-23.51.3-35.36-.54-27.04-1.91-55.59-9.88-94.04-17.51-14.99-2.97-28.95-7.08-42.17-9.91-53.71-11.51-90.23-10.86-108.63-10.11"/><path class="cls-87" d="m1103.72,113.11c-25.44-30.8-71.12-35.34-110.95-27.34-32.75,6.58-67.63,23.4-106.76,37.1-51.37,17.99-91.85,20.79-137.34,20.55-3.81-.02-7.66-.06-11.57-.14-37.9-.76-77.15-9.6-115.22-22.94-3.27-1.14-6.53-2.3-9.78-3.45-22.8-8.13-44.52-16.14-65.73-20.55-9.11-1.9-18.24-3.74-27.36-3.7-28.51.12-24.34,10.08-55.02,13.23-20.03,2.06-44.88,4.54-70.47,12.81-44.75,14.45-88.11,40.33-118.33,44.67-12.09,1.74-23.49.63-35.34-.08-27.08-1.62-55.7-9.5-94.02-17.24-14.96-3.02-28.89-7.2-42.09-10.13-53.46-11.88-89.93-12.03-108.51-12.05"/><path class="cls-88" d="m1103.75,114.66c-25.49-31.79-71.61-37.01-111.52-29.2-32.95,6.45-67.96,23.37-107.14,37.28-51.19,18.17-91.68,21.44-137.13,21.54-3.81,0-7.66,0-11.56-.05-37.89-.5-77.15-9.15-115.19-22.58-3.26-1.15-6.52-2.31-9.76-3.48-22.75-8.2-44.4-16.4-65.55-21.02-9.09-1.99-18.19-3.93-27.3-4-28.4-.21-24.69,9.4-55.26,12.36-20.08,1.95-44.9,4.37-70.43,12.69-44.62,14.53-87.67,40.76-117.95,45.53-12.05,1.9-23.47.96-35.33.38-27.12-1.33-55.8-9.12-94-16.97-14.92-3.07-28.83-7.32-42-10.36-53.2-12.25-89.63-13.2-108.4-13.98"/><path class="cls-29" d="m1103.78,116.21c-25.54-32.79-72.1-38.68-112.08-31.06-33.15,6.31-68.28,23.33-107.51,37.45-51.01,18.36-91.5,22.09-136.92,22.52-3.8.04-7.65.05-11.56.03-37.88-.25-77.15-8.7-115.16-22.22-3.26-1.16-6.51-2.33-9.75-3.51-22.7-8.28-44.28-16.65-65.36-21.49-9.07-2.08-18.14-4.13-27.25-4.3-28.28-.53-25.04,8.72-55.5,11.49-20.13,1.83-44.91,4.2-70.39,12.57-44.49,14.61-87.24,41.18-117.57,46.39-12.02,2.06-23.44,1.29-35.31.83-27.16-1.05-55.9-8.74-93.98-16.7-14.89-3.12-28.76-7.45-41.92-10.58-52.95-12.61-89.33-14.36-108.28-15.91"/><path class="cls-32" d="m1103.81,117.76c-25.59-33.79-72.59-40.34-112.65-32.93-33.35,6.17-68.61,23.3-107.89,37.63-50.83,18.54-91.33,22.74-136.7,23.5-3.8.06-7.65.11-11.55.11-37.87,0-77.16-8.25-115.13-21.85-3.25-1.17-6.5-2.34-9.73-3.54-22.65-8.35-44.15-16.9-65.18-21.96-9.05-2.18-18.1-4.32-27.2-4.6-28.16-.85-25.39,8.04-55.74,10.62-20.18,1.72-44.93,4.03-70.35,12.45-44.36,14.69-86.8,41.6-117.19,47.25-11.98,2.23-23.42,1.62-35.3,1.29-27.2-.76-56.01-8.36-93.95-16.43-14.86-3.16-28.7-7.57-41.84-10.81-52.7-12.98-89.03-15.53-108.17-17.84"/><path class="cls-81" d="m1103.84,119.31c-25.65-34.79-73.08-42.01-113.22-34.79-33.56,6.04-68.94,23.27-108.26,37.8-50.66,18.72-91.16,23.39-136.49,24.49-3.8.09-7.65.16-11.54.19-37.86.25-77.16-7.8-115.1-21.49-3.25-1.17-6.49-2.36-9.71-3.56-22.59-8.43-44.03-17.16-65-22.43-9.02-2.27-18.05-4.52-27.14-4.9-28.05-1.18-25.74,7.36-55.98,9.75-20.23,1.6-44.94,3.86-70.32,12.33-44.22,14.77-86.37,42.02-116.81,48.11-11.95,2.39-23.4,1.95-35.28,1.75-27.24-.47-56.11-7.98-93.93-16.16-14.83-3.21-28.64-7.69-41.76-11.03-52.45-13.34-88.73-16.69-108.05-19.77"/><path class="cls-19" d="m1103.87,120.86c-25.7-35.79-73.56-43.68-113.79-36.65-33.76,5.9-69.27,23.23-108.63,37.97-50.48,18.91-90.98,24.04-136.28,25.47-3.8.12-7.64.22-11.54.27-37.85.5-77.16-7.35-115.06-21.13-3.24-1.18-6.48-2.37-9.7-3.59-22.54-8.5-43.91-17.41-64.82-22.9-9-2.36-18.01-4.71-27.09-5.2-27.93-1.5-26.09,6.68-56.22,8.88-20.28,1.48-44.95,3.69-70.28,12.21-44.09,14.85-85.94,42.44-116.44,48.97-11.91,2.55-23.38,2.28-35.27,2.2-27.29-.18-56.22-7.59-93.91-15.89-14.8-3.26-28.57-7.81-41.68-11.25-52.2-13.7-88.43-17.86-107.94-21.71"/><path class="cls-24" d="m1103.89,122.41c-25.75-36.79-74.05-45.35-114.35-38.52-33.96,5.76-69.6,23.19-109.01,38.15-50.3,19.09-90.81,24.69-136.07,26.46-3.8.15-7.64.27-11.53.35-37.84.75-77.16-6.9-115.03-20.77-3.24-1.19-6.47-2.39-9.68-3.62-22.49-8.58-43.79-17.67-64.64-23.37-8.98-2.46-17.96-4.9-27.04-5.5-27.81-1.82-26.44,6-56.46,8.01-20.33,1.37-44.97,3.51-70.24,12.09-43.96,14.93-85.51,42.85-116.06,49.83-11.88,2.71-23.36,2.62-35.25,2.66-27.33.11-56.32-7.21-93.89-15.63-14.77-3.31-28.51-7.94-41.6-11.48-51.94-14.06-88.13-19.03-107.82-23.64"/><path class="cls-25" d="m1103.92,123.96c-25.8-37.79-74.54-47.02-114.92-40.38-34.16,5.62-69.92,23.16-109.38,38.32-50.13,19.27-90.63,25.35-135.85,27.44-3.8.18-7.64.33-11.53.43-37.83,1-77.17-6.45-115-20.41-3.23-1.19-6.45-2.41-9.67-3.64-22.44-8.65-43.66-17.92-64.45-23.84-8.96-2.55-17.92-5.09-26.99-5.79-27.7-2.14-26.78,5.31-56.7,7.14-20.38,1.25-44.98,3.34-70.2,11.98-43.83,15-85.08,43.27-115.68,50.69-11.84,2.87-23.33,2.95-35.23,3.12-27.37.39-56.42-6.83-93.87-15.36-14.73-3.35-28.45-8.06-41.51-11.7-51.69-14.42-87.83-20.19-107.71-25.57"/><path class="cls-31" d="m1103.95,125.51c-25.86-38.79-75.03-48.69-115.49-42.24-34.36,5.48-70.25,23.12-109.76,38.5-49.95,19.45-90.46,26-135.64,28.42-3.8.2-7.63.38-11.52.51-37.81,1.25-77.17-6-114.97-20.05-3.23-1.2-6.44-2.42-9.65-3.67-22.39-8.73-43.54-18.17-64.27-24.31-8.94-2.65-17.87-5.29-26.93-6.09-27.58-2.46-27.13,4.63-56.94,6.27-20.43,1.13-45,3.17-70.17,11.86-43.7,15.08-84.65,43.68-115.3,51.55-11.81,3.03-23.31,3.28-35.22,3.58-27.41.68-56.53-6.45-93.84-15.09-14.7-3.4-28.38-8.18-41.43-11.93-51.44-14.78-87.53-21.36-107.59-27.5"/><path class="cls-61" d="m1103.98,127.06c-25.91-39.79-75.52-50.37-116.06-44.11-34.56,5.34-70.58,23.08-110.13,38.67-49.78,19.62-90.29,26.65-135.43,29.41-3.79.23-7.63.44-11.52.59-37.8,1.5-77.17-5.54-114.93-19.68-3.22-1.21-6.43-2.44-9.63-3.7-22.34-8.8-43.42-18.43-64.09-24.78-8.92-2.74-17.82-5.48-26.88-6.39-27.46-2.78-27.48,3.94-57.18,5.4-20.48,1.01-45.01,3-70.13,11.74-43.57,15.16-84.23,44.09-114.92,52.4-11.77,3.19-23.29,3.61-35.2,4.03-27.45.97-56.63-6.07-93.82-14.82-14.67-3.45-28.32-8.3-41.35-12.15-51.19-15.14-87.23-22.52-107.48-29.43"/><path class="cls-77" d="m1104.01,128.61c-25.96-40.79-76-52.04-116.63-45.97-34.76,5.19-70.91,23.04-110.51,38.85-49.6,19.8-90.11,27.3-135.22,30.39-3.79.26-7.63.49-11.51.67-37.79,1.76-77.17-5.09-114.9-19.32-3.22-1.21-6.42-2.45-9.62-3.73-22.28-8.87-43.3-18.68-63.91-25.25-8.89-2.83-17.78-5.67-26.83-6.69-27.35-3.09-27.83,3.25-57.42,4.53-20.53.89-45.03,2.83-70.09,11.62-43.44,15.24-83.8,44.5-114.54,53.26-11.74,3.35-23.27,3.94-35.19,4.49-27.49,1.26-56.73-5.69-93.8-14.55-14.64-3.5-28.26-8.42-41.27-12.38-50.94-15.49-86.93-23.69-107.36-31.36"/><path class="cls-70" d="m1104.04,130.16c-26.01-41.79-76.49-53.71-117.19-47.83-34.96,5.05-71.24,23-110.88,39.02-49.43,19.98-89.94,27.95-135,31.38-3.79.29-7.62.55-11.5.75-37.78,2.01-77.18-4.64-114.87-18.96-3.21-1.22-6.41-2.47-9.6-3.75-22.23-8.95-43.17-18.94-63.73-25.72-8.87-2.93-17.73-5.86-26.77-6.99-27.23-3.41-28.18,2.57-57.66,3.66-20.58.77-45.04,2.66-70.05,11.5-43.31,15.32-83.38,44.9-114.16,54.12-11.71,3.51-23.25,4.28-35.17,4.95-27.53,1.55-56.84-5.31-93.78-14.28-14.61-3.55-28.2-8.54-41.19-12.6-50.7-15.84-86.63-24.86-107.25-33.3"/><path class="cls-69" d="m1104.07,131.71c-26.06-42.79-76.98-55.39-117.76-49.7-35.16,4.91-71.58,22.96-111.26,39.2-49.25,20.15-89.76,28.61-134.79,32.36-3.79.32-7.62.6-11.5.83-37.77,2.26-77.18-4.19-114.84-18.6-3.21-1.23-6.4-2.49-9.58-3.78-22.18-9.02-43.05-19.19-63.54-26.19-8.85-3.02-17.69-6.05-26.72-7.29-27.12-3.72-28.53,1.88-57.9,2.79-20.63.64-45.06,2.48-70.01,11.38-43.17,15.4-82.95,45.31-113.78,54.98-11.67,3.66-23.22,4.61-35.16,5.41-27.57,1.84-56.94-4.93-93.75-14.01-14.57-3.59-28.13-8.66-41.11-12.83-50.45-16.2-86.33-26.02-107.13-35.23"/><path class="cls-59" d="m1104.1,133.26c-26.12-43.78-77.47-57.06-118.33-51.56-35.36,4.76-71.91,22.92-111.63,39.37-49.08,20.33-89.59,29.26-134.58,33.34-3.79.34-7.62.66-11.49.91-37.76,2.51-77.18-3.74-114.81-18.24-3.2-1.23-6.39-2.5-9.57-3.81-22.13-9.1-42.93-19.45-63.36-26.66-8.83-3.12-17.64-6.24-26.67-7.59-27-4.04-28.88,1.19-58.14,1.92-20.68.52-45.07,2.31-69.98,11.27-43.04,15.47-82.53,45.71-113.4,55.84-11.64,3.82-23.2,4.94-35.14,5.86-27.61,2.13-57.05-4.55-93.73-13.74-14.54-3.64-28.07-8.78-41.02-13.05-50.2-16.55-86.03-27.19-107.02-37.16"/><path class="cls-82" d="m1104.13,134.81c-26.17-44.78-77.95-58.74-118.9-53.42-35.56,4.61-72.24,22.87-112.01,39.55-48.91,20.5-89.42,29.91-134.37,34.33-3.79.37-7.61.71-11.49,1-37.75,2.76-77.18-3.29-114.77-17.88-3.2-1.24-6.38-2.52-9.55-3.83-22.08-9.17-42.81-19.7-63.18-27.13-8.81-3.21-17.6-6.43-26.61-7.89-26.89-4.35-29.23.5-58.38,1.05-20.73.4-45.09,2.14-69.94,11.15-42.91,15.55-82.11,46.11-113.02,56.7-11.61,3.98-23.18,5.27-35.13,6.32-27.65,2.42-57.15-4.17-93.71-13.47-14.51-3.69-28.01-8.9-40.94-13.28-49.95-16.9-85.73-28.35-106.9-39.09"/><path class="cls-83" d="m1104.16,136.36c-26.22-45.78-78.44-60.41-119.47-55.29-35.76,4.47-72.57,22.83-112.38,39.72-48.74,20.68-89.24,30.56-134.15,35.31-3.78.4-7.61.77-11.48,1.08-37.74,3.01-77.19-2.83-114.74-17.52-3.19-1.25-6.37-2.53-9.53-3.86-22.03-9.25-42.68-19.96-63-27.6-8.79-3.31-17.55-6.62-26.56-8.19-26.77-4.66-29.58-.2-58.62.18-20.78.27-45.1,1.97-69.9,11.03-42.78,15.63-81.69,46.51-112.64,57.56-11.58,4.13-23.16,5.61-35.11,6.78-27.69,2.71-57.25-3.79-93.69-13.2-14.48-3.74-27.95-9.02-40.86-13.5-49.71-17.25-85.43-29.52-106.79-41.02"/><path class="cls-84" d="m1104.19,137.91c-26.27-46.78-78.93-62.09-120.03-57.15-35.96,4.32-72.9,22.79-112.76,39.9-48.56,20.85-89.07,31.22-133.94,36.3-3.78.43-7.61.82-11.48,1.16-37.73,3.26-77.19-2.38-114.71-17.15-3.18-1.25-6.36-2.55-9.52-3.89-21.97-9.32-42.56-20.21-62.82-28.07-8.77-3.4-17.51-6.81-26.51-8.49-26.66-4.97-29.93-.89-58.86-.69-20.83.15-45.12,1.8-69.86,10.91-42.65,15.71-81.27,46.91-112.26,58.42-11.55,4.29-23.13,5.94-35.1,7.23-27.73,3-57.36-3.41-93.67-12.93-14.44-3.79-27.89-9.14-40.78-13.72-49.46-17.6-85.13-30.69-106.67-42.96"/><path class="cls-33" d="m1104.22,139.46c-26.33-47.78-79.41-63.77-120.6-59.01-36.16,4.17-73.24,22.74-113.13,40.07-48.39,21.02-88.89,31.87-133.73,37.28-3.78.46-7.6.88-11.47,1.24-37.72,3.52-77.19-1.93-114.68-16.79-3.18-1.26-6.35-2.56-9.5-3.92-21.92-9.4-42.44-20.47-62.63-28.54-8.74-3.49-17.46-7-26.45-8.79-26.54-5.28-30.28-1.58-59.1-1.56-20.88.02-45.13,1.63-69.83,10.79-42.52,15.78-80.86,47.31-111.88,59.28-11.52,4.44-23.11,6.27-35.08,7.69-27.77,3.29-57.46-3.03-93.64-12.66-14.41-3.83-27.83-9.26-40.7-13.95-49.22-17.94-84.83-31.85-106.56-44.89"/><path class="cls-43" d="m1104.25,141.01c-26.38-48.78-79.9-65.45-121.17-60.88-36.36,4.03-73.57,22.7-113.51,40.24-48.22,21.19-88.72,32.52-133.51,38.26-3.78.48-7.6.93-11.46,1.32-37.7,3.77-77.19-1.48-114.65-16.43-3.17-1.27-6.34-2.58-9.48-3.94-21.87-9.47-42.32-20.72-62.45-29.01-8.72-3.59-17.42-7.19-26.4-9.09-26.43-5.59-30.62-2.28-59.34-2.43-20.93-.11-45.15,1.45-69.79,10.67-42.39,15.86-80.45,47.71-111.5,60.13-11.49,4.6-23.09,6.61-35.07,8.15-27.81,3.58-57.56-2.65-93.62-12.39-14.38-3.88-27.77-9.37-40.62-14.17C52.71,133.16,17.15,118.43-4.76,104.63"/><path class="cls-42" d="m1104.28,142.56c-26.43-49.78-80.39-67.13-121.74-62.74-36.56,3.88-73.91,22.65-113.88,40.42-48.05,21.36-88.54,33.18-133.3,39.25-3.78.51-7.6.99-11.46,1.4-37.69,4.02-77.2-1.03-114.61-16.07-3.17-1.27-6.33-2.6-9.47-3.97-21.82-9.54-42.19-20.98-62.27-29.48-8.7-3.68-17.38-7.38-26.35-9.39-26.32-5.89-30.97-2.98-59.58-3.3-20.98-.24-45.16,1.28-69.75,10.55-42.26,15.94-80.03,48.1-111.12,60.99-11.46,4.75-23.07,6.94-35.05,8.61-27.85,3.87-57.67-2.27-93.6-12.12-14.35-3.93-27.7-9.49-40.53-14.4C52.84,133.68,17.34,118.13-4.76,103.56"/><path class="cls-41" d="m1104.31,144.1c-26.48-50.78-80.87-68.8-122.31-64.6-36.76,3.73-74.24,22.6-114.26,40.59-47.88,21.53-88.37,33.83-133.09,40.23-3.78.54-7.59,1.04-11.45,1.48-37.68,4.27-77.2-.57-114.58-15.71-3.16-1.28-6.31-2.61-9.45-4-21.77-9.62-42.07-21.24-62.09-29.95-8.68-3.78-17.33-7.56-26.3-9.68-26.21-6.2-31.32-3.67-59.82-4.17-21.03-.37-45.18,1.11-69.71,10.44-42.13,16.02-79.62,48.5-110.74,61.85-11.43,4.91-23.04,7.27-35.04,9.06-27.89,4.17-57.77-1.9-93.58-11.85-14.32-3.98-27.64-9.61-40.45-14.62C52.96,134.2,17.52,117.82-4.76,102.49"/><path class="cls-37" d="m1104.34,145.65c-26.53-51.78-81.36-70.48-122.87-66.47-36.96,3.58-74.58,22.55-114.63,40.77-47.71,21.7-88.2,34.48-132.88,41.22-3.77.57-7.59,1.1-11.45,1.56-37.67,4.53-77.2-.12-114.55-15.35-3.16-1.29-6.3-2.63-9.43-4.02-21.72-9.69-41.95-21.49-61.91-30.42-8.66-3.87-17.29-7.75-26.24-9.98-26.1-6.51-31.67-4.37-60.05-5.04-21.08-.5-45.19.94-69.67,10.32-42,16.09-79.21,48.89-110.36,62.71-11.41,5.06-23.02,7.61-35.02,9.52-27.93,4.46-57.87-1.52-93.56-11.58-14.28-4.03-27.58-9.73-40.37-14.85C53.09,134.72,17.71,117.52-4.76,101.42"/><path class="cls-38" d="m1104.37,147.2c-26.59-52.78-81.84-72.17-123.44-68.33-37.16,3.43-74.91,22.5-115.01,40.94-47.55,21.87-88.02,35.14-132.66,42.2-3.77.6-7.58,1.15-11.44,1.64-37.66,4.78-77.2.33-114.52-14.99-3.15-1.29-6.29-2.64-9.42-4.05-21.66-9.77-41.82-21.75-61.72-30.89-8.63-3.97-17.24-7.94-26.19-10.28-25.99-6.81-32.01-5.07-60.29-5.91-21.13-.63-45.21.76-69.64,10.2-41.87,16.17-78.8,49.28-109.98,63.57-11.38,5.21-23,7.94-35.01,9.98-27.97,4.75-57.98-1.14-93.53-11.31-14.25-4.08-27.52-9.84-40.29-15.07C53.22,135.24,17.9,117.22-4.76,100.35"/><path class="cls-54" d="m1104.39,148.75c-26.64-53.78-82.33-73.85-124.01-70.19-37.36,3.27-75.25,22.45-115.38,41.12-47.38,22.03-87.85,35.79-132.45,43.19-3.77.63-7.58,1.21-11.43,1.72-37.65,5.03-77.21.78-114.48-14.62-3.15-1.3-6.28-2.66-9.4-4.08-21.61-9.84-41.7-22-61.54-31.36-8.61-4.06-17.2-8.13-26.14-10.58-25.88-7.11-32.36-5.77-60.53-6.78-21.18-.76-45.22.59-69.6,10.08-41.73,16.25-78.4,49.67-109.6,64.43-11.35,5.37-22.98,8.27-34.99,10.44-28.01,5.04-58.08-.76-93.51-11.04-14.22-4.13-27.46-9.96-40.21-15.3C53.34,135.76,18.08,116.92-4.76,99.29"/><path class="cls-78" d="m1104.42,150.3c-26.69-54.78-82.81-75.53-124.58-72.06-37.56,3.12-75.59,22.4-115.76,41.29-47.21,22.2-87.67,36.44-132.24,44.17-3.77.65-7.58,1.26-11.43,1.8-37.64,5.28-77.21,1.23-114.45-14.26-3.14-1.31-6.27-2.68-9.38-4.11-21.56-9.91-41.58-22.26-61.36-31.83-8.59-4.15-17.16-8.31-26.08-10.88-25.77-7.42-32.71-6.47-60.77-7.65-21.22-.89-45.24.42-69.56,9.96-41.6,16.32-77.99,50.06-109.23,65.29-11.33,5.52-22.95,8.61-34.98,10.89-28.05,5.33-58.18-.38-93.49-10.77-14.19-4.18-27.4-10.08-40.13-15.52C53.46,136.29,18.27,116.61-4.76,98.22"/><path class="cls-55" d="m1104.45,151.85c-26.74-55.77-83.3-77.21-125.14-73.92-37.76,2.97-75.93,22.35-116.13,41.47-47.05,22.37-87.5,37.1-132.03,45.15-3.77.68-7.57,1.32-11.42,1.88-37.63,5.53-77.21,1.69-114.42-13.9-3.14-1.31-6.26-2.69-9.37-4.13-21.51-9.99-41.45-22.51-61.18-32.3-8.57-4.25-17.11-8.5-26.03-11.18-25.66-7.72-33.05-7.17-61.01-8.52-21.27-1.03-45.25.25-69.52,9.84-41.47,16.4-77.59,50.45-108.85,66.15-11.3,5.68-22.93,8.94-34.96,11.35-28.08,5.63-58.29,0-93.47-10.5-14.15-4.22-27.35-10.19-40.04-15.75C53.59,136.81,18.45,116.31-4.76,97.15"/><path class="cls-51" d="m1104.48,153.4c-26.8-56.77-83.78-78.89-125.71-75.78-37.95,2.81-76.26,22.3-116.51,41.64-46.88,22.53-87.32,37.75-131.81,46.14-3.77.71-7.57,1.37-11.42,1.96-37.61,5.79-77.22,2.14-114.39-13.54-3.13-1.32-6.25-2.71-9.35-4.16-21.46-10.06-41.33-22.77-61-32.77-8.55-4.34-17.07-8.68-25.98-11.48-25.55-8.02-33.4-7.87-61.25-9.39-21.32-1.16-45.27.07-69.48,9.73-41.34,16.48-77.19,50.84-108.47,67.01-11.28,5.83-22.91,9.27-34.95,11.81-28.12,5.92-58.39.37-93.44-10.23-14.12-4.27-27.29-10.31-39.96-15.97C53.71,137.34,18.64,116.01-4.76,96.08"/><path class="cls-52" d="m1104.51,154.95c-26.85-57.77-84.27-80.58-126.28-77.65-38.15,2.66-76.6,22.25-116.88,41.82-46.71,22.7-87.15,38.41-131.6,47.12-3.76.74-7.57,1.43-11.41,2.04-37.6,6.04-77.22,2.59-114.36-13.18-3.13-1.33-6.24-2.72-9.33-4.19-21.41-10.14-41.2-23.03-60.82-33.24-8.52-4.44-17.03-8.87-25.92-11.78-25.44-8.32-33.74-8.58-61.49-10.26-21.37-1.3-45.28-.1-69.45,9.61-41.21,16.55-76.79,51.23-108.09,67.86-11.26,5.98-22.88,9.61-34.93,12.26-28.16,6.21-58.49.75-93.42-9.96-14.09-4.32-27.23-10.42-39.88-16.19C53.83,137.86,18.82,115.71-4.76,95.01"/><path class="cls-22" d="m1104.54,156.5c-26.9-58.77-84.75-82.26-126.85-79.51-38.35,2.5-76.94,22.19-117.26,41.99-46.55,22.86-86.97,39.06-131.39,48.11-3.76.77-7.56,1.48-11.41,2.13-37.59,6.29-77.22,3.04-114.32-12.82-3.12-1.33-6.23-2.74-9.32-4.22-21.36-10.21-41.08-23.28-60.63-33.71-8.5-4.53-16.99-9.06-25.87-12.08-25.34-8.62-34.09-9.28-61.73-11.13-21.41-1.43-45.3-.27-69.41,9.49-41.08,16.63-76.39,51.62-107.71,68.72-11.23,6.13-22.86,9.94-34.92,12.72-28.2,6.5-58.59,1.13-93.4-9.69-14.06-4.37-27.17-10.54-39.8-16.42C53.95,138.39,19.01,115.4-4.76,93.94"/><path class="cls-23" d="m1104.57,158.05c-26.95-59.77-85.24-83.94-127.42-81.37-38.55,2.35-77.28,22.14-117.63,42.16-46.39,23.03-86.8,39.72-131.18,49.09-3.76.79-7.56,1.54-11.4,2.21-37.58,6.54-77.22,3.5-114.29-12.45-3.12-1.34-6.22-2.75-9.3-4.24-21.3-10.28-40.96-23.54-60.45-34.18-8.48-4.63-16.95-9.24-25.82-12.38-25.23-8.92-34.43-9.99-61.97-12-21.46-1.57-45.31-.44-69.37,9.37-40.95,16.7-76,52.01-107.33,69.58-11.21,6.29-22.84,10.27-34.9,13.18-28.24,6.8-58.7,1.51-93.38-9.42-14.03-4.42-27.11-10.65-39.72-16.64C54.07,138.92,19.19,115.1-4.76,92.88"/><path class="cls-34" d="m1104.6,159.6c-27-60.77-85.72-85.63-127.98-83.24-38.75,2.19-77.62,22.08-118,42.34-46.22,23.19-86.62,40.37-130.96,50.07-3.76.82-7.56,1.59-11.39,2.29-37.57,6.8-77.23,3.95-114.26-12.09-3.11-1.35-6.21-2.77-9.28-4.27-21.25-10.36-40.83-23.79-60.27-34.65-8.46-4.72-16.9-9.43-25.76-12.68-25.13-9.22-34.78-10.69-62.21-12.87-21.51-1.71-45.33-.62-69.33,9.25-40.82,16.78-75.6,52.39-106.95,70.44-11.19,6.44-22.81,10.61-34.89,13.64-28.27,7.09-58.8,1.88-93.36-9.15-13.99-4.47-27.05-10.77-39.64-16.87C54.19,139.45,19.38,114.8-4.76,91.81"/><path class="cls-20" d="m1104.63,161.15c-27.06-61.77-86.2-87.31-128.55-85.1-38.94,2.04-77.97,22.03-118.38,42.51-46.06,23.35-86.45,41.03-130.75,51.06-3.76.85-7.55,1.65-11.39,2.37-37.56,7.05-77.23,4.4-114.23-11.73-3.11-1.35-6.2-2.79-9.27-4.3-21.2-10.43-40.71-24.05-60.09-35.12-8.44-4.82-16.86-9.61-25.71-12.98-25.03-9.52-35.12-11.4-62.45-13.74-21.55-1.85-45.34-.79-69.3,9.13-40.69,16.86-75.21,52.78-106.57,71.3-11.17,6.59-22.79,10.94-34.87,14.09-28.31,7.38-58.9,2.26-93.33-8.89-13.96-4.52-27-10.88-39.55-17.09C54.3,139.97,19.56,114.49-4.76,90.74"/><path class="cls-21" d="m1104.66,162.7c-27.11-62.77-86.69-89-129.12-86.96-39.14,1.88-78.31,21.97-118.75,42.69-45.9,23.51-86.27,41.68-130.54,52.04-3.76.88-7.55,1.7-11.38,2.45-37.55,7.3-77.23,4.86-114.19-11.37-3.1-1.36-6.19-2.8-9.25-4.32-21.15-10.51-40.58-24.31-59.91-35.59-8.41-4.91-16.82-9.79-25.66-13.28-24.92-9.82-35.46-12.11-62.69-14.61-21.6-1.99-45.36-.96-69.26,9.01-40.56,16.93-74.82,53.17-106.19,72.16-11.15,6.75-22.77,11.28-34.86,14.55-28.35,7.68-59,2.64-93.31-8.62-13.93-4.57-26.94-10.99-39.47-17.32C54.42,140.51,19.75,114.19-4.76,89.67"/><path class="cls-36" d="m1104.69,164.25c-27.16-63.77-87.17-90.69-129.69-88.83-39.34,1.72-78.65,21.91-119.13,42.86-45.74,23.67-86.1,42.33-130.33,53.03-3.75.91-7.55,1.76-11.38,2.53-37.53,7.56-77.24,5.31-114.16-11.01-3.1-1.37-6.18-2.82-9.23-4.35-21.1-10.58-40.46-24.56-59.72-36.05-8.39-5.01-16.78-9.98-25.61-13.57-24.82-10.12-35.81-12.81-62.93-15.48-21.65-2.13-45.37-1.13-69.22,8.9-40.43,17.01-74.43,53.55-105.81,73.02-11.12,6.9-22.74,11.61-34.84,15.01-28.39,7.97-59.11,3.01-93.29-8.35-13.89-4.62-26.88-11.11-39.39-17.54C54.53,141.04,19.93,113.89-4.76,88.6"/><path class="cls-45" d="m1104.72,165.8c-27.21-64.77-87.65-92.37-130.26-90.69-39.54,1.56-79,21.85-119.5,43.04-45.58,23.83-85.92,42.99-130.11,54.01-3.75.94-7.54,1.81-11.37,2.61-37.52,7.81-77.24,5.76-114.13-10.65-3.09-1.37-6.16-2.83-9.22-4.38-21.05-10.65-40.34-24.82-59.54-36.52-8.37-5.1-16.74-10.16-25.55-13.87-24.72-10.41-36.15-13.52-63.17-16.35-21.69-2.27-45.39-1.31-69.18,8.78-40.3,17.08-74.04,53.94-105.43,73.88-11.11,7.05-22.72,11.94-34.83,15.46-28.42,8.27-59.21,3.39-93.27-8.08-13.86-4.67-26.82-11.22-39.31-17.77C54.65,141.57,20.12,113.59-4.76,87.53"/><path class="cls-40" d="m1104.75,167.35c-27.27-65.77-88.13-94.06-130.82-92.55-39.73,1.4-79.34,21.79-119.88,43.21-45.42,24-85.74,43.65-129.9,54.99-3.75.96-7.54,1.87-11.37,2.69-37.51,8.06-77.24,6.21-114.1-10.29-3.09-1.38-6.15-2.85-9.2-4.41-21-10.73-40.21-25.07-59.36-36.99-8.35-5.2-16.7-10.35-25.5-14.17-24.62-10.71-36.49-14.23-63.41-17.22-21.74-2.41-45.4-1.48-69.14,8.66-40.17,17.16-73.65,54.33-105.05,74.73-11.09,7.21-22.7,12.28-34.81,15.92-28.46,8.56-59.31,3.77-93.25-7.81-13.83-4.72-26.77-11.33-39.23-17.99C54.76,142.1,20.3,113.28-4.76,86.46"/><path class="cls-39" d="m1104.78,168.9c-27.32-66.76-88.61-95.75-131.39-94.42-39.93,1.24-79.69,21.73-120.25,43.39-45.26,24.15-85.57,44.3-129.69,55.98-3.75.99-7.53,1.92-11.36,2.77-37.5,8.32-77.25,6.67-114.07-9.92-3.08-1.39-6.14-2.86-9.18-4.43-20.95-10.8-40.09-25.33-59.18-37.46-8.32-5.29-16.66-10.53-25.45-14.47-24.52-11.01-36.83-14.94-63.65-18.09-21.78-2.56-45.42-1.65-69.11,8.54-40.04,17.23-73.27,54.71-104.67,75.59-11.07,7.36-22.67,12.61-34.8,16.38-28.5,8.85-59.41,4.14-93.22-7.54-13.8-4.77-26.71-11.45-39.15-18.22C54.87,142.63,20.49,112.98-4.76,85.4"/><path class="cls-66" d="m1104.81,170.45c-27.37-67.76-89.1-97.43-131.96-96.28-40.13,1.08-80.03,21.67-120.63,43.56-45.1,24.31-85.39,44.96-129.48,56.96-3.75,1.02-7.53,1.98-11.35,2.85-37.49,8.57-77.25,7.12-114.03-9.56-3.08-1.39-6.13-2.88-9.17-4.46-20.9-10.87-39.96-25.59-59-37.93-8.3-5.39-16.62-10.71-25.39-14.77-24.42-11.3-37.17-15.65-63.89-18.96-21.82-2.7-45.44-1.83-69.07,8.42-39.91,17.31-72.88,55.1-104.29,76.45-11.05,7.51-22.65,12.95-34.78,16.84-28.53,9.15-59.51,4.52-93.2-7.27-13.76-4.82-26.66-11.56-39.06-18.44C54.98,143.17,20.67,112.68-4.76,84.33"/><path class="cls-67" d="m1104.84,172c-27.42-68.76-89.58-99.12-132.53-98.14-40.32.92-80.38,21.61-121,43.74-44.94,24.47-85.22,45.61-129.26,57.95-3.75,1.05-7.53,2.03-11.35,2.93-37.48,8.82-77.25,7.57-114-9.2-3.07-1.4-6.12-2.9-9.15-4.49-20.84-10.95-39.84-25.84-58.81-38.4-8.28-5.48-16.59-10.9-25.34-15.07-24.33-11.6-37.51-16.37-64.13-19.83-21.87-2.85-45.45-2-69.03,8.3-39.78,17.39-72.5,55.48-103.91,77.31-11.03,7.67-22.62,13.28-34.77,17.29-28.57,9.44-59.62,4.9-93.18-7-13.73-4.87-26.6-11.67-38.98-18.66C55.09,143.7,20.86,112.38-4.76,83.26"/><path class="cls-65" d="m1104.86,173.55c-27.48-69.76-90.06-100.81-133.1-100.01-40.52.76-80.72,21.55-121.38,43.91-44.78,24.63-85.04,46.27-129.05,58.93-3.74,1.08-7.52,2.09-11.34,3.01-37.46,9.07-77.26,8.03-113.97-8.84-3.07-1.41-6.11-2.91-9.13-4.51-20.79-11.02-39.71-26.1-58.63-38.87-8.26-5.57-16.55-11.08-25.29-15.37-24.23-11.9-37.85-17.08-64.37-20.7-21.91-2.99-45.47-2.17-68.99,8.19-39.65,17.46-72.12,55.87-103.53,78.17-11.01,7.82-22.6,13.61-34.75,17.75-28.6,9.74-59.72,5.27-93.16-6.73-13.7-4.92-26.55-11.78-38.9-18.89C55.2,144.23,21.04,112.07-4.76,82.19"/><path class="cls-80" d="m1104.89,175.09c-27.53-70.76-90.54-102.5-133.66-101.87-40.71.59-81.07,21.49-121.75,44.09-44.63,24.79-84.86,46.92-128.84,59.91-3.74,1.11-7.52,2.14-11.34,3.09-37.45,9.33-77.26,8.48-113.94-8.48-3.06-1.41-6.1-2.93-9.12-4.54-20.74-11.09-39.59-26.36-58.45-39.34-8.23-5.67-16.51-11.26-25.23-15.67-24.14-12.19-38.19-17.79-64.61-21.57-21.95-3.14-45.48-2.35-68.96,8.07-39.52,17.54-71.74,56.25-103.15,79.03-11,7.97-22.58,13.95-34.74,18.21-28.64,10.03-59.82,5.65-93.13-6.46-13.67-4.97-26.49-11.9-38.82-19.11C55.3,144.77,21.23,111.77-4.76,81.12"/><path class="cls-79" d="m1104.92,176.64c-27.58-71.76-91.02-104.19-134.23-103.73-40.91.43-81.42,21.43-122.13,44.26-44.47,24.95-84.69,47.58-128.63,60.9-3.74,1.13-7.52,2.2-11.33,3.17-37.44,9.58-77.26,8.93-113.91-8.12-3.06-1.42-6.09-2.94-9.1-4.57-20.69-11.17-39.46-26.61-58.27-39.81-8.21-5.76-16.47-11.45-25.18-15.97-24.04-12.49-38.52-18.51-64.85-22.44-21.99-3.29-45.5-2.52-68.92,7.95-39.39,17.61-71.36,56.64-102.77,79.89-10.98,8.13-22.55,14.28-34.72,18.67-28.68,10.33-59.92,6.02-93.11-6.19-13.63-5.02-26.44-12.01-38.74-19.34C55.41,145.3,21.41,111.47-4.76,80.05"/><path class="cls-85" d="m1104.95,178.19c-27.63-72.76-91.5-105.88-134.8-105.6-41.1.27-81.77,21.36-122.5,44.43-44.32,25.1-84.51,48.23-128.41,61.88-3.74,1.16-7.51,2.26-11.32,3.26-37.41,9.91-77.27,9.39-113.87-7.75-3.05-1.43-6.08-2.96-9.09-4.6-20.64-11.24-39.34-26.87-58.09-40.28-8.19-5.86-16.43-11.63-25.13-16.27-23.95-12.78-38.86-19.22-65.09-23.31-22.04-3.44-45.51-2.69-68.88,7.83-39.26,17.69-70.98,57.03-102.39,80.75-10.97,8.28-22.53,14.62-34.7,19.12-28.71,10.62-60.02,6.4-93.09-5.92-13.6-5.07-26.38-12.12-38.66-19.56C55.51,145.84,21.6,111.17-4.76,78.98"/><path class="cls-86" d="m1104.98,179.74c-27.68-73.76-91.98-107.57-135.37-107.46-41.3.1-82.12,21.3-122.88,44.61-44.16,25.26-84.33,48.89-128.2,62.87-3.74,1.19-7.51,2.32-11.32,3.34-37.4,10.16-77.27,9.84-113.84-7.39-3.04-1.43-6.07-2.97-9.07-4.62-20.59-11.31-39.21-27.13-57.9-40.75-8.17-5.95-16.4-11.81-25.07-16.57-23.86-13.08-39.2-19.93-65.33-24.18-22.08-3.59-45.53-2.87-68.84,7.71-39.13,17.76-70.61,57.41-102.02,81.61-10.95,8.43-22.5,14.95-34.69,19.58-28.75,10.91-60.12,6.77-93.07-5.65-13.57-5.12-26.33-12.23-38.57-19.79C55.62,146.38,21.78,110.86-4.76,77.92"/><path class="cls-72" d="m1105.01,181.29c-27.74-74.76-92.46-109.26-135.93-109.32s-82.47,21.23-123.25,44.78c-44.01,25.42-84.16,49.55-127.99,63.85-3.73,1.22-7.5,2.37-11.31,3.42-37.38,10.41-77.31,10.36-113.81-7.03-3.04-1.44-6.06-2.99-9.05-4.65-20.54-11.39-39.09-27.38-57.72-41.22-8.14-6.05-16.36-11.99-25.02-16.87-23.77-13.37-39.53-20.65-65.57-25.05-22.12-3.74-45.55-3.04-68.8,7.59-39,17.84-70.23,57.8-101.64,82.46-10.94,8.59-22.48,15.29-34.67,20.04-28.78,11.21-60.22,7.15-93.05-5.38-13.53-5.17-26.28-12.34-38.49-20.01C55.72,146.91,21.97,110.56-4.76,76.85"/><path class="cls-62" d="m1105.04,182.84c-27.79-75.76-92.93-110.95-136.5-111.19s-82.82,21.16-123.63,44.96c-43.86,25.57-83.98,50.2-127.78,64.84-3.73,1.25-7.5,2.43-11.31,3.5-37.37,10.66-77.31,10.82-113.78-6.67-3.04-1.44-6.05-3.01-9.04-4.68-20.49-11.46-38.96-27.64-57.54-41.69-8.12-6.14-16.32-12.18-24.97-17.17-23.68-13.67-39.87-21.37-65.81-25.92-22.16-3.89-45.56-3.22-68.77,7.48-38.88,17.91-69.86,58.19-101.26,83.32-10.92,8.74-22.45,15.62-34.66,20.49-28.82,11.5-60.33,7.52-93.02-5.11-13.5-5.22-26.22-12.45-38.41-20.24C55.82,147.45,22.15,110.26-4.76,75.78"/><path class="cls-63" d="m1105.07,184.39c-27.84-76.76-93.41-112.64-137.07-113.05-41.88-.39-83.18,21.1-124,45.13-43.7,25.73-83.8,50.86-127.56,65.82-3.73,1.28-7.5,2.48-11.3,3.58-37.36,10.91-77.31,11.27-113.74-6.31-3.03-1.45-6.04-3.02-9.02-4.7-20.46-11.5-38.84-27.89-57.36-42.16-8.1-6.24-16.29-12.36-24.91-17.46-23.59-13.96-40.2-22.08-66.05-26.8-22.2-4.05-45.58-3.39-68.73,7.36-38.75,17.98-69.49,58.57-100.88,84.18-10.91,8.9-22.43,15.96-34.64,20.95-28.85,11.8-60.43,7.9-93-4.84-13.47-5.27-26.17-12.56-38.33-20.46C55.92,147.99,22.34,109.95-4.76,74.71"/><path class="cls-47" d="m1105.1,185.94c-27.89-77.76-93.89-114.34-137.64-114.91-42.07-.56-83.53,21.03-124.38,45.31-43.55,25.88-83.63,51.51-127.35,66.8-3.73,1.3-7.49,2.54-11.3,3.66-37.35,11.16-77.32,11.72-113.71-5.95-3.03-1.46-6.03-3.03-9-4.73-20.41-11.57-38.71-28.15-57.18-42.63-8.08-6.33-16.25-12.54-24.86-17.76-23.5-14.26-40.54-22.8-66.29-27.67-22.23-4.2-45.59-3.56-68.69,7.24-38.62,18.06-69.11,58.96-100.5,85.04-10.89,9.05-22.4,16.29-34.63,21.41-28.89,12.09-60.53,8.27-92.98-4.57-13.43-5.32-26.12-12.67-38.25-20.69C56.02,148.52,22.52,109.65-4.76,73.64"/><path class="cls-46" d="m1105.13,187.49c-27.95-78.75-94.37-116.03-138.21-116.78-42.27-.72-83.88,20.96-124.75,45.48-43.4,26.04-83.45,52.17-127.14,67.79-3.73,1.33-7.49,2.59-11.29,3.74-37.34,11.41-77.32,12.17-113.68-5.59-3.02-1.46-6.02-3.05-8.99-4.76-20.36-11.65-38.59-28.41-56.99-43.1-8.05-6.43-16.22-12.72-24.81-18.06-23.41-14.55-40.87-23.52-66.53-28.54-22.27-4.35-45.61-3.74-68.65,7.12-38.49,18.13-68.74,59.35-100.12,85.9-10.88,9.21-22.38,16.62-34.61,21.87-28.92,12.39-60.63,8.65-92.96-4.3-13.4-5.37-26.07-12.79-38.16-20.91C56.11,149.06,22.71,109.35-4.76,72.57"/><path class="cls-50" d="m1105.16,189.04c-28-79.75-94.85-117.72-138.77-118.64-42.46-.89-84.24,20.89-125.13,45.66-43.25,26.19-83.27,52.83-126.93,68.77-3.73,1.36-7.49,2.65-11.28,3.82-37.33,11.66-77.32,12.62-113.65-5.22-3.02-1.47-6.01-3.06-8.97-4.79-20.3-11.72-38.46-28.66-56.81-43.57-8.03-6.52-16.18-12.91-24.76-18.36-23.33-14.85-41.2-24.24-66.77-29.41-22.31-4.51-45.63-3.91-68.61,7-38.36,18.21-68.37,59.74-99.74,86.76-10.87,9.36-22.35,16.96-34.6,22.32-28.95,12.68-60.73,9.02-92.93-4.03-13.37-5.42-26.02-12.9-38.08-21.13C56.21,149.6,22.9,109.05-4.76,71.51"/><path class="cls-49" d="m1105.19,190.59c-28.05-80.75-95.32-119.41-139.34-120.5-42.65-1.06-84.59,20.82-125.5,45.83-43.1,26.35-83.1,53.48-126.71,69.76-3.72,1.39-7.48,2.7-11.28,3.9-37.31,11.91-77.32,13.07-113.62-4.86-3.01-1.48-6-3.08-8.95-4.81-20.25-11.8-38.34-28.92-56.63-44.04-8.01-6.62-16.15-13.09-24.7-18.66-23.24-15.14-41.53-24.96-67.01-30.28-22.35-4.67-45.64-4.08-68.58,6.88-38.23,18.28-68,60.12-99.36,87.62-10.85,9.52-22.33,17.29-34.58,22.78-28.99,12.98-60.83,9.4-92.91-3.76-13.33-5.47-25.96-13.01-38-21.36C56.3,150.14,23.08,108.74-4.76,70.44"/><path class="cls-35" d="m1105.22,192.14c-28.1-81.75-95.8-121.11-139.91-122.37-42.85-1.23-84.95,20.75-125.88,46.01-42.95,26.5-82.89,54.22-126.5,70.74-3.72,1.42-7.48,2.76-11.27,3.98-37.3,12.16-77.33,13.52-113.58-4.5-3.01-1.48-5.99-3.1-8.94-4.84-20.2-11.87-38.21-29.18-56.45-44.51-7.98-6.71-16.11-13.27-24.65-18.96-23.16-15.44-41.86-25.67-67.25-31.15-22.38-4.82-45.66-4.26-68.54,6.76-38.1,18.36-67.64,60.51-98.98,88.48-10.84,9.67-22.3,17.63-34.57,23.24-29.02,13.27-60.93,9.77-92.89-3.49-13.3-5.52-25.91-13.12-37.92-21.58C56.4,150.67,23.27,108.44-4.76,69.37"/><path class="cls-48" d="m1105.25,193.69c-28.15-82.75-96.28-122.8-140.48-124.23-43.04-1.39-85.31,20.68-126.25,46.18-42.81,26.66-82.71,54.87-126.29,71.72-3.72,1.45-7.47,2.81-11.27,4.06-37.29,12.41-77.33,13.97-113.55-4.14-3-1.49-5.98-3.11-8.92-4.87-20.15-11.95-38.05-29.47-56.27-44.98-7.95-6.82-16.08-13.45-24.6-19.26-23.07-15.73-42.19-26.39-67.49-32.02-22.42-4.98-45.7-4.48-68.5,6.65-38.01,18.36-67.27,60.9-98.6,89.34-10.83,9.83-22.28,17.96-34.55,23.69-29.05,13.57-61.03,10.15-92.87-3.22-13.27-5.57-25.86-13.23-37.84-21.81C56.49,151.21,23.45,108.14-4.76,68.3"/><path class="cls-44" d="m1105.28,195.24c-28.21-83.75-96.75-124.49-141.05-126.09s-85.67,20.61-126.63,46.36c-42.66,26.81-82.54,55.52-126.08,72.71-3.72,1.48-7.47,2.86-11.26,4.14-37.28,12.66-77.33,14.42-113.52-3.78-3-1.5-5.96-3.13-8.9-4.89-20.1-12.02-37.93-29.72-56.09-45.45-7.93-6.92-16.05-13.63-24.54-19.56-22.99-16.03-42.52-27.11-67.73-32.89-22.45-5.14-45.71-4.65-68.46,6.53-37.88,18.44-66.9,61.29-98.22,90.19-10.82,9.99-22.25,18.3-34.54,24.15-29.09,13.86-61.13,10.52-92.85-2.95-13.23-5.62-25.81-13.34-37.76-22.03C56.58,151.75,23.64,107.84-4.76,67.23"/><path class="cls-68" d="m1105.31,196.79c-28.26-84.75-97.23-126.19-141.61-127.96s-86.02,20.54-127,46.53-82.36,56.17-125.86,73.69c-3.71,1.51-7.47,2.92-11.26,4.22-37.27,12.91-77.33,14.87-113.49-3.42-2.99-1.5-5.95-3.14-8.89-4.92-20.05-12.1-37.81-29.97-55.9-45.92-7.9-7.01-16.01-13.82-24.49-19.86-22.91-16.33-42.85-27.83-67.97-33.76-22.49-5.3-45.73-4.82-68.43,6.41-37.75,18.52-66.54,61.68-97.84,91.05-10.81,10.14-22.23,18.63-34.52,24.61-29.12,14.16-61.23,10.89-92.82-2.68-13.2-5.67-25.76-13.45-37.67-22.26C56.67,152.29,23.82,107.53-4.76,66.16"/><path class="cls-56" d="m1105.34,198.34c-28.31-85.75-97.7-127.88-142.18-129.82-43.62-1.9-86.38,20.47-127.37,46.7-42.37,27.12-82.18,56.82-125.65,74.68-3.71,1.54-7.46,2.97-11.25,4.31-37.25,13.16-77.34,15.32-113.45-3.05-2.98-1.51-5.94-3.16-8.87-4.95-19.99-12.17-37.68-30.23-55.72-46.39-7.88-7.1-15.98-14-24.44-20.16-22.83-16.62-43.18-28.56-68.21-34.63-22.52-5.46-45.74-4.99-68.39,6.29-37.61,18.6-66.18,62.07-97.46,91.91-10.8,10.3-22.2,18.97-34.51,25.07-29.15,14.45-61.33,11.27-92.8-2.42-13.17-5.72-25.72-13.56-37.59-22.48C56.76,152.83,24.01,107.23-4.76,65.09"/><path class="cls-135" d="m1105.36,199.89c-28.36-86.75-98.18-129.57-142.75-131.68s-86.74,20.39-127.75,46.88c-42.22,27.27-82.01,57.47-125.44,75.66-3.71,1.56-7.46,3.03-11.24,4.39-37.24,13.42-77.34,15.77-113.42-2.69-2.98-1.52-5.93-3.17-8.85-4.98-19.94-12.25-37.56-30.48-55.54-46.86-7.86-7.2-15.95-14.18-24.38-20.46-22.75-16.92-43.5-29.28-68.45-35.5-22.55-5.62-45.75-5.16-68.35,6.17-37.48,18.68-65.81,62.46-97.08,92.77-10.79,10.45-22.18,19.3-34.49,25.52-29.19,14.75-61.43,11.64-92.78-2.15-13.13-5.77-25.67-13.67-37.51-22.71C56.85,153.36,24.19,106.93-4.76,64.03"/><path class="cls-132" d="m1105.39,201.44c-28.42-87.75-98.65-131.27-143.32-133.55-44-2.24-87.11,20.32-128.12,47.05-42.08,27.42-81.83,58.12-125.23,76.64-3.71,1.59-7.46,3.08-11.24,4.47-37.23,13.67-77.34,16.22-113.39-2.33-2.97-1.53-5.92-3.19-8.84-5-19.89-12.32-37.43-30.73-55.36-47.33-7.84-7.29-15.91-14.36-24.33-20.76-22.67-17.21-43.83-30-68.69-36.37-22.58-5.79-45.77-5.33-68.31,6.05-37.35,18.75-65.45,62.86-96.7,93.63-10.78,10.61-22.15,19.64-34.48,25.98-29.22,15.04-61.53,12.01-92.76-1.88-13.1-5.83-25.62-13.77-37.43-22.93C56.93,153.9,24.38,106.63-4.76,62.96"/><path class="cls-134" d="m1105.42,202.99c-28.47-88.75-99.13-132.96-143.89-135.41-44.19-2.42-87.47,20.25-128.5,47.23s-81.66,58.77-125.01,77.63c-3.71,1.62-7.45,3.14-11.23,4.55-37.22,13.92-77.34,16.67-113.36-1.97-2.97-1.53-5.91-3.21-8.82-5.03-19.84-12.4-37.31-30.99-55.18-47.8-7.81-7.38-15.88-14.55-24.28-21.06-22.59-17.51-44.15-30.72-68.93-37.24-22.61-5.95-45.78-5.5-68.27,5.94-37.22,18.83-65.09,63.25-96.32,94.49-10.77,10.77-22.11,19.99-34.46,26.44-29.22,15.39-61.6,12.33-92.74-1.61-13.05-5.9-25.57-13.88-37.35-23.16C57.02,154.44,24.56,106.32-4.76,61.89"/><path class="cls-133" d="m1105.45,204.54c-28.52-89.75-99.6-134.66-144.45-137.27-44.38-2.59-87.83,20.17-128.87,47.4-41.79,27.73-81.48,59.42-124.8,78.61-3.7,1.65-7.45,3.19-11.23,4.63-37.21,14.17-77.34,17.12-113.33-1.61-2.96-1.54-5.9-3.22-8.8-5.06-19.79-12.47-37.19-31.24-54.99-48.27-7.79-7.48-15.85-14.73-24.22-21.35-22.51-17.81-44.48-31.44-69.17-38.11-22.65-6.11-45.8-5.67-68.24,5.82-37.09,18.91-64.73,63.64-95.94,95.35-10.76,10.93-22.09,20.32-34.45,26.9-29.26,15.68-61.7,12.71-92.71-1.34-13.02-5.95-25.52-13.99-37.27-23.38C57.1,154.98,24.75,106.02-4.76,60.82"/><path class="cls-131" d="m1105.48,206.09c-28.57-90.74-100.07-136.35-145.02-139.14-44.57-2.76-88.2,20.1-129.25,47.58-41.65,27.88-81.3,60.07-124.59,79.6-3.7,1.68-7.45,3.25-11.22,4.71-37.2,14.42-77.35,17.57-113.29-1.25-2.96-1.55-5.89-3.24-8.79-5.09-19.74-12.55-37.06-31.49-54.81-48.74-7.77-7.57-15.82-14.91-24.17-21.65-22.43-18.11-44.8-32.17-69.41-38.98-22.68-6.28-45.81-5.84-68.2,5.7-36.96,18.99-64.37,64.03-95.56,96.21-10.75,11.08-22.07,20.65-34.43,27.35-29.3,15.96-61.81,13.09-92.69-1.07-12.99-5.99-25.48-14.1-37.18-23.61C57.18,155.52,24.93,105.72-4.76,59.75"/><path class="cls-15" d="m1105.51,207.63c-28.62-91.74-100.55-138.05-145.59-141s-88.56,20.02-129.62,47.75c-41.51,28.03-81.13,60.72-124.38,80.58-3.7,1.7-7.44,3.3-11.22,4.79-37.18,14.67-77.35,18.02-113.26-.89-2.95-1.55-5.88-3.25-8.77-5.11-19.68-12.62-36.94-31.75-54.63-49.21-7.75-7.66-15.79-15.09-24.12-21.95-22.36-18.4-45.12-32.89-69.65-39.85-22.7-6.44-45.83-6.01-68.16,5.58-36.83,19.07-64.01,64.43-95.18,97.07-10.74,11.24-22.04,20.98-34.42,27.81-29.33,16.25-61.91,13.48-92.67-.8-12.96-6.04-25.43-14.21-37.1-23.83C57.26,156.05,25.12,105.42-4.76,58.68"/><path class="cls-16" d="m1105.54,209.18c-28.68-92.74-101.01-139.83-146.16-142.86-44.94-3.19-88.93,19.94-130,47.93-41.37,28.18-80.95,61.38-124.16,81.56-3.7,1.73-7.44,3.36-11.21,4.87-37.17,14.92-77.35,18.47-113.23-.52-2.95-1.56-5.87-3.27-8.75-5.14-19.63-12.7-36.82-32-54.45-49.68-7.73-7.76-15.76-15.28-24.07-22.25-22.28-18.7-45.44-33.61-69.89-40.72-22.73-6.61-45.84-6.19-68.12,5.46-36.7,19.15-63.65,64.82-94.81,97.92-10.73,11.4-22.02,21.31-34.4,28.27-29.37,16.54-62.01,13.86-92.65-.53-12.92-6.09-25.38-14.32-37.02-24.05C57.34,156.59,25.3,105.11-4.76,57.62"/><path class="cls-17" d="m1105.57,210.73c-28.73-93.74-101.49-141.48-146.73-144.73-45.14-3.32-89.33,19.82-130.37,48.1-41.26,28.29-80.78,62.03-123.95,82.55-3.7,1.76-7.43,3.41-11.2,4.95-37.16,15.17-77.35,18.93-113.2-.16-2.94-1.57-5.86-3.29-8.74-5.17-19.58-12.77-36.69-32.25-54.27-50.15-7.7-7.85-15.73-15.45-24.01-22.55-22.23-18.97-45.76-34.34-70.13-41.59-22.76-6.77-45.86-6.36-68.09,5.34-36.57,19.23-63.33,65.18-94.43,98.78-10.73,11.54-21.99,21.65-34.39,28.72-29.41,16.82-62.12,14.24-92.62-.26-12.89-6.14-25.35-14.42-36.94-24.28C57.38,157.18,25.49,104.81-4.76,56.55"/><path class="cls-18" d="m1105.6,212.28c-28.78-94.74-101.97-143.14-147.29-146.59-45.33-3.45-89.66,19.79-130.75,48.28-41.09,28.49-80.6,62.68-123.74,83.53-43.14,20.86-91.62,27.32-133.08.04-19.53-12.85-36.57-32.51-54.08-50.62-47.56-49.17-107.74-89.04-162.37-60.09-48.98,25.96-79.99,100.69-128.42,128.82-41.9,24.35-90.56,9.01-129.46-24.49C57.5,157.66,25.67,104.51-4.76,55.48"/></g></svg>