<?xml version="1.0" encoding="UTF-8"?><svg id="Layer_1" xmlns="http://www.w3.org/2000/svg" viewBox="0 0 1274.4 686.71"><defs><style>.cls-1{fill:#231f20;}</style></defs><path class="cls-1" d="m577.68,235.99h.02c4.74-1.3,8.73-4.05,12.09-8.43,3.36-4.38,6.08-10.21,8.36-17.8,2.29-7.6,4.03-16.61,5.08-27.08,1.6-15.92.83-28.09-1.88-36.05-2.71-7.94-6.89-11.08-11.85-9.58-3.24.97-6.14,3.81-8.63,8.4-2.51,4.62-4.82,10.92-7.11,18.92-2.29,8.02-4.45,17.5-6.48,28.25-3,16.02-4.21,27.73-2.88,35.32,1.34,7.6,6.2,9.97,13.26,8.04Z"/><path class="cls-1" d="m860.28,413.6c-10.7-3.75-14.27-4.96-23.17-7.76-3.32,22.5-5.94,44.94-8.78,67.51v.02c9.56,2.96,13.05,4.19,25.34,8.61,7.73,2.8,13.08,1.74,16.58-2.59,3.51-4.36,5.27-10.74,5.73-21.49.47-10.96-.32-19.06-2.6-27.34-2.29-8.28-6.38-14.58-13.11-16.95Z"/><path class="cls-1" d="m383.81,358.57c8.28-9.05,18.67-19.71,35.95-28.28,17.28-8.57,22.82-11.95,26.57-14.26,3.75-2.31,4.13-3.02-.24-2.39-6.12.89-9.24,1.3-15.57,2.03-34.83,13.23-62.8,29.37-84.84,59.89,7.9-.81,11.67-1.26,18.81-2.15,5.12-.63,11.02-5.77,19.32-14.85Z"/><path class="cls-1" d="m271.05,320.39c15.94-7.9,22.28-11.71,15.9-13.98-4.17-1.48-12.96-1.46-24.81-.14-11.85,1.32-23.33,3.83-47.86,8.83-24.04,4.9-50.31,13.97-65.25,32.27-20.6,25.2-27.16,60.16-30.28,93.39-1.54,16.33-2.25,31.27,6.34,38.2v.02c5.75,4.64,10.94,2.49,16.45-3.81,5.51-6.32,10.79-21.43,16.95-38.71,8.32-23.37,16.44-47.17,31.33-65.26,21.45-26.07,49.54-35.1,81.23-50.82Z"/><path class="cls-1" d="m486,309.23c-.06,0-.08,0-.14.02v.02c-53.4,24.48-78.91,53.52-96.93,106.38,6.01-.72,9.19-1.05,21.28-3.68,6.11-49.47,31.09-79.43,75.79-102.74Z"/><path class="cls-1" d="m897.48,294.45c-2.25-3.3-5.71-5.31-10.33-6.36-6.87-1.54-9.71-2.11-16.12-3.4-4.97,20.48-15.88,42.09-22.26,61.84h-.01c7.61,2.07,10.47,2.84,19.44,5.59,6.03,1.86,11.32-3.1,16.2-11.71,4.89-8.61,10.59-20.03,13.65-29.35,3.07-9.32,1.7-13.31-.57-16.61Z"/><path class="cls-1" d="m716.96,278.1c5.02-6.95,3.26-9.07-2.79-8.97-3.97.06-9.15,1.3-15.47,3.93-6.32,2.65-12.09,5.96-25.58,15.56-20.74,14.77-28.9,38.65-37.16,61.25-8.87,24.28-16.51,48.47-16.24,74.92.12,10.98,2.69,19.81,8.97,19.87v.02c4.21.04,8.75-3.5,13.49-9.4,4.74-5.91,9.22-15.76,14.18-27.18,7.64-17.62,13.85-37.71,20.52-55.84,10.96-29.79,22.48-49.72,40.1-74.15Z"/><path class="cls-1" d="m859.17,223.68c3.89,7.37,9.11,11.28,15.37,12.31l-.02-.02c4.19.69,7.57-.14,10.2-2.73,2.64-2.59,4.46-6.85,5.58-13.04,1.11-6.22,1.44-14.14.9-23.76-.79-14.6-3.22-26.33-7.17-34.39-3.95-8.06-9.01-11.89-15.03-12.05-3.92-.1-7.15,1.44-9.68,4.66-2.54,3.22-4.32,8-5.43,14.4-1.13,6.42-1.54,14.3-1.19,23.43.51,13.59,2.57,23.82,6.46,31.19Z"/><path class="cls-1" d="m16.02,485.33c4.5,103.27,96.93,181.38,199.21,166.35,1.28-.19,2.56-.39,3.84-.61,416.47-69.95,421.59-81.27,606.71-47.49,87.91,16.04,176.52,97.29,296.6,76.79,81.98-14,148.96-50.37,149.99-165.95,1.3-145.49,0-334.18-137.3-415.59-213.36-126.52-477.99-118.63-712.64-23.15-163.68,66.6-194.71,129.84-301.42,118.08-45.68-5.04-88.9,21.73-104.43,64.98h0c-6.15,17.14-8.91,35.31-8.11,53.5l7.54,173.1Zm1021.99-286.41c12.68,2.75,24.99,2.41,37.27,6.97,1.44.53,2.89,1.24,4.43,2.07,1.54.83,3.02,1.7,4.41,2.69,1.46,1.03,2.15,1.74,2.13,2.09,0,.34-.75.3-2.21-.12-10.59-3-20.21-2.78-31.81-4.33,6.43,6.95,9.05,11.1,14.38,18.86,10.79.38,18.67.06,29.02,1.13,1.6.16,3.06.71,4.39,1.54,1.34.83,2.54,1.92,3.64,3.26,1.06,1.34,1.52,2.29,1.27,2.92-.22.63-1.13.89-2.76.83-10.49-.34-17.76.12-28.6.28,5.63,7.7,8.43,11.34,15.33,16,11.76-1.42,18.37-2.31,29.95-3.44,1.61-.16,3.18-.08,4.76.12,1.61.2,3.02.49,4.7.95,1.7.47,2.62.91,2.67,1.34.06.43-.73.79-2.36,1.07-14.02,2.41-21.15,3.69-35.15,6.08l.02-.02c-2.16.36-4.46.3-6.82-.18-2.37-.49-4.83-1.36-6.73-2.55-16.89-13.25-28.98-36.19-41.56-53.13-1.88-2.01-2.93-3.32-3.06-4.03-.12-.71.73-.81,2.67-.38Zm-57.94-34.27c.27-1.11,1.24-1.18,2.81-.24,1.59.93,3.04,2.43,4.54,4.44,1.5,2.01,2.94,4.44,4.21,7.39,5.7,13.1,7.59,20.82,11.51,35.36,11.4,3.99,17.13,7.9,28.76,11.02-5.41-11.63-8.08-17.86-15.32-27.97-1.63-2.29-2.59-3.71-2.81-4.35-.2-.65.35-.51,1.76.26,1.4.77,3.02,1.8,4.8,3.18,1.78,1.38,3.6,3.04,5.36,5.12,14.45,19.2,22.26,43.43,40.43,59.67,1.92,1.32,3,2.45,3.08,3.38.08.93-.89,1.54-2.94,1.78-2.04.24-4.19-.04-6.36-.81-2.19-.77-4.21-1.96-6-3.48-8.52-7.19-10.28-12.42-15.9-23.9-12.27-1.98-18.37-4.78-30.48-7.68,4.02,14.58,5,21.37,11.7,31.8,1.42,2.19,2.1,3.95,1.91,5.25-.19,1.3-1.34,2.01-3.45,2.05l-.06.06c-2.04.04-4.05-.63-5.95-2.01-1.91-1.36-3.57-3.28-4.89-5.65-11.7-28.21-16.36-59.16-25.31-88.31-1.2-3.14-1.69-5.25-1.42-6.36Zm-55.03-18.31c.24-1.01.89-1.09,2.01-.3,13.34,9.6,23.85,10.84,39.17,13.12,1.27.18,2.69,1.07,4.09,2.57,1.4,1.5,2.65,3.54,3.65,6.14.95,2.51,1.19,4.42.85,5.75-.34,1.34-1.25,1.88-2.58,1.72-6.07-.75-7.78-.04-13.61-.75,5.78,27.71,8.6,56.45,17.03,83.51,1.05,2.49,1.46,4.46,1.08,5.83-.38,1.38-1.64,2.01-3.75,1.86h-.02c-2.04-.14-3.95-1.01-5.66-2.59-1.75-1.58-3.16-3.69-4.18-6.26-7.95-27.81-10.63-57.08-16.16-85.41-7.71-2.94-10.27-4.66-15.68-7.88-1.22-.71-2.28-2.11-3.25-4.15-.97-2.07-1.75-4.52-2.35-7.31-.63-2.9-.86-4.84-.61-5.85Zm-84.2,19.36c1.01-7.39,2.55-13.57,4.71-18.59s4.89-8.73,8.3-11.32c3.4-2.57,7.43-3.87,12.12-3.87,6.25,0,12.06,2.19,17.37,7.15,5.31,4.96,9.64,12.31,13.23,22.4,3.58,10.09,5.89,22.44,6.78,36.09.67,10.29.51,19.22-.38,26.59-.88,7.39-2.37,13.1-4.56,17.38-2.19,4.25-4.86,7.03-8.38,8.71-3.53,1.68-7.81,2.02-12.86,1.05-6.68-1.28-13.02-4.5-18.78-9.44-5.74-4.94-10.14-11.08-13.33-19.63-3.2-8.55-4.84-18.98-5.28-31.33-.35-9.32.03-17.8,1.05-25.2Zm-64.87-40.95c.71-1.07,2.28-1.22,3.82-.75,18.43,5.51,28.68,6.76,48.61,8.26,1.66.12,3.09.87,4.28,2.31,1.2,1.44,2.03,3.48,2.48,6.22.43,2.63.24,4.72-.49,6.22-.73,1.5-1.94,2.17-3.6,2.01-7.51-.69-11.31-1.11-18.75-2.17,2.3,28.24,2.51,56.53,4.77,84.75.41,2.65.27,4.68-.5,6.04-.78,1.36-2.21,1.88-4.32,1.58v.02c-2.05-.3-3.74-1.3-5.08-2.96-1.33-1.68-2.22-3.87-2.62-6.54-2.04-28.27-2.2-56.55-4.43-84.82-7.35-1.34-10.98-2.13-18.03-4.01-1.55-.43-3.3-1.7-4.41-3.56-1.13-1.86-1.81-4.15-2.16-6.83-.38-2.77-.3-4.68.43-5.75Zm-72.02,96.86c3.6-35.81,6.87-71.38,7.86-107.37,0-4.13.49-7.19,1.5-9.2,1.01-2.01,2.53-2.86,4.56-2.55,13.16,1.96,21.63,4.05,34.19,9.09,1.46.59,2.45,1.72,3.18,3.44.73,1.72,1.11,3.91,1.19,6.62.08,2.82-.2,4.9-.87,6.22-.67,1.3-1.68,1.74-3.16,1.22-10.81-3.69-17.88-5.35-29.18-7.05-.16,14.58-.61,22.28-1.68,37.31,10.63.99,16.2,1.8,27.22,4.35,1.7.41,2.81,1.48,3.46,3.22.65,1.74.85,4.13.61,7.13-.24,3-.79,5.19-1.7,6.56-.91,1.4-2.17,1.94-3.87,1.64-11.02-2.01-16.57-2.63-27.28-3.32-1.36,15.55-2.19,23.19-3.44,36.84,11.79.04,17.96.34,29.67,1.28,1.62.12,2.77.91,3.52,2.27.75,1.36.99,3.24.93,5.67-.06,2.43-.51,4.27-1.4,5.51-.89,1.24-2.17,1.84-3.83,1.8-14.14-.41-21.22-.36-35.36.18l-.04.02c-2.19.08-3.81-.79-4.86-2.67-1.05-1.86-1.56-4.6-1.21-8.22Zm-84.67,13.19c6.2-39.03,11.24-77.78,13.87-117.21.16-3.75.73-6.68,1.76-8.85,1.01-2.15,2.37-3.38,4.05-3.69,1.52-.28,2.69.1,3.54,1.13.85,1.03,1.62,2.96,2.25,5.77,5.63,27.16,9.88,54.37,13.86,81.78,10.66-28.37,20.34-57.23,27.84-86.6.73-2.94,1.48-4.96,2.31-6.16.81-1.19,1.99-1.78,3.48-1.78,1.68,0,3,.97,3.95,2.9.93,1.92,1.44,4.7,1.42,8.36-1.15,38.46-4.94,76.38-9.05,114.62-.22,3.12-.85,5.63-1.92,7.49-1.07,1.86-2.57,2.9-4.48,3.08-1.84.16-3.2-.59-4.05-2.31-.85-1.72-1.15-4.15-.89-7.31,3.13-26.63,5.98-53.24,8.17-79.95-7.37,22.98-15.6,45.7-24.7,68.05-.91,2.13-1.78,3.71-2.61,4.74-.83,1.05-1.86,1.64-3.1,1.82-1.24.18-2.15-.18-2.79-1.07-.63-.89-1.09-2.25-1.42-4.11-3.31-21.41-6.12-42.91-9.62-64.3-2.88,27.28-6.5,54.36-10.61,81.51-.43,3.24-1.2,5.87-2.39,7.9-1.17,2.03-2.71,3.22-4.62,3.59h.02c-1.84.34-3.12-.32-3.85-2.01-.73-1.68-.87-4.15-.43-7.39Zm-46.36-94.57c2.73-6.93,5.37-12.44,8.18-16.59,2.81-4.15,5.71-6.74,9.23-7.84,4.72-1.48,9.66-.04,14.32,4.48,4.66,4.52,8.63,11.75,10.63,21.98,1.98,10.23,1.94,22.99,0,37.71-1.46,11.12-3.69,21.1-6.56,29.94-2.88,8.83-5.49,16.12-8.47,22.26-2.98,6.14-6.2,10.96-10.37,14.89-4.17,3.93-9.23,6.68-15.25,8.31l-.02-.04c-7.98,2.15-14.52,1.46-18.15-2.61-3.62-4.05-5.21-10.63-5.04-20.3.16-9.68,2.17-21.98,5.41-36.8,2.45-11.18,5.1-21.57,7.86-30.93,2.75-9.36,5.49-17.52,8.22-24.45Zm-80.8,68.38c2.29-10.94,4.9-21,7.98-30.06,3.08-9.05,6.52-16.91,10.75-23.68,4.25-6.74,9.25-12.19,15.98-16.63,6.7-4.46,12.8-7.27,18.43-8.57,3.79-.87,6.93-.81,9.62.2,2.67,1.01,4.62,2.94,6.02,5.75.75,1.4,1.09,3.28,1.01,5.61-.08,2.35-.41,4.72-1.01,7.13-.61,2.39-1.38,4.5-2.31,6.3-.93,1.8-1.9,2.94-2.92,3.4-1.01.47-1.94-.08-2.77-1.64-1.18-2.23-2.69-3.69-4.64-4.36-1.92-.67-4.13-.71-6.64-.14-4.8,1.09-9.82,3.97-14.58,8.59-4.76,4.64-9.15,10.84-12.58,18.53-3.4,7.7-6.1,16.87-8.4,27.46-2.29,10.47-3.5,19.12-3.56,25.99-.06,6.89,1.13,11.73,3.44,14.72,2.31,3,5.75,4.03,10.39,3.12,2.49-.49,5.1-1.56,7.84-3.22,2.73-1.66,5.51-3.97,8.32-6.93,1.86-1.94,3.28-2.94,4.29-3,1.01-.06,1.68.53,2.01,1.74.32,1.22.32,2.82-.04,4.8-.36,1.98-1.03,4.07-2.05,6.28-1.01,2.21-2.33,4.19-3.93,6.02-3.56,4.05-7.45,7.37-11.65,9.99-4.19,2.59-8.18,4.25-11.91,4.96l.02-.02c-7.19,1.38-12.47-.22-16.16-4.64-3.69-4.42-5.49-11.28-5.59-21.09-.1-9.78,1.58-22.02,4.64-36.64Zm-26.75-55.56c1.36-2.47,3-4.21,4.68-5,1.66-.81,2.69-.34,3.14,1.34.45,1.68.3,4.54-.51,8.55-7.27,34.13-15.65,67.73-27.18,100.71,10.94-.81,16.22-1.19,27.28-2.37,1.72-.18,2.8.53,3.24,2.11.45,1.58.18,3.91-.69,6.99-.87,3.08-2.03,5.53-3.48,7.33-1.46,1.82-3.06,2.82-4.84,3-13.89,1.4-20.82,1.78-34.73,1.98l.06-.04c-2.05.02-3.22-.93-3.54-2.85-.32-1.93.2-4.58,1.62-8.02,13.06-34.23,23.17-68.62,31.65-104.25.87-3.87,1.94-7.01,3.3-9.46Zm-48.83,24.51c1.9-1.96,4.03-3.32,6.24-4.05,14.4-4.74,18.35-7.96,28.58-14.36,1.19-.75,1.94-.61,2.23.47.3,1.07.12,3-.57,5.75-.73,2.88-1.64,5.31-2.73,7.21-1.09,1.92-2.29,3.18-3.54,3.81-9.11,4.56-13.02,6.81-24.18,10.31-4.37,11.65-6.74,17.62-11.85,29.39,10.51-1.76,14.82-2.98,24.02-5.63,1.42-.41,2.25.02,2.47,1.34.22,1.32-.14,3.42-1.11,6.34-.99,2.92-2.13,5.19-3.4,6.85-1.28,1.66-2.67,2.61-4.15,2.9-9.62,1.82-14.22,2.61-24.81,3.59-5.83,12.25-8.97,18.29-15.74,29.63,11.67.63,17.23.67,28.58.36,1.56-.04,2.47.61,2.69,1.96.22,1.36-.26,3.38-1.44,6.02-1.19,2.65-2.53,4.64-4.05,5.97-1.52,1.34-3.1,1.96-4.74,1.88-14.03-.61-21.02-1.24-35.01-3.1h-.04c-2.17-.28-3.3-1.28-3.44-2.92-.14-1.64.69-3.83,2.53-6.64,15.35-25.74,27.58-51.69,38.76-79.48,1.18-3.1,2.82-5.61,4.72-7.6Zm-133.16,67.55c17.11-15.33,22.5-22.81,32.44-29.33.91-.59,2.31-1.34,4.21-2.37,1.9-1.03,3.85-2.17,5.87-3.24,1.48-.79,2.49-1.3,2.77-1.34.28-.04.04.28-.71,1.01-8.05,7.78-13.08,14.93-24.28,28.23,18.93-10.14,34.97-24.95,48.26-41.8,1.56-1.92,2.94-3.5,4.15-4.74,1.22-1.24,2.39-2.21,3.54-2.88,1.17-.67,1.86-.75,2.09-.22.22.53.08,1.66-.47,3.42-5.35,18.06-11.2,35.61-17.71,53.22,18.22-19.09,33.95-38.91,48.95-60.94,1.48-2.29,2.84-4.03,4.09-5.21,1.26-1.18,2.51-1.82,3.83-1.9,1.6-.12,2.41.75,2.45,2.61.02,1.88-.79,4.29-2.55,7.21-16.38,27.95-36.7,53.73-61.18,75.02-2.27,1.9-4.33,3.2-6.16,3.91-1.82.71-3.63.83-5.35.36-1.74-.45-2.71-1.28-2.94-2.45-.22-1.18.2-2.8,1.24-4.88,8.23-16.21,14.94-33.36,21.44-50.34-16.63,17.78-29.63,28.35-51.54,40.86-2.41,1.05-4.56,1.66-6.42,1.86-1.86.2-3.65-.04-5.31-.71h-.02c-1.68-.65-2.55-1.44-2.63-2.29-.08-.87.57-1.9,1.9-3.1Zm-186.74,209.51c-1.24,5.37-2.45,9.66-3.64,12.82-2.65,7.07-4.84,11.5-6.26,14.38-1.4,2.86-2.13,4.05-2.98-3.2h.04c-2.19-18.61-1.84-38.38-1.48-57.1.38-19.14,1.94-38.97,2.17-57.68.36-29.73-.36-58.9,17.03-78.77,12.6-14.36,43.3-14.79,63.85-16.16,22.28-1.5,35.42-.95,55.55-.26,20.13.69,32.06.45,42.67.59,10.61.14,17.84.67,22.24,2.41,2.96,1.15,4.03,2.92,2.98,5.27-1.05,2.35-4.23,5.21-10.21,8.32-2.94,1.6-7.27,3.22-13.29,4.6-6.01,1.38-13.06,2.39-19.08,3.28-6.02.89-10.82,1.5-14.99,1.76-4.17.26-6.89.06-8.26-.61-1.36-.67-.59-1.88,2.39-3.44,4.25-2.21,7.09-3.95,8.2-5.27,1.11-1.32.81-2.73-1.11-4.15-3.69-2.71-11.89-4.41-22.64-5.49-10.75-1.07-21.61-1.09-43.54-.57-17.72.43-43.4,3.59-57.82,16.02-14.54,12.54-18,35-18.85,53.01-.75,15.98-.93,32.67-.97,42.86-.04,10.19.42,20.07,2.25,28.17.97,4.33,2.11,6.28,3.3,5.55,1.17-.73,2.81-1.68,4.76-3.36,1.28-1.05,2.17-.45,2.59,1.44.42,1.88.55,4.52.24,8.1-.3,3.61-.91,7.62-1.84,12.42-.93,4.82-2.07,9.72-3.3,15.07Zm34,85.86c-6.64,9.28-12.25,12.8-19.22,6.66-9.23-8.12-10.45-24.59-9.42-46.93,1.05-22.62,4.84-46.04,7.72-67.53,4.39-32.83,8.63-68.44,29.77-93.62,16.42-19.55,46.48-26.88,71.83-31.6,19.44-3.61,40.4-7.8,60.55-9.88,20.94-2.17,33.48-5.14,44.35-6.91,10.85-1.74,18.08-2.35,22.4-1.34,5.77,1.34,5.35,5.31-2.94,11.6-8.28,6.3-27.46,12.58-47.79,22.04-30.52,14.22-63.17,23.72-83.3,52.82-15.66,22.62-25.25,46.97-32.73,73.36-6.7,23.72-13.39,36.52-20.48,52.4-7.09,15.86-14.12,29.63-20.76,38.91Zm129.15,14.64c-3.26,7.51-6.76,11.89-10.41,12.37-3.52.47-5.45-3.22-5.81-10.35-.34-7.13.85-16.75,3-27.63,14.68-77.92,22.42-150.37,94.85-190.04-30.49,13.57-56.04,30.65-75.38,60-18.41,27.95-23.43,60.97-35.97,91.41-1.84,4.6-3.44,8.37-4.76,10.84-1.32,2.49-2.63,3.65-4.01,3.69-1.38.04-2.23-1.15-2.55-3.75-.32-2.59-.26-6.24.12-10.57,4.5-66.09,8.89-114.05,62.26-147.83-70.32,39.64-79.6,109.1-96.12,188.71-2.33,11.26-5,21.35-7.57,28.96-2.56,7.59-4.87,11.72-6.95,11.52,0,0,0,0,0,0h-.02s.01,0,.02,0c-2-.21-2.81-4.68-2.39-12.58.41-7.9,1.94-18.17,4.27-29.49,10.15-48.02,16.38-108.89,45.61-149.27,30.86-42.68,89.01-56.49,136.44-72.55,8.28-3.61,14.34-6.44,19.12-8.39,4.76-1.94,7.82-2.86,9.4-2.67,1.42.16,1.44.93,0,2.27-1.44,1.36-4.54,3.58-9.84,6.58-29.69,13.41-65.68,24.02-91.44,44.13-29.14,22.76-39.09,52.89-44.85,87.09,14.58-35.18,32.71-66.19,67.13-86.76,34.21-20.46,74.95-26.9,110.98-43.04,5.93-2.81,9.96-4.84,12.68-6.04s4.74-1.78,6.18-1.82c1.6-.02,1.42.91-.67,2.76-2.09,1.84-5.87,4.48-12.45,7.96-43.58,16.83-90.43,31.78-116.41,73.32-25.82,41.28-28.49,96.09-36.37,143.22-1.92,10.76-4.8,20.44-8.06,27.95Zm66.85-130.22c-5.16,30.34-8.83,60.99-12.68,91.53-1.54,11.3-4.29,21.57-7.33,29.55-3.04,7.98-6.28,12.72-9.56,13.41h.02c-3.2.67-4.88-3.08-5.12-10.49-.26-7.41.91-17.52,2.61-28.98,6.32-44.54,7.45-95.72,30.03-135.54,22.5-39.66,64.93-58.6,106.69-72.55,7.47-3.38,12.13-6.52,16.04-8.51,3.91-1.98,6.6-3.04,8.4-3.18,8.4-.69,12.58-1.13,20.9-2.27,6.68-.89,8.87,1.11,2.19,6.91-6.68,5.79-17.5,9.2-47.35,23.41-25.74,12.25-42.31,39.76-56.83,62.75-11.5,18.21-17.11,29.71-26,31.01-8.18,1.19-12.62,1.8-22.01,2.96Zm98.34,76.42c-2.05,6.97-4.66,12.96-7.41,17.54-2.75,4.6-5.43,7.35-7.9,8.04-3,.85-4.44-1.36-4.5-6.28-.04-4.92.93-12.62,1.82-22.08.49-15.44,1.06-30.87,1.4-46.31-18.49,4.66-21.41,5.3-30.14,7.06-3.52,16.72-7.13,33.37-10.23,50.23-2.43,10.65-5.08,19.44-6.95,25.1-1.88,5.65-3.42,8.85-4.6,9.23h-.02c-1.09.34-1.46-1.82-1.13-6.3.32-4.48,1.19-10.47,2.39-17.54,1.19-7.07,2.47-13.85,3.89-22.34,9.28-43.99,14.85-91.45,40.28-129.63,25.98-38.99,65.58-52.76,107.19-70.46,5.43-3.3,8.93-5.57,11.62-7.07,2.69-1.5,4.68-2.37,6.04-2.67,1.3-.28,1.64.1,1.03,1.13-.61,1.03-2.33,2.9-6.2,5.87-34.79,16.53-64.18,29.69-80.87,66.39-17.23,37.86-13.26,78.51-12.96,119.12.12,7.9-.73,14.02-2.77,20.96Zm95.99-133.07c-.34,13.37-.2,26.86-1.42,46.85-.77,12.8-2.21,21.39-4.62,30.81-2.41,9.42-5,21.73-9.66,31.41-4.68,9.68-10.73,18.13-17.07,24.61-6.34,6.48-12.72,10.55-18.88,11.79l.02.04c-4.23.85-8.1.45-11.67-1.19-3.56-1.64-6.54-4.64-9.09-8.81-2.55-4.17-4.58-9.42-6.5-15.48-1.09-3.65-1.82-7.43-1.86-13.51-.04-6.06.41-10.59,1.32-14.79.91-4.19,2.13-7.53,3.67-10.39,1.54-2.86,3.16-4.6,4.88-5.53,1.72-.91,3.32-.49,4.8,1.54,3.48,4.29,7.39,7.9,11.73,9.99,4.33,2.09,9.09,2.45,14.12,1.56,7.35-1.32,12.82-5.57,16.59-11.99,3.77-6.4,5.87-11.93,6.72-24.49.71-10.45.36-15.39-.95-19.67-1.32-4.27-3.95-8.06-8.36-11.2-4.7-3.34-7.05-5.77-11.93-9.09-7.01-4.8-8.73-14.66-5.77-28.7,2.96-14.04,15.31-32.22,33.6-42.64,11.5-6.52,18.57-10.41,27.22-14,8.63-3.58,18.27-6.76,24.55-10.49,6.28-3.73,11.16-6.52,15.67-8.75,4.52-2.23,8.36-3.75,11.6-4.58,3.18-.81,5.31-.81,6.66-.02,1.34.79,1.82,2.35,2.09,4.82.08.93-.65,2.23-2.39,3.46-1.76,1.26-4.37,2.35-6.82,3.54-2.45,1.19-4.64,2.29-6.83,3.3-2.19,1.01-3.99,1.72-5.39,2.09-1.4.36-1.56.04-.95-.77,1.03-1.42,1.32-2.15.63-2.41-.69-.24-2.27-.08-5.04.55-2.9.65-6.78,1.78-11.32,3.32-4.54,1.56-9.34,3.4-14.44,5.79-5.1,2.39-10.19,5.19-17.15,9.32-7.82,4.64-14.93,9.66-17.52,13.81-2.59,4.15-2.27,7.88.28,10.45,2.81,3,4.21,4.84,6.93,8.87,4.09,6.14,2.92,17.2,2.57,30.56Zm36.7,124.36c-4.54,5.61-8.81,8.81-12.68,9.24l.02-.04c-2.65.3-5-.61-7.11-2.65-2.13-2.07-3.81-5.41-5.29-9.82-1.48-4.44-2.67-9.86-4.09-16.04-.81-3.73-1.5-7.37-1.72-13.53-.24-6.14-.12-10.49.39-14.46.51-3.95,1.28-7.05,2.29-9.6,1.01-2.55,2.15-4.03,3.4-4.7,1.26-.67,2.51-.04,3.73,2.07,2.86,4.58,5.87,8.57,9.03,11.14,3.18,2.57,6.5,3.44,9.9,3.14,4.98-.42,8.49-3.93,11.06-9.8,2.55-5.85,4.13-11.06,4.9-22.79.63-9.76.53-14.6-.41-18.92-.91-4.29-2.88-8.28-6.24-11.85-3.58-3.77-5.39-6.38-9.15-10.27-5.41-5.65-6.56-16.06-4.07-31.48,2.49-15.41,12.98-35.44,27.93-46.18,9.4-6.72,14.58-10.39,21.02-13.65,6.44-3.26,13.75-6.12,17.92-9.48,4.17-3.36,7.31-5.67,10.65-7.47,3.36-1.8,6.68-2.98,10.15-3.56,3.4-.59,6.5-.55,9.28.2,2.79.75,5.31,2.15,6.34,4.86.36,1.03-.02,2.41-1.38,3.75-1.36,1.32-3.58,2.49-5.65,3.73-2.07,1.24-3.97,2.33-5.85,3.34-1.9.99-3.44,1.68-4.66,1.98-1.21.3-1.72-.04-1.62-.91.18-1.5-.3-2.33-1.48-2.69-1.18-.36-3.04-.34-5.71.06-2.79.42-6.14,1.3-9.82,2.61-3.68,1.32-7.43,2.94-11.38,5.16-3.97,2.23-7.9,4.94-13.57,9.22-6.4,4.8-12.45,10.25-14.68,14.91-2.23,4.68-2.08,9.09-.06,12.42,2.23,3.83,3.36,6.1,5.63,10.9,3.4,7.31,2.37,19.36,1.05,33.26-1.34,13.89-2.29,27.4-4.03,46.26-1.11,12.07-2.53,20.19-4.41,29.23-1.88,9.03-3.44,21.15-6.91,30.18-3.46,9.03-8.18,16.65-12.72,22.26Zm21.75-3.89c-2.88,6.02-4.9,9.26-5.59,9.3l.02.04c-.67.04.28-3.14,2.25-9.18,1.96-6.04,4.76-14.2,6.36-23.8,9.09-78.28,17.9-149.66,85.69-198.35,1.98-3.65,2.73-5.75,3.97-7.27,1.24-1.52,2.73-2.29,4.5-2.47,1.76-.18,3,.3,3.61,1.62.61,1.32.77,3.34-1.28,7.05-67.97,48.57-79.73,120.84-91.25,199.38-1.88,9.56-5.39,17.66-8.26,23.68Zm51.74-3.97c-8.58,8.17-16.08,12.69-20.86,12.8,0,0,.01,0,.02,0h-.04s.01,0,.02,0c-6.31.1-5.85-7.81-4.68-22.08,1.17-14.28.2-35.87,1.15-49.38,1.86-26.35,7.92-51.67,17.09-76.62,8.89-24.2,19-48.43,40.83-63.46,13.18-9.07,20.01-13.47,29.18-17.52,9.17-4.05,12.17-8.75,16.18-11.1,4.01-2.33,8.04-3.3,12.45-3.38,5.91-.1,11.32,1.09,15.29,5.49,3.97,4.4,1.4,9.46-5.45,17.86-19.62,24.14-30.2,45.51-40.87,75.59-7.01,19.75-14.06,41.06-21.53,60.3-5.53,14.26-10.85,20.07-16.69,36.76-5.81,16.69-13.53,26.55-22.12,34.74Zm144.19-118.57c-9.92,36.88-17.66,73.75-23.63,111.48-2.35,8.08-6.82,14.52-11.14,19.16-4.31,4.62-7.94,6.85-10.08,6.54-2.07-.28-2.67-1.9-2.03-4.82.63-2.92,2.23-7.51,3.65-13.63,1.21-63.28-16.78-139.64,19.56-196.71-40.57,40.45-51.54,128.14-61.53,181.13-2.59,8.81-7.31,15.88-11.56,20.82-4.25,4.94-7.92,7.45-10.27,7.33v-.04c-2.35-.12-2.27-2.84-.51-7.96,1.78-5.12,5.22-12.36,7.86-21.23,7.59-38.24,17.23-75.53,29.75-112.45,13.39-39.48,31.09-61.82,58.24-92.08.69-3.73.49-5.61,1.05-6.85.57-1.24,1.54-1.7,2.98-1.62,1.32.08,2.41.44,3.28,1.11.89.67,2.15,1.76,3.46,3.69,2.86,19.99-12.86,36.66-18.55,55.36-10.1,33.19-11.73,69.1-9.28,103.64,6.38-31.79,13.85-65.17,25.71-94.79,8.87-22.14,24.81-36.76,35.52-57.28-.52-3.48-1.48-5.22-1.48-6.34s.83-1.44,2.49-1.19c1.67.22,3.39.91,5.27,2.27,1.89,1.36,4.02,3.22,4.8,6.74-4.94,14.56-15.8,23.31-23.29,36.62-10.55,18.72-14.76,40.61-20.27,61.09Zm114.4,55.21c1.9,16.12,2.89,29.11,2.59,44.26-.41,19.77-1.1,36.78-10.11,49.7-9.03,12.92-25.09,17.28-38.33,12.42-17.69-6.48-22.69-8.32-36.34-12.31l.02.02c-3-.87-3.3-4.11-1.97-9.66,1.34-5.53,4.16-12.8,5.13-21.96,3.67-35.95,8.6-71.34,16.22-106.72,7.35-34.19,26.41-65.81,32.37-99.17-.39-3.54-3.04-6.79-3.77-8.14-.71-1.36-.2-1.66,1.7-1.3,8.29,1.58,12.4,2.35,20.76,3.95,4.3.83,9.42,2.29,15.57,5.21,6.16,2.92,13.13,8.43,16.29,13.49,3.17,5.06,4.86,9.64,2.81,19.24-2.29,10.8-9.72,26.47-15.81,44.78-4.69,14.1-9.2,26.27-13.99,33.11,3.6,8.01,5.34,20.17,6.86,33.08Zm39.71,140.02c-7.53-3.89-12.45-5.97-26.49-11.52l.02.04c-2.16-.85-1.92-4.09-.41-9.74,1.54-5.63,4.21-13.02,4.41-22.56.32-37.59,1.13-74.19,5.33-111.58,3.59-31.88,24.83-84.26,12.69-114.52-2.29-4.33-6.61-8.16-8.4-9.84-1.81-1.68-1.81-2.15.08-1.78,12.23,2.37,18.34,3.34,30.55,4.94,1.42.18,3.65.89,6.69,2.41,3.03,1.52,6.8,3.67,10.25,7.49,3.58,3.99,4.03,6.58,3.82,8.18-.2,1.6-1.07,2.27-2.51,2.03-10.38-1.64-15.71-2.59-26.77-4.86,4.98,17.82-6.75,54.12-9.35,68.3,10.89,3.2,15.84,4.58,25.06,7.09,1.45.39,2.07,3.69,1.97,10.96-.1,7.27-.89,18.47-2.19,29.92-1.3,11.46-2.95,18.75-4.16,23.17-1.19,4.44-2.34,6.12-3.7,5.61-8.73-3.18-13.5-4.88-24.46-8.81-1.3,22.83-2.03,45.39-2.27,68.24,11.35,4.35,15.8,6.14,23.25,9.44,1.04.47,1.72,1.28,2.19,6.73.47,5.45,1.26,12.58-.63,19.97-1.89,7.41-5.63,12.78-8.73,16.22-3.11,3.44-5.36,4.94-6.24,4.5Zm92.5,8.85c-2.13,8.65-7.05,15.09-11.45,19.57-4.41,4.48-7.76,6.5-8.73,6.26-.93-.22-1.66-2.01-.85-4.96.81-2.96,2.73-7.59,4.25-14.06-.65-35.06-10.25-67.39-13.81-102-4.76-46.08.86-92.34-.08-138.46-13.74,69.9-20.31,142-26.08,212.96-2.14,9.01-7.27,15.47-11.75,19.63-4.47,4.13-8.12,5.69-9.84,4.78l-.02.04c-1.74-.89-.74-3.83,1.83-8.89,2.57-5.06,6.66-11.99,8.73-20.92,3.08-40.16,7.25-80.11,12.13-120.09,3.92-32.2,29.3-97.14,9.74-126.45-4.21-5.39-8.35-7.98-10.38-9.66-2.05-1.68-2.32-2.27-.88-2.15,1.32.12,3.04.59,5.23,1.5,2.19.93,5.65,2.45,10.12,5.25,30.29,18.9,25.24,53.53,25.1,84.1-.2,43.16-1.59,86.92,7.9,129.2,2.96-39.26,6.29-78.6,10.34-117.74,2.94-28.25,15.3-62.59-4.41-87.28-4.97-5.49-9.48-8.37-11.91-10.31-2.43-1.94-2.78-2.71-1.11-2.71s4.55.81,8.84,2.8c4.3,2.01,9.91,4.94,15.05,10.53,28.76,32.99,5.13,104.23,1.84,142.27-3.65,42.27-7,84.48-9.79,126.81Zm90.17-10.47c-.5,8.3-1.54,11.52-4.03,15.64-5.55,9.15-14.36,15.9-22.68,20.64-8.3,4.74-15.4,7.13-20.11,7.33l.02-.04c-9.12.38-8.8-5.65-8.94-19.49-.14-13.83-6.65-39.21-9.7-55.25-5.2-27.34-1.86-55.72.14-83.43,2.48-34.41,5.56-69.13,11.31-102.75,2.89-16.89,1.62-24.16-.16-31.86-1.78-7.7-7.5-15.49-9.75-19.24-2.25-3.77-1.05-5.27,3.62-5.67,3.14-.28,7.88.14,14.54,1.54,6.67,1.4,14.91,3.62,23.64,8.14,4.43,2.25,8.65,5.51,11.9,8.63,3.26,3.12,5.56,5.95,7.13,8.79,1.59,2.86,2.27,5.37,2.32,7.57.03,2.21-.64,3.63-1.81,4.03-1.18.41-2.86-.67-5.29-2.98-3.46-3.3-7-5.39-10.22-6.64-3.22-1.26-6.05-1.76-8.49-1.58-4.64.34-6.92,2.75-8.35,7.78-1.41,5.02-2.03,11.59-4.9,27.85-5.71,32.31-7.32,65.42-9.32,98.21-1.3,21.45-3.6,43.95-1.17,65.46,1.31,11.65,3.97,19.93,7.71,26.43,3.73,6.52,8.57,10.77,14.42,10.65,3.11-.08,6.24-1.52,9.31-4.05,3.08-2.53,6-6.24,8.75-10.55,1.83-2.79,3.45-3.99,4.86-3.83s2.59,1.24,3.54,3.38c.95,2.17,1.59,5,1.91,9.01.32,4.01.25,7.96-.23,16.26Zm79.96-125.37c-.41,37.82-1.37,75.61-1.89,113.42-1.46,8.67-7.09,15.05-12.21,19.81-5.12,4.76-9.25,7.49-10.92,8.53-1.66,1.03-.1-.16,3.14-3.97,3.26-3.83,7.83-9.86,9.18-18.74.08-28.46.12-56.9.44-85.35-13.97,3.71-21.82,5.31-38.05,7.68-.34,30.1-.2,60.2-.2,90.29-1.27,9.3-6.75,16.14-11.99,21.15-5.24,5-9.84,7.66-12.33,8.26l-.02-.02c-2.43.59-1.57-1.22,1.1-5.69,2.67-4.5,6.82-11.2,8.12-20.6.27-41.28.59-82.48,1.62-123.75,1.01-40.93,17.98-116-19.16-147.84-7.31-6.83-14.03-10.15-17.76-12.46-3.73-2.31-4.64-3.32-2.87-3.61,1.76-.28,5.38.28,11.15,2.25,5.78,1.96,13.7,5.04,21.27,11.85,29.94,22.72,22.91,63.54,22.59,96.31,15.63-2.53,23.27-4.15,37.24-7.72-.3-33.54,5.44-73.89-26.92-94.99-8.18-6.62-15.62-9.66-19.81-11.79-4.19-2.11-5.3-3.04-3.54-3.36,1.76-.32,5.59.1,11.73,1.8,6.16,1.7,14.66,4.44,22.97,10.96,44.51,28.76,27.6,103.7,27.14,147.57Z"/></svg>