<?xml version="1.0" encoding="UTF-8"?><svg id="Layer_1" xmlns="http://www.w3.org/2000/svg" viewBox="0 0 1920.74 1080.09"><defs><style>.cls-1{fill:#009245;}.cls-2{fill:#eaeaea;}.cls-3{fill:#eae028;}.cls-4{fill:#fff;}.cls-5{fill:#6a81ff;}.cls-6{fill:#6aecff;}.cls-7{fill:#736357;}.cls-8{fill:#4866cc;}.cls-9{fill:#534741;}</style></defs><rect class="cls-6" x=".74" width="1920" height="1080"/><rect class="cls-4" x=".74" y="540" width="1920" height="64.82"/><rect class="cls-5" x=".74" y="598.08" width="1920" height="482.01"/><ellipse class="cls-8" cx="438.28" cy="721.61" rx="306.4" ry="116.78"/><rect class="cls-2" y="527.75" width="1920.74" height="12.25"/><ellipse class="cls-1" cx="275.62" cy="306.26" rx="135.99" ry="52.85"/><path class="cls-9" d="m420.36,765.24h0c-70.01,50.15-184.57,50.15-254.58,0h0c-12-8.59-22.18-19.47-29.97-32h0c-4.91-7.89-8.19-16.67-9.67-25.85l-47.07-292.48c-3.11-19.34,7.12-38.37,24.98-46.43h0c120.18-54.26,257.87-54.26,378.05,0h0c17.85,8.06,28.09,27.09,24.98,46.43l-47.07,292.48c-1.48,9.17-4.76,17.96-9.67,25.85h0c-7.79,12.53-17.98,23.4-29.97,32Z"/><path class="cls-7" d="m133.25,414.65c15.71,66.53,31.73,139.77,45.68,206.95,2.65,12.53,5.61,26.05,8.69,38.29,4.17,14.61,10.8,28.75,20.35,40.55,14.16,16.22,32.62,28.9,53.25,35.35,14.89,4.44,29.65,9,44.48,13.86.75.25,1.16,1.06.91,1.81-.18.54-.65.9-1.18.97-13.51,1.62-26.98,1.58-40.5,1.11-24.3.09-48.09-8.99-67.17-23.83-8.23-6.12-15.33-13.94-20.79-22.62-8.04-12.62-12.81-27.1-15.17-41.78-1.86-13.74-3.02-26.38-4.97-39.91-9.35-68.01-18.84-142.26-26.34-210.29-.08-.77.47-1.46,1.24-1.54.71-.08,1.35.39,1.51,1.07h0Z"/><ellipse class="cls-1" cx="179.35" cy="248.98" rx="77.09" ry="55.55"/><ellipse class="cls-1" cx="436.35" cy="304.52" rx="64.98" ry="71.56"/><circle class="cls-1" cx="307.67" cy="219.31" r="80.91"/><ellipse class="cls-1" cx="217.42" cy="203.63" rx="58.2" ry="60.96"/><ellipse class="cls-1" cx="402.1" cy="227.92" rx="65.62" ry="71.82"/><ellipse class="cls-1" cx="169.3" cy="345.22" rx="57.46" ry="45.49"/><circle class="cls-1" cx="102.26" cy="304.52" r="44.08"/><circle class="cls-1" cx="163.16" cy="402.29" r="23.17"/><ellipse class="cls-1" cx="453.97" cy="385.58" rx="34.56" ry="34.15"/><circle class="cls-1" cx="451.04" cy="432.1" r="17.04"/><circle class="cls-1" cx="161.83" cy="433.66" r="15.48"/><circle class="cls-1" cx="165.3" cy="455.81" r="8.99"/><path class="cls-4" d="m197.94,269.57c-2.22-8.22-.6-17.4,4.32-24.36s13.03-11.55,21.52-12.2c1.93-.15,4-.06,5.61,1.03,2.66,1.81,2.99,5.56,2.79,8.77-.8,13.18-6.16,26.05-14.95,35.91,6.92-4.39,13.64-10.97,21.78-10.11,9.55,1,15.03,13.04,11.76,22.07s-12.61,14.65-22.02,16.58c-5.12,1.05-10.68,1.15-15.32-1.25-7.54-3.91-10.46-13.02-12.53-21.26.95,6.53,1.9,13.18.92,19.71s-4.21,13.04-9.88,16.42c-6.99,4.17-16.96,2.27-21.92-4.17-3.3-4.28-4.35-9.88-4.64-15.27-.33-6.15.25-12.58,3.34-17.91s9.16-9.27,15.26-8.38c-8.66-.89-15.89-9.18-15.6-17.88s8.07-16.49,16.77-16.79c2.26-.08,4.58.31,6.52,1.46,7.36,4.39,5.32,16.32,11.27,22.49"/><path class="cls-4" d="m385.28,285.8c-4.26-5.14-4.63-13.14-.86-18.66s11.35-8.08,17.69-5.98c.75.25,1.51.58,1.98,1.2.56.74.6,1.74.58,2.67-.2,9.73-4.77,19.29-12.21,25.56,1.27-3.09,4.26-5.4,7.57-5.85s6.81.98,8.86,3.61c1.68,2.16,2.36,4.94,2.61,7.66.85,9.2-3.75,19.41-12.44,22.55-2.21.8-4.68,1.11-6.92.38-1.7-.55-3.16-1.66-4.42-2.93-6.27-6.31-7.44-17.06-2.66-24.56-.83,6.15-1.81,12.41-4.66,17.92s-7.94,10.22-14.09,11.03-13-3.36-13.76-9.52c-.31-2.56.39-5.14,1.35-7.53,3.63-8.99,11.24-16.29,20.37-19.54,2.19-.78,5.62-.52,5.62,1.8-5.02.29-10.34-.8-14.09-4.15s-5.39-9.29-2.84-13.62c2.94-4.99,10.4-5.91,15.36-2.91s7.61,8.83,8.37,14.58"/><path class="cls-4" d="m300.81,220.27c-1.4-5.14-.18-10.92,3.18-15.04s8.78-6.49,14.09-6.16c1.45.09,2.94.39,4.1,1.26,1.03.76,1.72,1.9,2.24,3.08,1.97,4.47,1.66,9.88-.8,14.1s-7.01,7.15-11.87,7.64c3.46-6.42,12.47-8.94,18.91-5.53s9.44,11.99,6.85,18.8-10.25,11.19-17.48,10.3c-2.38-.29-4.75-1.12-6.53-2.73-3.18-2.88-3.86-7.62-3.52-11.89,2.22,5.83.84,12.86-3.42,17.42s-11.18,6.42-17.14,4.61c-1.75-.53-3.45-1.37-4.71-2.7-2.34-2.45-2.84-6.15-2.47-9.52.45-4.06,2.12-8.13,5.29-10.7s8-3.27,11.4-1.02c-5.23,0-10.59-.2-15.47-2.07s-9.29-5.75-10.47-10.85c-1.73-7.48,4.45-15.25,11.95-16.93s15.42,1.67,21.03,6.92"/><ellipse class="cls-3" cx="201.98" cy="276.67" rx="6.53" ry="4.81"/><circle class="cls-3" cx="309.72" cy="227.89" r="4.15"/><ellipse class="cls-3" cx="382.03" cy="288.1" rx="6.54" ry="4.61"/></svg>