<?xml version="1.0" encoding="UTF-8"?><svg xmlns="http://www.w3.org/2000/svg" viewBox="0 0 430 300"><defs><style>.cls-1{fill:#fff;}.cls-2{fill:#a60309;}</style></defs><g id="Layer_1"><rect class="cls-2" width="430" height="300" rx="38.12" ry="38.12"/></g><g id="Layer_3"><g><path class="cls-1" d="m144.65,50.23c-2.88.96-6.2-.45-7.47-3.17-1.34-2.88-1.8-6.12-2.07-9.26-.2-2.35-.4-4.7-.57-7.06-.72.08-1.44.2-2.13.26-1.4.12-2.79.28-4.18.46-2.17.28-4.34.59-6.51.89.11,3.79.32,7.58.89,11.31.48,3.13-3.12,5.13-5.67,5.36-3.04.27-5.73-1.8-6.18-4.76-.87-5.71-.91-11.55-1.05-17.31-.06-2.91-.34-5.81-.33-8.72.01-2.91,0-5.81,0-8.72,0-3.17,2.73-5.09,5.68-5.35,2.7-.24,6.18,1.76,6.18,4.76v8.96c-.01,1.44.06,2.89.14,4.33,2.11-.29,4.22-.6,6.34-.87,1.44-.18,2.89-.35,4.34-.47.59-.06,1.2-.15,1.81-.22-.22-3.55-.44-7.1-.75-10.65-.28-3.15,2.96-5.11,5.67-5.36,2.9-.25,5.93,1.78,6.19,4.77.54,6.18.82,12.39,1.25,18.58.2,2.94.46,5.86.7,8.79.11,1.34.29,2.67.48,4,.01.05.03.11.05.18.08.28.15.55.23.83.22.69.49,1.35.79,2.01,1.34,2.87-1.34,5.6-3.83,6.43Z"/><path class="cls-1" d="m170.2,37.78s-.02.01-.02.01h.01s.01-.01.01-.01Z"/><path class="cls-1" d="m185.17,45.08c-.54.04-1.24.01-1.75.2-.22.05-.43.09-.65.14-1.11.23-2.2.51-3.3.77-2.5.59-5,1.09-7.52,1.51-2.62.44-5.17.96-7.79.16-1.92-.59-3.63-1.92-4.38-3.85-.39-1.01-.49-2.08-.61-3.15-.26-2.4-.97-4.72-1.25-7.12-.28-2.39-.3-4.83-.42-7.23-.23-4.94-.33-9.88-.52-14.82-.06-1.57.63-2.83,1.69-3.74,1.12-1.39,3-2.3,4.67-2.3,3.52,0,7.03-.04,10.55-.13,1.71-.03,3.43-.05,5.15-.19.75-.06,1.51-.13,2.27-.12.83.01,1.69.05,2.51.16.48.06,1.7.02.2.06,2.89,0,5.71,1.67,6.03,4.76.31,3-2.97,5.31-5.68,5.36-.89.02-1.79-.03-2.68-.18-.05-.01-.09-.02-.13-.03.09-.01.17-.01.26-.01,1.2-.02-1.03-.15-.27.01-.67.02-1.34.07-2,.12-1.72.13-3.44.15-5.16.19-1.8.04-3.6.07-5.4.09.05,1.43.09,2.86.14,4.28,3.44-.36,6.86-.79,10.32-.9,2.94-.09,5.86,1.65,6.18,4.77.13,1.32-.64,2.78-1.56,3.66-1.05,1.01-2.67,1.65-4.12,1.7-3.48.11-6.93.53-10.39.9.02.37.04.73.06,1.1.13,2.19.57,4.31.98,6.46.28-.05.55-.11.83-.16,4.42-.87,8.74-2.22,13.24-2.6,2.93-.24,5.87,1.77,6.18,4.77.32,3.12-2.98,5.13-5.68,5.36Z"/><path class="cls-1" d="m181.82,15.33c-.09,0-.17,0-.26.01h-.01c-.76-.16,1.47-.03.27-.01Z"/><path class="cls-1" d="m233.64,42.41c-.33-3.18-3.23-4.79-6.18-4.77-1.19,0-2.37.08-3.55.11-.46.01-.98.06-1.45.02.03.01.05.01.08.02-.04-.01-.08-.01-.13-.02,0,0-.03,0-.04,0-.03-.01-.06-.02-.08-.02h-.03c-.24-.04-.47-.07-.57-.08-2.33-.25-4.64-.61-6.98-.78-.8-.05-1.61-.1-2.41-.15h-.11s-.04-.01-.06-.01c-.05-.96-.15-1.92-.24-2.88-.24-2.22-.56-4.43-.66-6.66-.1-2.11.06-4.22-.05-6.33-.24-4.65-.3-9.46-1.81-13.91-.97-2.83-4.81-4.06-7.47-3.17-2.75.92-4.85,3.44-3.83,6.43.16.47.3.94.42,1.41t-.01-.01c0,.09.22,1.1.24,1.27.16,1.19.24,2.4.3,3.6.12,2.26.35,4.53.35,6.79.01,2.48-.03,4.9.23,7.37.24,2.38.6,4.75.69,7.14.05,1.34-.02,2.59.47,3.89.65,1.7,2.12,3.03,3.75,3.77,2.66,1.21,5.35,1.15,8.16,1.4h.05s.06,0,.09.01c.04,0,.07,0,.11.01.09.01.18.02.3.03-.05-.01-.11-.01-.16-.01.35.04.78.09.91.1.49.05.97.11,1.45.17,1.28.15,2.56.33,3.85.46,2.93.3,5.76.19,8.7.16,2.71-.02,5.98-2.37,5.67-5.35Zm-11.08-4.62c.12.02.22.03.27.04-.05,0-.13,0-.27-.04Z"/><path class="cls-1" d="m213.22,46.88s-.11-.01-.16-.01c-.04,0-.08-.01-.11-.01-.04,0-.08-.01-.11-.01-.03-.01-.06-.01-.09-.01-.01-.01-.02-.01-.03-.01.03,0,.06,0,.09.01.04,0,.07,0,.11.01.09.01.18.02.3.03Z"/><path class="cls-1" d="m222.54,37.79s-.08-.01-.13-.02c.02,0,.03,0,.05,0,.03.01.05.01.08.02Z"/><path class="cls-1" d="m222.83,37.83s-.13,0-.27-.04c.12.02.22.03.27.04Z"/><path class="cls-1" d="m237.67,8.65c.13,4.16.32,8.3.85,12.42.25,1.96.34,3.92.49,5.89.08,1.01.18,2.01.34,3.01.1.61.23,1.22.35,1.82.08.38.16.77.24,1.15s.14.65.02.11c.87,4.11,1.36,9.28,5.02,12.01,1.91,1.43,4.32,1.8,6.63,1.99s4.79.23,7.19.32c4.59.18,9.19.48,13.77-.06,2.68-.32,6-2.17,5.67-5.36-.3-2.92-3.26-5.11-6.18-4.76-4.74.56-9.5.22-14.25.05-1.09-.04-2.18-.06-3.27-.1-.31-.01-.62-.03-.93-.04.81.06.87.06.19,0-.6-.07-1.23-.19-1.83-.23-1.41-.1.93.49.09.08.6.24,1.09.62,1.49,1.12-.1-.13-.2-.27-.29-.41-.23-.37-.21-.31.05.18-.13-.25-.25-.51-.36-.77-.19-.45-.32-.92-.44-1.4-.3-1.18-.53-2.39-.78-3.58.11.53.1.49-.02-.11-.11-.53-.22-1.05-.33-1.58-.05-.24-.1-.48-.15-.72.11.54.11.52,0-.07-.32-2.32-.44-4.63-.64-6.96s-.64-4.84-.76-7.28-.25-4.87-.32-7.31c-.09-3-3.41-5.01-6.18-4.76s-5.77,2.19-5.67,5.36h0Z"/><path class="cls-1" d="m319.28,17.13c-1-3.98-2.85-7.44-6.44-9.66-4.23-2.63-9.03-4.35-14.08-4.02-2.23.15-4.45.67-6.53,1.49-2.44.95-4.26,2.32-6.11,4.14-2.17,2.13-3.94,4.27-5.07,7.12-.93,2.36-1.16,5.05-1.26,7.56-.1,2.49.13,4.97.46,7.43.06.44.13.87.21,1.3-.13.45-.17.93-.09,1.45.65,4.42,2.26,8.58,6.09,11.22,4.22,2.91,9.19,4.07,14.26,4.05,2.53-.02,5.04-.25,7.39-1.23,2.22-.93,4.23-2.31,5.95-4,1.75-1.72,3.15-3.54,4.08-5.81.84-2.02,1.03-4.25,1.35-6.4.38-2.49.94-5.04.97-7.56.03-2.4-.6-4.78-1.18-7.08Zm-10.38,8.32s0-.1,0-.2c-.04.26-.08.51-.12.77-.28,1.81-.53,3.61-.82,5.41-.14.95-.27,1.91-.49,2.84-.09.39-.22.76-.32,1.14.03-.06.07-.12.1-.19-.06.14-.11.25-.15.33.01-.03.03-.07.04-.11-.08.14-.15.27-.23.41-.03.05-.17.27-.27.43h-.01c-.1.12-.21.23-.31.35-.51.53-1.03,1.06-1.58,1.54-.06.05-.12.1-.18.16.06-.04.1-.06.12-.06-.25.19-.41.31-.48.36.04-.05.13-.12.26-.22.03-.02.05-.05.08-.07-.17.11-.44.32-.53.37-.12.07-.33.23-.54.36.02-.01.04-.01.04-.01-.02.02-.06.04-.12.06-.01.01-.02.01-.03.01-.17.11-.34.19-.46.19.08-.03.15-.06.22-.09-.25.04-.5.09-.75.13.14-.03.27-.06.4-.1-.15.02-.3.03-.45.04-.55.04-1.11.05-1.67.05-.3.01-.59.01-.89.01-.19,0-.38,0-.56-.01.11.01.2.02.26.02-.09,0-.22-.01-.39-.02h.13s-.05-.01-.07-.01c-.78-.14-1.61-.2-2.39-.41.02.01.04.02.05.03-.04,0-.12-.03-.26-.09.07.02.13.04.2.06-.13-.06-.39-.18-.53-.23-.45-.17-.88-.35-1.31-.56-.12-.06-.24-.12-.36-.18-.52-.29-.46-.24.2.14-.37-.06-.83-.56-1.15-.82.39-1.24.26-2.61-.7-3.81-.09-.11-.48-.72-.52-.71h0c-.09-.22-.18-.42-.25-.64-.08-.24-.19-.5-.25-.77.02.31.02.46-.06-.34.01.11.03.23.06.34-.02-.19-.04-.45-.05-.55-.26-1.81-.45-3.64-.51-5.46-.02-.88-.01-1.76.04-2.63.01-.11.03-.43.04-.61v-.04s0-.02.01-.04v-.04c.04-.27.08-.55.12-.82.14-.79.37-1.55.58-2.33.02-.07.03-.12.04-.17-.47.72.16-.77,0,0,.02-.04.05-.08.08-.13.22-.37.43-.73.66-1.09.03-.05.05-.09.07-.13-.5.42.47-.77,0,0,.05-.05.13-.11.22-.2.33-.32.64-.66.96-.99.59-.59,1.18-1.2,1.8-1.76.04-.04.16-.12.26-.21-.13.07-.25.15-.37.23.1-.08.21-.16.31-.23h.01c.09-.08.19-.15.28-.22-.01.03-.07.08-.14.15.03,0,.05-.02.08-.02.06-.02.13-.05.19-.07.5-.18,1.01-.34,1.52-.48.05-.01.36-.1.65-.18-.06,0-.11.01-.15,0,.07,0,.15,0,.24-.02.21-.05.39-.08.4-.06,0,.03-.2.05-.4.06-.03.01-.06.01-.09.02h.13c.4,0,.82-.03,1.22-.06.04,0,.07,0,.1,0-1.15-.21,1.1-.09.02,0,.03,0,.06,0,.1.02.61.11,1.36.14,2,.32-.19-.11-.25-.17.26.08-.08-.02-.17-.05-.25-.07.08.04.18.1.26.13.49.21.99.39,1.48.61.35.17.69.36,1.04.53.04.02.07.03.1.05-.73-.49.08-.05.24.1-.02,0-.06-.01-.11-.03.43.26,1.32.7,1.44,1.08-.14-.14-.28-.28-.42-.43.16.18.32.36.46.56.07.09.14.19.21.28.3.47.26.38-.1-.26.43.25.73,1.71.87,2.17.17.53.3,1.06.44,1.59.08.31.16.63.23.94.02.09.2.9.21.9.14.75.23,1.51.26,2.28.02.3.01.6.01.9-.01.1-.01.17-.01.24l.03-.21c-.02.23-.03.37-.04.41Z"/><path class="cls-1" d="m291.81,31.01c.01.11.03.23.06.34.02.31.02.46-.06-.34Z"/><path class="cls-1" d="m292.14,18.66c-.47.72.16-.77,0,0h0Z"/><path class="cls-1" d="m292.95,17.31c-.5.42.47-.77,0,0h0Z"/><path class="cls-1" d="m296.28,14.08s.05-.02.08-.02c-.05.03-.11.05-.16.08,0,0-.01,0-.01,0-.13.07-.25.15-.37.23.1-.08.21-.16.31-.23h.01c.09-.08.19-.15.28-.22-.01.03-.07.08-.14.15Z"/><path class="cls-1" d="m296.8,38.96s-.12-.03-.26-.09c.07.02.13.04.2.06h.01s.04.02.05.03Z"/><path class="cls-1" d="m298.81,13.31s-.06.01-.09.02c-.06,0-.11.01-.15,0,.07,0,.15,0,.24-.02Z"/><path class="cls-1" d="m299.47,39.37c-.09,0-.22-.01-.39-.02h.13c.11.01.2.02.26.02Z"/><path class="cls-1" d="m300.19,13.26h-.02c-1.15-.21,1.1-.09.02,0Z"/><path class="cls-1" d="m302.55,13.68c-.08-.02-.17-.05-.25-.07,0-.01-.01-.01-.01-.01-.19-.11-.25-.17.26.08Z"/><path class="cls-1" d="m303.52,39.06s-.06.04-.12.06c-.01.01-.02.01-.03.01-.06.03-.14.06-.24.1-.25.04-.5.09-.75.13.14-.03.27-.06.4-.1.12-.02.24-.05.36-.08.17-.06.29-.1.34-.11.02-.01.04-.01.04-.01Z"/><path class="cls-1" d="m304.69,38.27c-.25.19-.41.31-.48.36.04-.05.13-.12.26-.22.03-.02.05-.05.08-.07.01,0,.01-.01.02-.01.06-.04.1-.06.12-.06Z"/><path class="cls-1" d="m305.42,15.03s-.06-.01-.11-.03c-.02-.01-.05-.02-.08-.04-.01,0-.03,0-.04-.02,0,0-.01,0-.01-.01-.73-.49.08-.05.24.1Z"/><path class="cls-1" d="m307.26,35.22c-.06.14-.11.25-.15.33.01-.03.03-.07.04-.11,0-.01,0-.02,0-.03.03-.06.07-.12.1-.19Z"/><path class="cls-1" d="m308.94,25.04c-.02.23-.03.37-.04.41,0-.03,0-.1,0-.2l.03-.21Z"/></g></g><g id="Layer_2"><rect class="cls-1" y="89.02" width="430" height="178"/></g><g id="Layer_4"><g><path class="cls-1" d="m221.46,67.79c-.12-1.42-.16-2.85-.3-4.27-.18-1.81-.37-3.85-1.17-5.51-.92-1.93-2.78-3.23-4.99-2.75-2.69.57-4.72,2.85-5.94,5.21-1.23,2.4,2.81,3.84,3.91,1.71.38-.76.82-1.49,1.4-2.11.42-.46.85-.74,1.32-.99.08.1.12.17.23.42.37.89.44,1.35.57,2.16.18,1.17.29,2.35.38,3.53-.86-.28-1.77-.43-2.62-.45-1.81-.05-3.62.71-4.85,2.04-1.27,1.35-1.64,3.26-1.47,5.06.32,3.21,2.09,7.17,5.7,7.63,1.65.21,3.5-.22,4.77-1.34,1.4-1.24,1.78-3.16,2.12-4.91.04-.23.05-.44.02-.64.43-.25.77-.62.91-1.1.37-1.24.11-2.44.01-3.69Zm-5.24,4.65c-.19.93-.26,2.31-.92,3.06-.17.19-.72.31-.93.25-.03-.01-.43-.25-.61-.44-.21-.22-.41-.53-.56-.81-.47-.86-.76-1.91-.86-2.88-.08-.83-.11-1.9.5-2.54.51-.53.94-.62,1.53-.56,1.84.19,2.25,1.25,2.7,2.74-.42.24-.74.63-.85,1.18Z"/><g><path class="cls-1" d="m142.26,74.91c-.01,2.47-4.42,2.68-4.4.22.01-1.69.26-3.34.22-5.04-.03-1.09-.07-2.19-.14-3.28-.11-1.62-.23-3.95-1.52-5.11-1.57-1.4-3.35,1.56-3.86,2.73-.99,2.28-1.36,4.8-1.38,7.27-.01.59,0,1.17.03,1.75-.04,2.46-4.28,2.7-4.41.22-.03-.65-.05-1.31-.03-1.98-.11-2.71-.49-5.47-.97-8.09-.17-.91-.4-2.48-1.43-2.85-.78-.27-1.72.38-2.27.86-1.59,1.39-2.3,3.59-2.85,5.55-.83,2.93-.99,5.77-1.02,8.79v.15c-.01,2.48-4.42,2.69-4.41.23v-.16c0-2.62-.24-5.27-.41-7.89-.16-2.66-.4-5.32-.65-7.97-.23-2.46,4.18-2.68,4.41-.22.03.31.06.61.08.92.84-1.26,1.9-2.34,3.28-3.1,3.45-1.89,7.77-.81,9.12,3.08,1.86-2.53,5.18-4.32,8.26-2.99,6.04,2.61,4.39,11.82,4.35,16.91Z"/><path class="cls-1" d="m162.05,60.75h-.01s.01.06.02.09c0-.03-.01-.06-.01-.09Z"/><path class="cls-1" d="m162.06,60.84s-.02-.06-.02-.09h.01s.01.06.01.09Z"/><path class="cls-1" d="m163.12,70.75c-.08-2.13-.33-4.25-.6-6.37v-.02c-.01-.41-.07-.82-.14-1.24h0c-.08-.76-.18-1.52-.32-2.26v-.02s-.02-.06-.02-.09c-.04-.16-.06-.34-.1-.5-.27-1.08-1.37-1.43-2.39-1.23-1.15-.06-2.3.58-2.24,1.94.1,2.39-.2,4.75-.75,7.08-.4,1.67-1.01,3.83-2.63,4.73-1.61.9-2.84-1.87-3.17-3-.7-2.4-1.02-4.9-1.26-7.39-.25-2.45-4.65-2.23-4.41.23.17,1.73.38,3.45.72,5.15.32,1.56.6,3.21,1.29,4.66,1.36,2.84,4.46,4.96,7.68,4.12,1.67-.43,2.97-1.49,3.96-2.83-.07,1.78-.34,3.55-.99,5.19-.8,2.03-2.32,4.23-4.79,3.64-2.31-.55-3.87-2.81-5.05-4.71-1.26-2.03-5.13-.2-3.71,2.09,1.8,2.9,4.31,5.58,7.77,6.31,3.68.78,6.83-.92,8.8-3.97,2.18-3.38,2.49-7.59,2.35-11.51Zm-.68-5.89s-.02-.14-.03-.2c.05.1.06.17.03.2Z"/><path class="cls-1" d="m162.44,64.86s-.02-.14-.03-.2c.05.1.06.17.03.2Z"/><path class="cls-1" d="m204.92,78.15c-.55.9-2.05,1.38-2.99.83-1.26-.75-1.3-1.9-1.44-3.23-.14-1.32-.11-2.65-.1-3.98.02-3.13.36-6.47-.22-9.57-.11-.64-.31-1.3-.59-1.89-.09-.19-.34-.5-.45-.67-.17.1-.35.18-.5.29-.48.33-.93.75-1.34,1.17-1.73,1.81-2.53,4.53-3.08,6.91-.39,1.66-.53,3.35-.65,5.05-.09,1.41.12,2.91-.36,4.27-.35,1.01-1.31,1.52-2.35,1.47-.89-.05-2.03-.72-2-1.76.02-.68-.12-1.34-.16-2.02-.04-.72-.03-1.45-.08-2.17-.09-1.42-.13-2.85-.19-4.27-.13-2.97-.35-5.93-.78-8.86-.17-1.14,1.15-1.95,2.1-1.99,1.14-.06,2.13.63,2.3,1.77.08.51.15,1.03.21,1.54.8-1.38,1.82-2.61,3.13-3.62,1.43-1.1,3.11-1.92,4.96-1.5,1.69.37,2.85,1.77,3.5,3.29,1.35,3.18,1.01,6.9.97,10.26-.01,1.75-.1,3.52.01,5.26.03.43.08.86.13,1.29.03.21.08.43.09.64h0v.05c.19.43.19.92-.12,1.44Z"/><path class="cls-1" d="m249.45,77.87c0,2.48-4.41,2.69-4.41.22,0-3.19.09-6.38.12-9.57.03-2.42.06-4.8-1.11-6.89-.18-.31-.43-.69-.71-.96-.05-.05-.42-.26-.31-.26-.06-.02-.08-.03-.09-.04,0,0,0-.01.01-.02t-.02.01h0s-.02,0-.04.01c0-.01.02-.01.04-.01h.01s-.06.04-.11.06c-.45.22-.84.56-1.15.95-1.74,2.17-1.32,5.2-1.91,7.75-.4,1.76-3.77,2.1-4.25.21-.63-2.46-.73-5.1-1.78-7.44-.23-.52-.25-.59-.48-.91-.02-.02-.04-.06-.08-.11-.16.25-.34.5-.51.75-1.37,2.13-2.3,4.49-2.61,7.01-.15,1.27-.2,2.55-.22,3.82-.02,1.19.14,2.4-.09,3.58-.38,1.95-3.58,1.9-4.25.21-.45-1.15-.23-2.26-.23-3.45,0-1.43-.18-2.85-.18-4.28,0-2.68.12-5.8-.95-8.3-1.01-2.36,3.26-3.42,4.2-1.21.13.3.24.6.34.91.48-.73,1.01-1.4,1.59-1.98,1.12-1.13,2.83-1.68,4.35-1.07,1.17.47,2.03,1.45,2.65,2.52.11.19.22.38.32.58.31-.48.67-.94,1.07-1.35,2.34-2.38,5.89-2.67,8.24-.2,1.98,2.09,2.53,5.15,2.65,7.92.16,3.83-.1,7.71-.1,11.54Z"/><path class="cls-1" d="m242.95,60.35s-.01.02-.01.02h-.01s.01-.02.02-.02Z"/><path class="cls-1" d="m259.76,74.24c-.88.39-1.36.38-2.1-.28-.77-.69-1.24-1.61-1.56-2.58-.43-1.32-.63-2.81-.64-4.29.25.07.52.1.78.08.93-.08,1.85-.16,2.78-.19.88-.03,1.9.18,2.75.04,2.29-.4,2.38-2.64,1.89-4.45-.8-2.93-3.47-6.99-6.95-6.72-3.46.28-4.78,4.5-5.3,7.36-.57,3.2-.53,6.99.73,10.04.74,1.78,1.99,3.35,3.69,4.31,2.09,1.17,4.25.74,6.32-.19.98-.43,1.29-1.77.66-2.61-.73-.97-2.03-.98-3.05-.52Zm-3.06-13.61s.22-.43.3-.57c.01-.01.05-.08.1-.15.24.19.51.4.57.47.36.45.68.93.96,1.44.25.45.47.92.64,1.41-1.07.01-2.15.09-3.22.18-.07.01-.15.01-.22.03.21-.99.52-2.03.87-2.81Z"/><path class="cls-1" d="m296.38,76.64c-.01,1.15-1,1.93-2.11,1.99-.99.05-2.31-.63-2.29-1.77.04-2.63-.39-5.25-.55-7.87-.17-2.74-.25-5.49-.33-8.23-.07-2.48,4.34-2.69,4.41-.22.08,2.74.16,5.49.33,8.23.16,2.62.59,5.24.54,7.87Z"/><path class="cls-1" d="m292.09,55.02c1.05,0,2.17-.89,2.11-1.99-.06-1.19-1.25-1.77-2.3-1.77s-2.17.89-2.11,1.99c.06,1.19,1.25,1.77,2.3,1.77h0Z"/><path class="cls-1" d="m309.73,78.91c-1.58.72-3.52.86-5.14.19-1.52-.64-2.47-1.87-3.3-3.24-1.39-2.31,2.47-4.14,3.71-2.09.52.85,1.11,2.2,2.29,1.97.99-.19,1.52-1.37,1.77-2.25.34-1.23.28-2.56-.06-3.79-.36-1.28-1.05-1.93-2.13-2.67-1.41-.97-2.88-1.86-4.26-2.87-1.45-1.08-2.24-2.61-2-4.43.22-1.59,1.06-3.12,2.41-4.02,1.82-1.22,4.03-.77,5.77.31.95.58.87,1.97.14,2.66-.88.83-2.15.75-3.12.16-.08-.06-.22-.06-.27-.08.03-.03.07-.06.11-.07-.13.05-.15.06-.11.07-.13.12-.23.33-.29.46-.2.4-.4,1.01-.25,1.46.17.56.97.94,1.44,1.25.78.51,1.56,1.02,2.33,1.54,1.19.82,2.46,1.6,3.34,2.78.94,1.26,1.35,2.84,1.52,4.38.35,3.12-.86,6.88-3.9,8.28Z"/><path class="cls-1" d="m305.65,58.69s-.08.04-.11.07c-.04-.01-.02-.02.11-.07Z"/></g></g></g></svg>